<?xml version="1.0" standalone="no"?>
<!DOCTYPE svg PUBLIC "-//W3C//DTD SVG 20010904//EN"
 "http://www.w3.org/TR/2001/REC-SVG-20010904/DTD/svg10.dtd">
<svg version="1.0" xmlns="http://www.w3.org/2000/svg"
 width="1024.000000pt" height="807.000000pt" viewBox="0 0 1024.000000 807.000000"
 preserveAspectRatio="xMidYMid meet">

<g transform="translate(0.000000,807.000000) scale(0.100000,-0.100000)"
fill="#000000" stroke="none">
<path d="M1962 7913 c30 -69 22 -180 -20 -265 -27 -57 -28 -60 -6 -33 13 17
34 55 45 85 26 68 22 155 -10 218 -29 56 -35 54 -9 -5z"/>
<path d="M1502 7775 c0 -16 2 -22 5 -12 2 9 2 23 0 30 -3 6 -5 -1 -5 -18z"/>
<path d="M1494 7665 c4 -38 9 -86 13 -105 6 -33 5 -34 -13 -20 -18 14 -18 14
-5 -2 7 -10 18 -15 24 -11 6 3 7 1 3 -5 -4 -6 0 -24 9 -39 10 -18 14 -21 11
-8 -3 11 -13 72 -22 135 -18 129 -30 162 -20 55z"/>
<path d="M1757 7523 c-37 -53 -67 -93 -67 -87 0 9 21 89 35 134 4 14 4 22 0
18 -17 -16 -55 -146 -55 -188 0 -43 -13 -70 -32 -70 -4 0 -8 7 -8 15 0 8 -4
15 -10 15 -5 0 -10 -5 -10 -12 0 -18 -14 0 -42 52 -13 25 -32 46 -42 48 -16 3
-18 -1 -12 -29 9 -47 53 -140 80 -169 36 -38 39 -68 37 -300 -1 -118 3 -231 8
-250 6 -25 9 21 10 161 1 225 5 259 32 259 10 0 26 11 35 25 16 24 16 27 -1
45 -18 19 -18 23 -2 74 24 73 55 117 102 142 22 11 41 27 43 34 2 8 10 19 19
25 19 14 9 37 -12 28 -22 -8 -18 6 11 46 26 35 26 35 2 11 -14 -14 -59 -62
-101 -107 -43 -45 -77 -76 -77 -70 0 12 33 75 99 190 18 31 31 57 28 57 -2 0
-34 -44 -70 -97z"/>
<path d="M1462 7363 c56 -63 71 -106 72 -198 1 -56 -5 -95 -18 -130 -20 -53
-145 -285 -154 -285 -9 0 8 84 33 163 14 43 25 83 24 90 0 10 -47 -102 -75
-178 -5 -15 -9 -5 -15 35 -6 42 -7 32 -4 -46 3 -108 -3 -136 -25 -110 -7 9
-17 13 -22 10 -29 -18 -127 130 -180 271 -10 28 -16 37 -12 20 9 -46 55 -157
78 -188 17 -23 18 -29 6 -37 -11 -7 -11 -14 -3 -32 22 -47 75 -110 118 -140
42 -30 44 -33 28 -50 -21 -23 -30 -23 -38 2 -13 42 -42 57 -91 50 -56 -9 -82
-34 -95 -89 -11 -49 4 -86 48 -122 20 -15 22 -20 8 -14 -84 32 -139 29 -171
-8 -18 -20 -20 -35 -16 -93 3 -31 37 -62 83 -74 35 -10 45 -8 75 9 44 26 52
26 30 2 -25 -27 -95 -43 -137 -31 -45 13 -46 13 -23 -5 22 -17 81 -19 118 -5
24 9 25 8 24 -39 0 -88 33 -119 106 -100 48 12 65 26 90 74 l16 30 0 -34 c0
-24 -9 -42 -34 -67 -19 -19 -30 -34 -26 -34 19 0 80 82 80 108 0 28 0 28 44
18 40 -9 45 -14 56 -51 19 -67 82 -226 87 -221 3 3 -2 26 -10 51 -9 25 -11 43
-6 39 14 -8 66 15 73 32 3 8 26 27 52 43 51 33 111 106 94 116 -5 3 -26 -5
-46 -19 -20 -13 -42 -22 -49 -20 -7 3 -16 0 -20 -6 -16 -26 -23 14 -9 53 8 22
13 58 12 81 l-1 41 -4 -37 c-5 -50 -18 -48 -31 5 -9 38 -10 36 -5 -25 4 -47 2
-68 -6 -68 -6 0 -11 6 -11 14 0 7 -7 19 -15 26 -9 7 -15 8 -15 2 0 -19 -88
-55 -117 -47 -21 5 -24 8 -12 16 7 5 24 9 36 9 31 0 94 79 91 115 -2 25 -38
65 -70 78 -10 4 -9 9 3 19 23 18 41 87 29 107 -8 13 -9 12 -10 -7 0 -57 -73
-143 -120 -142 -8 1 1 9 21 20 49 26 59 40 66 97 5 42 2 53 -18 76 -13 16 -42
34 -64 42 -36 13 -37 14 -12 15 26 0 27 2 27 53 0 28 5 68 10 88 10 37 61 96
95 110 18 7 18 8 1 8 -17 1 -17 2 -2 26 22 33 20 38 -9 33 l-24 -5 16 36 c70
161 81 259 38 346 -26 54 -38 70 -75 100 -14 11 -9 2 12 -22z m-267 -833 c7
-24 7 -24 -9 -5 -8 11 -16 27 -16 35 0 20 16 1 25 -30z m35 12 c0 -15 -2 -15
-10 -2 -13 20 -13 33 0 25 6 -3 10 -14 10 -23z m-85 -54 c28 -58 29 -62 15
-53 -16 10 -62 105 -50 105 5 0 21 -23 35 -52z m215 30 c-8 -7 -20 -20 -28
-28 -12 -13 -13 -13 -6 0 12 25 26 40 37 40 6 0 5 -6 -3 -12z m-171 -40 c10
-29 10 -31 -3 -18 -17 19 -33 65 -18 56 5 -3 15 -21 21 -38z m48 5 c-3 -10 -5
-4 -5 12 0 17 2 24 5 18 2 -7 2 -21 0 -30z m158 10 c-28 -20 -41 -16 -20 7 10
11 22 17 28 13 6 -4 3 -12 -8 -20z m-5 -31 c0 -13 -23 -32 -39 -32 -11 0 -10
4 4 20 19 21 35 26 35 12z m47 -20 c-9 -10 -36 -29 -59 -41 -48 -26 -44 -20
21 33 44 37 68 42 38 8z m-154 -107 c19 -6 19 -8 5 -12 -10 -2 -18 -14 -18
-25 0 -16 -3 -18 -14 -9 -7 6 -21 8 -31 5 -13 -5 -16 -2 -13 13 1 11 -4 28
-12 38 -14 17 -13 18 3 12 11 -4 21 0 30 13 12 20 12 20 20 -4 4 -13 18 -27
30 -31z m-194 21 c-2 -2 -24 -6 -49 -9 -30 -4 -38 -3 -25 3 19 8 83 14 74 6z
m14 -33 c-7 -2 -19 -2 -25 0 -7 3 -2 5 12 5 14 0 19 -2 13 -5z m372 -3 c4 -6
-5 -10 -19 -10 -14 0 -26 5 -26 10 0 6 9 10 19 10 11 0 23 -4 26 -10z m-430
-10 c-11 -5 -27 -9 -35 -9 -13 -1 -13 0 0 9 8 5 24 9 35 9 l20 0 -20 -9z m55
-9 c-26 -15 -66 -24 -55 -13 6 5 19 12 30 15 32 8 41 7 25 -2z m34 -22 c-8
-13 -90 -49 -112 -49 -27 0 -1 17 58 38 30 11 56 20 58 21 2 0 0 -4 -4 -10z
m352 -5 c17 -14 17 -15 1 -10 -10 3 -28 6 -40 6 -18 0 -19 2 -7 10 20 13 23
13 46 -6z m4 -50 c0 -2 -14 -4 -31 -4 -16 0 -28 4 -25 9 5 8 56 3 56 -5z m-81
-20 c14 -12 -19 -1 -35 12 -18 14 -18 14 6 3 14 -6 27 -13 29 -15z m-216 -9
c-3 -9 -8 -14 -10 -11 -3 3 -2 9 2 15 9 16 15 13 8 -4z m-22 -72 c-9 -16 -10
-16 -11 -1 0 9 3 25 7 35 7 16 8 17 11 1 2 -10 -1 -25 -7 -35z m388 -15 c1
-41 -13 -34 -25 12 -8 28 -8 40 0 43 14 5 24 -19 25 -55z m-348 1 c-6 -24 -9
-28 -10 -12 -1 24 9 56 16 50 2 -3 0 -20 -6 -38z m295 -11 c7 -32 14 -43 27
-42 27 3 18 -40 -10 -44 -18 -3 -24 5 -38 53 -15 53 -14 75 4 75 5 0 12 -19
17 -42z m-240 16 c-3 -9 -6 -20 -6 -25 0 -5 -4 -9 -9 -9 -4 0 -6 11 -3 25 2
14 9 25 14 25 6 0 7 -7 4 -16z"/>
<path d="M1771 7325 c-49 -64 -56 -81 -42 -90 6 -3 8 -11 5 -17 -4 -6 -3 -9 2
-5 20 12 105 147 99 157 -11 18 -22 11 -64 -45z"/>
<path d="M1445 6735 c-35 -77 -39 -99 -22 -114 13 -10 20 0 46 69 18 45 29 85
26 90 -13 21 -27 8 -50 -45z"/>
<path d="M1543 6608 c-39 -42 -59 -83 -43 -93 4 -2 10 9 13 25 4 16 23 47 43
70 48 53 39 51 -13 -2z"/>
<path d="M1055 6556 c-18 -43 -11 -84 21 -122 l25 -29 -21 40 c-22 43 -26 95
-10 126 6 10 8 19 5 19 -3 0 -12 -15 -20 -34z"/>
<path d="M1837 6321 c-10 -21 -36 -67 -58 -102 -23 -35 -35 -58 -26 -51 30 25
121 192 105 192 -2 0 -12 -17 -21 -39z"/>
<path d="M1582 6310 c0 -14 2 -19 5 -12 2 6 2 18 0 25 -3 6 -5 1 -5 -13z"/>
<path d="M1228 6003 c7 -3 16 -2 19 1 4 3 -2 6 -13 5 -11 0 -14 -3 -6 -6z"/>
<path d="M1167 5887 c-10 -56 -17 -115 -17 -131 0 -43 -8 -28 -24 45 l-14 64
-1 -48 c-1 -26 8 -75 20 -109 13 -38 17 -64 11 -70 -6 -6 -12 -6 -16 1 -4 6
-14 11 -22 11 -8 0 -12 -4 -9 -10 11 -18 -4 -11 -53 24 -32 24 -52 32 -62 26
-28 -17 62 -106 158 -157 17 -9 32 -22 32 -29 0 -6 11 -19 24 -27 13 -9 30
-33 36 -54 7 -21 28 -75 46 -121 19 -45 34 -86 34 -90 0 -4 -21 -6 -47 -5
l-48 2 50 -8 c84 -14 143 -57 194 -141 22 -36 30 -26 10 13 -16 30 -101 117
-115 117 -11 0 -52 88 -94 200 -24 65 -24 70 -6 70 15 0 26 21 26 51 0 12 -7
19 -19 19 -23 0 -31 26 -31 112 0 72 9 105 36 132 9 10 18 28 19 41 2 13 6 32
10 44 6 21 -9 30 -20 11 -11 -17 -23 -1 -19 23 3 12 -12 -23 -32 -78 -20 -55
-39 -107 -42 -115 -13 -32 -14 60 -1 168 7 61 10 114 8 117 -3 2 -13 -42 -22
-98z"/>
<path d="M836 5940 c10 -36 42 -100 70 -137 30 -39 30 -46 2 -38 -20 5 -21 4
-5 -5 9 -6 22 -8 27 -5 6 3 10 2 10 -4 0 -6 10 -16 22 -22 17 -9 13 0 -17 42
-22 29 -57 85 -78 123 -21 39 -35 60 -31 46z"/>
<path d="M1101 5884 c0 -11 3 -14 6 -6 3 7 2 16 -1 19 -3 4 -6 -2 -5 -13z"/>
<path d="M1409 5773 c-13 -16 -12 -17 4 -4 9 7 17 15 17 17 0 8 -8 3 -21 -13z"/>
<path d="M1260 5696 c-17 -84 -17 -110 1 -114 12 -2 18 13 29 70 7 40 15 79
17 86 3 7 -3 12 -15 12 -17 0 -23 -10 -32 -54z"/>
<path d="M1370 5704 c-40 -92 -19 -193 68 -321 44 -65 52 -86 28 -77 -23 9
-27 -12 -6 -31 11 -10 20 -23 20 -29 0 -6 17 -21 38 -34 51 -32 69 -60 89
-136 l17 -64 -24 -20 c-24 -20 -25 -20 -6 -41 11 -12 30 -21 43 -21 23 0 23
-1 23 -109 0 -62 -4 -112 -10 -116 -27 -17 -107 117 -96 161 4 14 2 42 -5 62
-10 32 -13 34 -24 18 -10 -13 -14 -14 -18 -4 -11 27 -6 -18 8 -77 18 -75 18
-80 1 -66 -7 6 -31 50 -51 96 -21 47 -40 84 -41 82 -2 -2 10 -39 26 -83 17
-43 30 -81 30 -84 -1 -3 -21 18 -46 45 l-46 50 33 -49 c19 -27 51 -63 72 -81
37 -32 50 -62 22 -51 -9 3 -15 0 -15 -8 0 -10 -13 -12 -50 -8 -39 4 -50 1 -50
-10 0 -25 51 -42 127 -42 39 -1 75 -5 79 -9 4 -4 16 -7 26 -7 14 0 18 -8 18
-40 0 -41 -35 -332 -46 -385 -6 -26 -8 -28 -14 -10 -4 11 -5 34 -2 50 2 17 2
27 -3 23 -4 -4 -13 -64 -21 -135 -8 -70 -16 -132 -18 -138 -6 -19 -26 71 -36
170 -6 54 -13 101 -16 104 -4 3 -4 -48 -1 -114 l6 -120 -34 73 c-19 39 -36 72
-38 72 -11 0 53 -164 76 -194 30 -39 27 -71 -6 -60 -15 5 -19 3 -14 -9 4 -11
-9 -9 -56 11 -49 21 -83 48 -163 127 -120 120 -164 194 -172 291 -3 43 -9 64
-18 64 -20 0 -44 -29 -51 -61 -3 -15 -13 -35 -23 -44 -16 -15 -23 -14 -79 5
-33 11 -83 20 -110 20 -42 0 -56 -5 -87 -32 l-37 -32 6 -77 c5 -58 3 -80 -7
-88 -7 -6 -48 -16 -90 -21 -43 -5 -81 -12 -86 -15 -23 -14 -34 -102 -27 -215
2 -30 -2 -37 -30 -51 -76 -38 -80 -56 -20 -94 23 -15 65 -45 93 -66 62 -47
177 -102 264 -124 104 -27 324 -22 359 8 43 38 58 39 91 7 52 -51 74 -22 46
60 -10 30 -12 49 -5 62 5 10 7 23 4 28 -3 5 6 42 20 84 14 41 25 87 25 103 0
55 12 57 82 10 47 -32 80 -46 117 -51 28 -4 51 -11 51 -16 0 -5 8 -14 18 -19
15 -8 17 -3 15 62 0 40 -6 93 -12 119 -9 39 -8 56 5 90 9 24 17 83 19 133 1
50 10 135 18 190 9 55 19 134 23 175 3 41 9 80 13 85 3 6 4 67 2 137 -4 152 9
215 55 263 29 31 84 148 84 179 0 28 -30 9 -61 -38 -22 -33 -34 -44 -40 -35
-5 9 -11 5 -20 -13 -18 -41 -39 -12 -39 54 0 29 -9 80 -20 113 -12 35 -18 45
-15 25 21 -124 24 -124 -61 15 -29 49 -54 86 -54 82 0 -4 25 -56 55 -115 53
-104 78 -168 58 -147 -35 35 -146 169 -177 212 -71 99 -97 240 -61 327 22 53
10 44 -15 -10z m-421 -1588 c23 -16 41 -34 41 -41 0 -6 12 -22 26 -36 25 -23
90 -115 116 -162 13 -25 68 -178 68 -190 0 -4 -30 52 -67 125 -55 109 -78 144
-130 196 -35 34 -61 67 -58 72 9 15 -79 22 -123 10 -66 -17 -91 -76 -74 -177
11 -66 -2 -69 -28 -7 -24 55 -26 134 -5 175 39 75 152 91 234 35z m-26 -134
c63 -51 95 -88 84 -98 -2 -2 -39 30 -82 71 -43 41 -82 75 -86 75 -5 0 -9 5 -9
11 0 14 13 6 93 -59z m312 5 c4 -17 9 -41 12 -52 6 -19 6 -19 14 3 5 12 6 28
3 35 -3 8 2 14 11 14 8 0 15 -7 15 -14 0 -8 5 -11 10 -8 6 4 10 -18 10 -58 0
-100 -54 -257 -88 -257 -10 0 -13 10 -10 34 2 19 1 33 -2 31 -11 -7 -42 93
-34 107 4 7 7 25 6 40 -3 34 15 37 27 6 8 -21 9 -20 16 15 4 20 4 50 1 65 -17
65 -19 85 -8 78 6 -3 13 -21 17 -39z m-30 -38 c9 -28 15 -53 12 -56 -6 -6 -33
54 -44 95 -11 46 15 14 32 -39z m-320 -24 c27 -24 47 -47 43 -51 -9 -8 -85 51
-99 77 -16 30 2 22 56 -26z m-26 -55 c45 -44 65 -70 54 -70 -18 0 -133 112
-133 130 0 5 2 10 4 10 2 0 35 -31 75 -70z m263 -92 c26 -34 58 -91 41 -73
-35 38 -83 105 -75 105 5 0 21 -15 34 -32z m-243 -17 c25 -21 75 -57 111 -80
49 -32 57 -41 35 -35 -16 4 -39 11 -50 17 -33 17 -155 117 -155 127 0 17 11
11 59 -29z m165 -141 c5 -5 -8 -5 -30 1 -21 6 -41 14 -44 16 -9 10 64 -7 74
-17z m130 10 c-5 -5 -25 -12 -44 -15 -35 -5 -35 -5 5 9 51 18 51 18 39 6z
m-57 -44 c-31 -24 -191 -49 -266 -43 -61 6 -167 34 -159 43 2 2 28 -3 58 -11
73 -20 199 -17 285 5 89 23 106 24 82 6z"/>
<path d="M1207 3773 c-4 -3 -7 -13 -7 -22 1 -13 3 -13 11 2 11 19 8 33 -4 20z"/>
<path d="M802 5610 c-52 -8 -81 -34 -92 -85 -10 -43 -2 -64 38 -107 25 -27 19
-41 -6 -16 -14 14 -84 12 -124 -4 -30 -11 -40 -32 -40 -85 0 -47 29 -84 80
-101 40 -13 44 -13 90 14 31 18 42 22 33 10 -37 -45 -133 -61 -181 -30 -21 13
-20 11 4 -11 24 -22 36 -26 70 -22 23 2 50 8 61 11 19 7 20 4 17 -31 -5 -54
12 -92 50 -108 18 -7 35 -10 38 -5 3 4 20 11 37 15 32 6 73 50 73 76 0 9 3 10
10 3 11 -11 -1 -55 -23 -85 -7 -8 0 -2 16 13 17 19 27 39 27 59 0 26 3 30 18
24 41 -17 90 -17 123 0 34 17 68 52 69 70 0 5 -7 -1 -16 -13 -8 -12 -28 -29
-44 -37 -33 -17 -115 -21 -90 -5 8 5 25 10 38 10 22 0 45 19 85 69 24 30 13
64 -33 104 l-38 32 19 24 c12 15 19 37 18 65 l-1 41 -7 -35 c-13 -65 -67 -120
-117 -120 -9 0 2 10 26 23 35 18 45 30 56 66 7 24 10 51 7 60 -10 28 -46 62
-82 77 -35 15 -43 13 -78 -18 -21 -20 -21 -20 -35 8 -19 39 -46 52 -96 44z
m12 -56 c3 -9 6 -23 6 -32 -1 -12 -5 -10 -15 8 -8 14 -14 28 -15 33 0 13 18 7
24 -9z m34 -9 c-3 -3 -9 2 -12 12 -6 14 -5 15 5 6 7 -7 10 -15 7 -18z m-82
-50 c13 -31 24 -59 24 -63 0 -14 -49 67 -56 92 -11 44 6 29 32 -29z m202 15
c-22 -30 -35 -41 -22 -17 9 16 36 47 41 47 2 0 -6 -13 -19 -30z m-158 -29 c0
-21 -16 -2 -24 29 -7 24 -6 24 8 6 9 -11 16 -27 16 -35z m47 2 c-3 -10 -5 -2
-5 17 0 19 2 27 5 18 2 -10 2 -26 0 -35z m173 33 c0 -3 -15 -15 -32 -27 -29
-20 -31 -21 -18 -4 22 29 50 46 50 31z m-29 -66 c-30 -26 -46 -26 -24 0 10 11
24 20 33 20 11 -1 8 -6 -9 -20z m79 15 c0 -7 -92 -75 -103 -75 -14 0 76 79 91
80 6 0 12 -2 12 -5z m-203 -37 c-3 -8 -6 -5 -6 6 -1 11 2 17 5 13 3 -3 4 -12
1 -19z m3 -58 c0 -12 9 -24 22 -29 18 -6 19 -9 5 -14 -10 -4 -17 -12 -17 -19
0 -8 -12 -13 -30 -13 -27 0 -30 3 -25 23 3 12 1 22 -5 22 -5 0 -10 5 -10 10 0
6 9 10 20 10 11 0 20 7 20 15 0 8 5 15 10 15 6 0 10 -9 10 -20z m-181 -14 c-2
-2 -20 -6 -39 -10 -25 -4 -31 -3 -20 4 14 9 69 15 59 6z m391 -26 c8 -5 12
-12 8 -15 -10 -10 -49 5 -43 16 8 11 16 11 35 -1z m-431 -21 c-18 -11 -39 -11
-39 0 0 11 31 20 44 13 4 -2 2 -8 -5 -13z m57 -8 c-7 -11 -46 -21 -46 -12 0
13 13 21 32 21 11 0 17 -4 14 -9z m44 -16 c0 -9 -80 -45 -101 -45 -30 0 -20 8
37 30 54 20 64 22 64 15z m355 -5 c8 -13 -25 -13 -45 0 -12 8 -9 10 12 10 15
0 30 -4 33 -10z m-6 -46 c9 -8 -55 -2 -74 6 -13 6 -5 7 25 3 25 -3 47 -7 49
-9z m-97 -14 c18 -11 29 -20 23 -20 -5 0 -23 9 -40 20 -39 26 -25 26 17 0z
m-201 -27 c-12 -20 -14 -14 -5 12 4 9 9 14 11 11 3 -2 0 -13 -6 -23z m106 -35
c-3 -7 -5 -2 -5 12 0 14 2 19 5 13 2 -7 2 -19 0 -25z m-117 -13 c0 -14 -4 -25
-10 -25 -11 0 -14 33 -3 43 11 11 13 8 13 -18z m36 -31 c-4 -20 -10 -34 -13
-30 -3 3 -2 21 1 42 4 20 10 34 13 30 3 -3 2 -21 -1 -42z m53 9 c0 -5 -4 -17
-9 -28 -8 -18 -9 -17 -9 8 -1 15 4 27 9 27 6 0 10 -3 9 -7z"/>
<path d="M1841 5604 c0 -11 3 -14 6 -6 3 7 2 16 -1 19 -3 4 -6 -2 -5 -13z"/>
<path d="M680 5571 c-19 -37 -12 -98 15 -128 l25 -28 -21 50 c-18 41 -20 56
-12 87 11 42 9 48 -7 19z"/>
<path d="M1842 5495 c-2 -37 -23 -150 -38 -199 -6 -21 -6 -21 8 -1 8 11 15 31
16 44 0 14 6 36 12 51 6 15 9 53 7 86 -2 42 -4 48 -5 19z"/>
<path d="M1192 5250 c0 -14 2 -19 5 -12 2 6 2 18 0 25 -3 6 -5 1 -5 -13z"/>
<path d="M1524 5110 c28 -41 55 -75 61 -75 22 0 13 34 -24 92 -32 49 -44 61
-64 59 -24 -1 -24 -3 27 -76z"/>
<path d="M1578 4864 c-14 -13 29 -124 48 -124 19 0 18 8 -7 74 -21 54 -29 63
-41 50z"/>
<path d="M1160 4837 c0 -8 99 -77 111 -77 8 0 -7 14 -33 30 -25 16 -49 34 -53
39 -5 10 -25 16 -25 8z"/>
<path d="M1869 4733 c-80 -72 -108 -179 -83 -319 7 -44 14 -80 14 -82 0 -2 -9
0 -21 3 -19 6 -20 4 -14 -24 6 -28 4 -31 -17 -32 -23 0 -23 0 -2 -9 12 -5 25
-14 29 -20 11 -17 57 39 49 59 -3 9 -13 51 -22 95 -26 131 7 259 85 334 47 44
33 41 -18 -5z"/>
<path d="M1335 4730 c-4 -6 3 -10 14 -10 25 0 27 6 6 13 -8 4 -17 2 -20 -3z"/>
<path d="M1405 4596 c86 -39 148 -129 161 -233 4 -26 11 -55 16 -63 7 -12 8
-10 4 5 -2 11 -7 46 -11 78 -4 32 -13 73 -20 90 -24 56 -133 147 -177 147 -17
0 -9 -7 27 -24z"/>
<path d="M1882 4360 c0 -19 2 -27 5 -17 2 9 2 25 0 35 -3 9 -5 1 -5 -18z"/>
<path d="M2167 4287 c-26 -38 -40 -64 -31 -56 19 15 88 119 82 124 -1 1 -25
-29 -51 -68z"/>
<path d="M4155 4282 c-102 -55 -188 -139 -231 -227 -19 -40 -42 -76 -52 -80
-16 -6 -16 -7 1 -16 28 -16 21 -56 -14 -74 -25 -13 -28 -19 -18 -31 6 -8 24
-14 39 -14 15 0 33 -7 40 -15 7 -8 17 -15 22 -15 5 0 21 -14 35 -31 67 -79
179 -130 287 -129 127 2 206 66 146 117 -27 23 -25 45 6 74 74 69 72 151 -6
174 -46 14 -50 23 -29 68 10 23 19 49 19 58 0 22 -38 55 -92 79 -42 18 -47 24
-50 58 -2 23 -8 38 -18 39 -8 1 -46 -14 -85 -35z m-139 -135 c-36 -47 -65
-117 -70 -166 -2 -23 -7 -45 -11 -49 -4 -4 -5 14 -3 39 6 53 49 153 80 186 31
33 33 28 4 -10z m284 -82 c36 -19 50 -43 50 -87 0 -37 -20 -72 -52 -89 -11 -6
-71 -22 -132 -34 -61 -13 -105 -24 -98 -24 6 -1 12 -8 12 -16 0 -9 9 -15 23
-16 12 0 31 -5 42 -10 15 -7 8 -8 -24 -5 -30 3 -40 2 -30 -5 7 -5 24 -9 36 -9
12 0 25 -5 29 -12 5 -8 -2 -9 -24 -5 -37 8 -40 2 -11 -22 22 -17 21 -17 -10
-15 -43 3 -102 41 -145 93 -29 35 -34 46 -25 58 8 9 14 10 19 3 14 -23 212 -5
272 26 16 8 33 12 38 9 15 -9 41 53 38 88 -3 28 -10 36 -58 59 l-55 27 38 1
c21 0 51 -7 67 -15z m-161 -17 c-42 -26 -149 -73 -149 -66 0 5 -6 6 -12 2 -7
-4 -5 2 6 14 10 12 22 19 27 16 4 -2 34 6 66 20 32 13 60 22 62 20 2 -2 2 -5
0 -6z m101 -12 c0 -3 -24 -12 -52 -21 -29 -9 -60 -19 -68 -22 -11 -4 -12 -3
-4 6 20 22 124 52 124 37z m-35 -56 c-62 -25 -66 -24 -36 0 13 11 37 20 55 20
29 -1 27 -2 -19 -20z m75 -9 c0 -10 -114 -61 -136 -61 -33 0 -9 17 59 42 39
14 73 27 75 27 1 1 2 -3 2 -8z m-123 -277 c-3 -3 -12 -4 -19 -1 -8 3 -5 6 6 6
11 1 17 -2 13 -5z"/>
<path d="M1743 4173 c3 -21 9 -61 13 -89 5 -44 9 -51 25 -47 23 6 23 15 4 68
-8 22 -14 55 -15 73 0 23 -5 32 -16 32 -13 0 -15 -7 -11 -37z"/>
<path d="M2440 4076 c0 -7 -11 -34 -25 -59 l-24 -46 35 -17 c38 -18 80 -80 90
-133 4 -18 2 -56 -4 -84 -6 -29 -16 -90 -22 -137 -9 -76 -48 -225 -56 -217 -2
2 5 44 16 95 18 91 29 188 20 186 -3 -1 -22 -10 -42 -20 l-38 -18 -2 -90 c-1
-50 -3 -71 -5 -46 -1 25 -5 64 -9 88 -5 39 -7 42 -36 42 -29 0 -30 -2 -25 -32
3 -18 8 -55 11 -83 5 -47 4 -45 -21 32 -19 60 -32 84 -48 91 -20 9 -23 8 -28
-16 -3 -15 -11 -42 -18 -59 -12 -30 -11 -38 14 -89 34 -70 28 -83 -10 -21 -15
26 -32 47 -36 47 -4 0 -20 -9 -36 -21 -15 -11 -49 -23 -76 -27 l-48 -7 40 -50
c22 -28 66 -79 97 -113 l58 -62 -64 42 c-34 24 -83 58 -108 77 -54 41 -186
104 -252 120 -76 18 -199 14 -261 -9 -59 -22 -139 -93 -143 -125 -1 -11 -12
-47 -24 -80 -31 -83 -31 -217 -1 -296 39 -101 98 -154 219 -193 30 -10 52 -24
52 -32 0 -19 145 -19 218 0 63 17 169 66 235 108 26 17 50 28 53 25 10 -10
-110 -106 -170 -136 -96 -47 -184 -64 -298 -58 -120 6 -200 40 -283 118 -69
65 -101 119 -125 211 -23 89 -26 69 -4 -27 9 -38 16 -79 15 -89 0 -11 8 -25
17 -32 9 -8 13 -13 7 -13 -5 0 -26 13 -45 29 -36 32 -70 39 -70 16 0 -16 62
-74 108 -102 18 -10 32 -25 32 -32 0 -8 12 -27 28 -42 97 -100 99 -104 106
-158 4 -29 18 -85 32 -123 14 -39 24 -73 21 -75 -7 -7 -117 176 -117 196 0 11
-6 20 -14 20 -8 0 -24 16 -36 35 -23 36 -36 43 -42 23 -3 -7 -29 14 -61 47
-31 32 -59 56 -63 52 -10 -10 39 -69 106 -128 33 -29 58 -54 56 -57 -3 -2 -30
5 -61 17 -31 12 -68 21 -83 20 -30 0 -35 3 63 -39 50 -22 50 -22 28 -37 -41
-28 -29 -49 30 -58 28 -4 61 -8 71 -9 30 -2 32 -26 3 -26 -14 0 -32 -3 -41 -6
-19 -7 -22 -36 -3 -29 6 3 33 -1 60 -8 40 -10 52 -19 73 -55 27 -45 24 -50
-16 -27 -37 21 -90 20 -90 -2 0 -13 16 -23 60 -35 32 -10 68 -18 79 -18 11 0
28 -11 36 -24 15 -22 14 -29 -7 -90 -13 -36 -27 -66 -33 -66 -5 0 -26 17 -48
37 -35 35 -39 36 -49 20 -9 -18 -10 -18 -30 0 -11 10 -24 28 -29 40 -5 13 -44
50 -87 84 l-78 62 7 46 c4 25 3 50 -1 55 -5 5 -12 -9 -15 -30 -4 -22 -8 -43
-9 -49 -3 -10 -50 36 -110 106 -16 19 -35 52 -42 74 -7 22 -13 32 -13 23 -1
-10 -5 -18 -10 -18 -13 0 -21 26 -21 66 0 23 -5 34 -14 34 -8 0 -17 8 -19 18
-2 9 -3 5 -2 -10 2 -37 -9 -35 -34 6 -17 27 -21 51 -22 127 -1 95 -15 94 -19
-1 l-1 -45 -17 35 c-9 19 -21 37 -26 39 -4 2 -16 22 -27 45 -10 22 -19 33 -19
23 0 -25 27 -87 38 -87 6 0 13 -16 16 -35 4 -19 20 -60 36 -91 24 -45 27 -55
13 -49 -10 4 -29 10 -43 12 -25 4 -25 4 5 -21 17 -14 34 -26 38 -26 4 0 7 -8
5 -17 -2 -10 7 -22 20 -28 12 -7 26 -16 30 -20 8 -9 -73 0 -103 11 -18 7 -18
6 -7 -9 8 -9 30 -21 50 -28 30 -10 40 -9 69 6 32 18 34 18 54 -1 12 -10 30
-32 42 -48 l21 -29 -26 6 c-15 4 -33 10 -42 13 -11 4 -16 1 -16 -10 0 -18 69
-56 103 -56 13 0 36 -13 52 -30 16 -17 24 -30 19 -30 -6 0 -14 3 -18 8 -4 4
-41 7 -82 7 -74 0 -75 0 -52 -19 18 -14 34 -17 78 -13 41 3 64 0 92 -14 33
-17 37 -17 31 -3 -6 15 -2 15 28 -2 33 -19 169 -152 169 -166 0 -16 -20 -7
-54 26 -20 18 -63 48 -97 66 l-62 33 7 -26 c3 -15 1 -27 -5 -29 -35 -12 67
-94 105 -84 19 5 66 -3 115 -20 11 -3 6 -13 -16 -37 -33 -35 -53 -68 -53 -89
1 -9 3 -8 10 3 5 8 36 34 68 57 57 40 60 41 76 23 21 -23 20 -45 -1 -78 -17
-26 -17 -26 4 -21 20 5 24 0 39 -50 19 -68 45 -119 79 -160 31 -37 31 -40 -2
-45 -23 -3 -21 -4 9 -6 46 -1 57 -17 24 -33 -14 -6 -26 -15 -26 -20 0 -13 24
-9 46 7 33 25 44 18 46 -27 1 -42 1 -43 5 -7 l4 37 67 -24 c48 -16 68 -29 75
-46 19 -52 98 -108 82 -58 -12 39 14 19 34 -25 11 -25 29 -59 41 -74 27 -38
29 -121 2 -121 -34 0 -81 18 -131 51 -41 27 -49 37 -45 55 3 11 -3 48 -13 80
-17 55 -18 57 -21 26 -2 -19 1 -47 7 -64 18 -50 13 -54 -24 -18 -36 35 -50 24
-20 -16 22 -29 19 -33 -27 -27 -47 5 -123 51 -176 106 -27 28 -33 43 -39 97
-5 49 -8 59 -13 40 l-7 -25 -12 28 c-6 16 -11 33 -11 38 0 5 -4 9 -10 9 -5 0
-10 -16 -10 -35 0 -19 -3 -35 -8 -35 -4 0 -39 31 -77 70 -69 69 -97 82 -71 32
14 -28 123 -139 150 -154 28 -16 17 -27 -15 -16 -16 6 -33 7 -37 3 -12 -11 30
-35 62 -35 22 -1 44 -13 75 -41 24 -21 41 -42 38 -45 -4 -4 -48 3 -99 15 -51
13 -115 25 -141 28 -37 5 -51 11 -57 27 -4 12 -20 32 -34 45 l-26 24 0 -23 0
-23 -25 23 c-18 17 -25 34 -25 61 0 36 -14 61 -22 38 -6 -18 -35 1 -62 40 -32
46 -104 117 -111 109 -12 -12 8 -58 41 -96 19 -22 34 -43 34 -47 0 -3 -16 -3
-36 1 -31 6 -35 4 -32 -11 2 -12 24 -25 67 -40 49 -16 70 -29 88 -56 l24 -34
-48 -12 c-92 -22 -122 -17 -160 25 -35 38 -37 36 -17 -28 5 -16 2 -20 -14 -20
-15 0 -27 13 -41 45 -23 52 -35 58 -29 14 4 -26 2 -30 -14 -26 -27 8 -112 -28
-117 -48 -3 -16 3 -17 50 -12 32 4 59 13 66 23 9 12 16 13 30 6 17 -10 17 -11
-2 -17 -54 -17 -73 -45 -30 -45 36 0 68 18 61 36 -7 19 6 18 60 -8 26 -12 49
-17 52 -12 9 12 15 13 142 26 73 7 116 7 136 1 l29 -11 -30 -6 c-165 -38 -190
-51 -146 -71 11 -5 21 -12 21 -16 0 -8 -47 -29 -65 -29 -14 0 -31 -37 -21 -47
3 -3 -6 -19 -19 -35 -25 -30 -33 -58 -16 -58 5 0 28 19 51 41 50 49 60 42 60
-43 0 -32 4 -58 9 -58 11 0 21 25 21 54 0 12 4 26 10 32 6 6 6 23 -1 47 -10
36 -6 57 10 57 5 0 16 -27 25 -60 9 -33 20 -60 23 -60 3 0 3 24 0 54 -4 41 -2
58 9 67 12 10 14 4 14 -37 0 -52 15 -120 29 -128 4 -3 8 47 7 110 -1 137 4
144 95 144 32 0 61 5 64 10 7 11 24 8 75 -12 24 -10 22 -11 -23 -23 -26 -6
-55 -19 -65 -28 -9 -9 -30 -28 -47 -42 l-30 -26 30 4 c53 8 189 47 199 57 13
13 78 13 113 -1 27 -10 25 -12 -45 -30 -40 -10 -80 -23 -90 -28 -15 -9 -14
-10 8 -11 14 0 49 7 79 15 41 11 72 12 134 5 44 -5 82 -11 84 -14 3 -2 -12
-12 -32 -21 -19 -10 -56 -41 -81 -69 -42 -48 -45 -49 -38 -21 l7 30 -34 -31
c-19 -17 -42 -34 -51 -37 -27 -9 -21 -27 8 -27 l25 0 -21 -27 c-31 -40 -3 -44
29 -4 14 17 29 31 34 31 4 0 7 -28 8 -62 0 -35 5 -72 10 -83 6 -14 8 6 6 62
-2 45 0 80 5 77 4 -3 8 -17 9 -32 0 -15 5 -36 10 -47 9 -20 7 31 -6 100 -4 21
-1 18 11 -12 15 -41 41 -62 30 -25 -23 84 -15 112 34 112 17 0 40 12 62 34 34
33 38 34 72 24 20 -6 36 -14 36 -17 0 -3 -15 -15 -33 -25 -30 -18 -30 -20 -10
-24 12 -2 32 2 44 8 17 10 23 9 30 -1 14 -23 11 -28 -31 -49 -23 -12 -45 -31
-49 -43 -5 -12 -8 -23 -7 -24 1 -1 25 10 54 24 42 21 55 23 67 13 21 -18 19
-27 -20 -84 -42 -61 -70 -126 -55 -126 6 0 19 13 28 30 20 36 29 38 35 7 2
-12 5 -2 6 23 1 26 9 55 20 69 19 25 41 22 41 -5 0 -8 5 -12 11 -9 6 4 20 -2
32 -13 12 -11 32 -25 45 -31 17 -9 21 -18 16 -34 -5 -18 -4 -20 7 -9 19 17 39
15 39 -5 0 -13 3 -14 8 -6 7 12 82 8 82 -4 0 -18 -39 -65 -58 -70 -12 -3 -28
-13 -35 -23 -6 -9 -33 -26 -59 -38 -27 -11 -48 -26 -48 -31 0 -13 -6 -14 60 4
30 8 56 15 57 15 1 0 -1 -24 -4 -54 -3 -30 -2 -67 3 -83 6 -22 9 -11 14 55 4
54 11 87 21 97 14 14 15 10 11 -42 -2 -42 1 -64 12 -78 14 -18 15 -15 9 45
l-6 65 22 -25 22 -25 -6 32 c-3 18 -7 45 -10 61 -7 36 44 88 98 97 33 7 37 5
32 -11 -5 -15 -3 -14 11 3 20 28 44 30 44 4 0 -34 18 -32 24 3 9 46 47 64 71
33 l16 -22 -4 28 c-6 37 4 40 61 22 40 -13 58 -14 88 -6 54 15 56 14 41 -17
-34 -66 -27 -137 17 -180 28 -29 86 -37 147 -21 33 8 89 57 102 90 3 8 6 2 6
-13 1 -35 -58 -103 -102 -117 -34 -12 -128 -11 -121 0 8 13 -35 -3 -47 -17 -6
-8 -26 -14 -43 -13 -25 0 -40 11 -76 54 -25 30 -48 55 -52 55 -16 0 -7 -29 22
-68 l30 -42 -29 0 c-16 0 -34 6 -41 14 -14 18 -135 59 -153 53 -6 -2 12 -12
41 -21 31 -11 52 -23 52 -32 0 -9 23 -25 52 -38 31 -14 47 -26 40 -30 -17 -10
-15 -36 2 -36 8 0 23 11 34 25 14 18 30 25 53 25 19 1 52 7 74 15 21 8 41 13
42 11 2 -1 -6 -29 -17 -61 -11 -33 -20 -84 -20 -119 0 -58 -2 -63 -35 -89 -25
-20 -35 -35 -34 -55 0 -15 3 -21 6 -12 7 19 44 60 54 60 16 0 19 -52 4 -80
-17 -33 -20 -107 -5 -130 7 -11 10 3 10 45 0 33 4 67 10 75 10 16 8 20 30 -60
14 -52 55 -136 70 -145 23 -14 21 5 -4 61 -28 60 -32 79 -16 69 6 -3 15 -3 21
0 6 4 0 19 -15 40 -15 19 -26 36 -26 38 0 3 14 4 31 3 51 -2 45 20 -9 38 -58
19 -62 28 -62 131 0 85 11 110 30 66 7 -17 37 -53 66 -80 52 -47 54 -52 54
-100 0 -27 5 -53 10 -56 8 -5 9 10 4 45 -9 69 11 64 47 -11 30 -61 59 -93 59
-65 0 10 -11 33 -25 54 -19 27 -22 38 -12 45 8 6 9 10 1 13 -25 10 -49 35 -38
40 6 3 20 11 30 19 15 11 16 16 7 26 -10 10 -21 9 -53 -4 -47 -18 -54 -14
-114 66 -26 36 -34 55 -31 78 5 44 31 79 59 79 12 0 45 11 72 25 68 35 80 31
36 -10 -20 -19 -32 -35 -26 -35 6 0 21 11 34 25 13 14 29 25 36 25 6 0 17 6
24 14 6 8 21 17 33 19 12 2 3 2 -20 0 -24 -2 -43 -1 -43 4 0 12 25 82 32 88 3
3 22 -4 42 -16 45 -26 119 -27 178 -2 45 19 43 20 146 -13 21 -6 4 -24 -23
-24 -39 0 -55 -11 -55 -36 0 -31 14 -31 28 1 14 31 32 33 32 4 0 -21 1 -21 25
5 25 27 53 30 47 6 -2 -9 5 -10 24 -6 42 11 24 -16 -22 -30 -33 -11 -35 -13
-10 -11 16 1 31 -4 33 -10 3 -9 -7 -13 -32 -13 -23 0 -34 -4 -29 -11 3 -6 15
-9 25 -6 26 7 24 -8 -3 -28 l-23 -17 23 7 c15 4 22 2 22 -7 1 -7 8 -1 16 15 8
15 12 32 8 38 -3 6 3 13 14 16 12 3 18 11 16 21 -2 10 0 24 5 32 9 13 12 12
26 -5 13 -18 14 -18 9 -1 -10 26 10 34 84 35 85 0 94 11 11 12 -35 0 -89 5
-119 10 -30 5 -70 11 -87 13 -18 2 -55 12 -83 21 -46 15 -49 18 -39 38 10 20
8 19 -17 -4 -43 -39 -70 -50 -123 -51 -38 0 -111 23 -111 35 0 1 30 0 66 -1
57 -3 70 0 105 22 21 15 39 31 39 36 0 6 7 10 15 10 8 0 17 11 21 25 11 43 -6
97 -41 132 -18 18 -27 33 -20 33 7 0 27 -16 44 -35 28 -33 35 -47 32 -67 0 -5
3 -8 8 -8 6 0 7 -17 4 -37 -5 -35 -4 -36 9 -19 15 19 38 15 38 -6 0 -6 -7 -5
-17 3 -16 13 -17 12 -4 -4 7 -9 19 -17 25 -17 6 0 17 -9 24 -20 15 -24 10 -25
-29 -4 -17 8 -33 13 -35 11 -20 -20 257 -97 349 -97 67 0 59 18 -10 22 -56 3
-58 4 -79 43 -12 22 -24 51 -26 65 -3 24 -1 25 87 37 117 15 201 16 227 2 17
-9 18 -13 7 -20 -8 -5 -26 -9 -41 -9 -28 0 -45 -14 -29 -25 5 -3 28 -1 50 4
36 8 41 7 41 -9 0 -13 -11 -19 -45 -23 -55 -6 -78 -25 -93 -76 -30 -97 -3
-166 75 -197 63 -23 100 -23 153 4 24 12 46 20 47 18 8 -7 -63 -44 -105 -56
-52 -13 -91 -7 -150 26 -39 21 -46 22 -65 9 -37 -23 -91 -29 -107 -10 -17 20
-50 39 -50 28 0 -5 12 -16 28 -25 l27 -17 -25 -1 c-23 -1 -23 -2 -6 -11 17
-10 16 -12 -10 -30 -38 -25 -130 -26 -156 -2 -18 17 -58 26 -58 13 0 -3 5 -11
12 -18 9 -9 -2 -12 -53 -13 -53 0 -60 -2 -39 -10 14 -6 46 -9 73 -7 49 3 55 0
36 -19 -9 -9 -6 -10 10 -6 12 3 24 9 27 14 6 11 74 12 74 2 -1 -18 -136 -88
-162 -85 -17 2 -28 -2 -28 -9 0 -7 -8 -9 -22 -4 -39 12 -185 17 -168 5 8 -5
27 -10 43 -10 29 0 34 -9 15 -28 -18 -18 22 -16 48 3 14 9 30 12 49 7 l28 -8
-33 -37 c-20 -24 -41 -37 -57 -37 -14 0 -22 -4 -18 -11 4 -6 -3 -13 -15 -16
-13 -4 -23 -16 -27 -35 -3 -15 -10 -31 -14 -34 -5 -3 -7 -10 -3 -15 4 -6 13
-4 24 6 10 9 24 15 31 13 9 -2 15 7 17 24 2 19 11 29 33 37 16 5 29 14 29 19
0 13 90 112 101 112 6 0 -4 -20 -20 -44 -30 -43 -32 -59 -5 -49 12 4 12 0 4
-22 -7 -20 -8 -31 0 -39 5 -5 10 -18 10 -28 0 -34 19 -18 22 20 l3 37 29 -28
c39 -39 42 -29 5 17 -35 42 -32 57 6 32 14 -9 25 -12 25 -7 0 6 -9 15 -21 21
-11 7 -18 14 -15 17 3 3 19 -6 36 -21 17 -14 37 -26 43 -26 7 1 -6 16 -28 35
l-40 34 18 28 c10 15 24 42 32 58 7 17 22 38 32 48 17 14 175 89 179 84 6 -8
-10 -115 -17 -111 -5 3 -9 -1 -9 -10 0 -8 -3 -22 -7 -32 -5 -13 -3 -16 10 -11
10 4 17 0 20 -11 3 -10 5 -5 6 11 1 33 7 34 40 5 18 -17 21 -18 11 -4 -8 11
-14 27 -12 37 2 9 -1 20 -7 23 -13 8 -1 119 13 128 19 13 26 9 26 -14 0 -15 3
-19 8 -11 11 18 92 -14 92 -36 1 -9 7 -29 16 -46 11 -22 13 -24 10 -7 -2 12 1
22 6 22 6 0 4 8 -5 18 -23 26 -22 29 19 36 19 4 42 10 49 12 10 4 8 -5 -6 -32
-33 -66 -21 -142 30 -188 23 -21 101 -24 157 -6 36 12 76 54 93 96 11 29 11
29 5 -6 -12 -70 -87 -139 -154 -141 -27 -1 -29 -3 -10 -6 33 -7 98 14 136 42
28 21 40 41 58 97 5 16 9 15 48 -7 70 -40 183 -25 228 30 13 17 10 16 -20 -2
-71 -43 -164 -39 -206 9 l-19 22 25 -17 c51 -35 146 -16 188 38 11 14 25 25
31 25 12 0 13 3 13 55 0 19 -1 42 -1 50 -1 8 -17 30 -37 50 -39 40 -40 38 19
108 l24 28 34 -20 c31 -18 142 -53 157 -49 4 1 32 -4 63 -11 48 -12 63 -11
110 2 29 9 55 15 57 13 1 -2 -7 -21 -20 -42 -34 -57 -32 -138 5 -193 26 -39
88 -80 95 -62 1 4 15 6 30 3 86 -12 187 61 202 146 l8 47 1 -55 c1 -44 -4 -63
-24 -92 -31 -46 -99 -87 -162 -98 l-48 -8 50 -1 c95 -1 206 78 218 156 l7 42
46 -32 c42 -29 52 -32 114 -30 50 1 81 8 117 27 52 26 103 82 103 113 0 11 -6
6 -17 -16 -32 -65 -142 -110 -224 -92 -44 10 -114 54 -123 78 -4 8 10 1 29
-16 20 -17 41 -31 48 -32 50 -3 125 5 147 16 39 21 106 87 114 113 16 48 -4
102 -55 155 -27 28 -48 51 -46 52 1 1 16 11 32 22 17 11 41 24 55 28 40 12 81
46 94 76 11 27 13 28 40 14 16 -8 35 -15 43 -15 8 0 11 -5 8 -10 -3 -6 -15
-10 -26 -10 -26 0 -24 -17 3 -26 16 -5 27 0 44 20 13 14 30 26 39 26 9 0 36
19 59 41 40 39 42 44 36 83 -3 22 -11 50 -18 62 -11 20 -9 21 38 16 27 -2 63
1 81 7 36 12 45 9 33 -11 -11 -17 -14 -32 -21 -95 -6 -61 22 -131 64 -159 33
-21 127 -20 182 2 43 17 94 74 106 119 6 23 9 26 13 11 7 -33 -28 -105 -71
-141 -68 -59 -136 -69 -210 -32 -25 13 -44 20 -41 15 3 -4 23 -17 44 -28 52
-26 131 -26 190 1 40 18 55 20 130 13 47 -4 157 -9 245 -10 174 -2 207 -9 266
-58 59 -50 165 -88 179 -65 6 9 -7 24 -47 50 -43 29 -51 38 -37 41 16 4 14 7
-9 16 -45 19 -13 42 58 42 50 0 202 36 193 46 -2 2 -33 -4 -68 -12 -35 -8 -70
-13 -76 -12 -7 2 32 30 86 63 53 33 96 61 95 63 -2 2 -55 -24 -119 -57 -64
-34 -126 -61 -138 -61 -22 1 -22 1 -3 12 11 6 56 43 100 81 155 137 237 174
367 165 50 -3 76 -11 109 -31 43 -27 43 -27 16 -3 -29 27 -112 56 -158 56 -67
0 -136 -26 -219 -82 -75 -51 -85 -55 -88 -38 -4 24 -15 25 -32 5 -7 -9 -18
-14 -24 -12 -5 2 -19 -14 -29 -35 -24 -49 -75 -84 -144 -99 -43 -10 -58 -10
-79 1 -30 17 -57 4 -62 -27 -4 -24 -42 -33 -139 -33 -64 0 -93 6 -93 20 0 5
24 27 53 50 50 40 54 42 105 37 29 -3 52 -1 52 4 0 5 9 9 20 9 11 0 20 5 20
10 0 6 -5 10 -11 10 -5 0 -7 5 -4 10 4 6 -7 10 -25 10 l-31 0 21 27 c12 15 34
33 48 39 l27 12 -30 -1 c-20 -2 -36 -11 -50 -31 -30 -44 -64 -65 -125 -77 -76
-16 -125 -1 -187 57 l-48 45 48 -36 c43 -31 55 -35 109 -35 66 0 137 32 158
70 6 11 17 20 24 20 27 0 34 57 16 122 -6 20 -29 54 -51 77 l-41 41 44 43 c50
49 67 96 57 167 -5 35 -6 38 -7 14 -4 -78 -48 -149 -120 -195 -47 -30 -142
-55 -169 -45 -23 9 -14 14 41 21 56 6 148 52 152 75 1 9 13 33 28 54 31 47 33
92 6 146 -22 43 -96 108 -131 115 -38 8 -92 -13 -140 -52 -24 -20 -38 -30 -31
-23 29 33 5 133 -40 162 -14 9 -52 20 -84 23 -98 11 -179 -34 -191 -107 -3
-21 -10 -41 -14 -44 -30 -18 10 -139 66 -202 22 -26 33 -42 25 -37 -50 29 -74
56 -97 104 -47 104 -40 199 20 268 40 45 7 30 -40 -19 -51 -52 -60 -120 -27
-195 8 -17 14 -35 14 -40 0 -5 9 -19 20 -31 12 -12 19 -22 18 -22 -2 0 -21 7
-43 15 -97 35 -207 7 -221 -56 -20 -87 -23 -114 -15 -151 11 -48 53 -95 92
-103 16 -4 33 -13 37 -22 13 -22 100 -8 167 27 30 16 52 23 49 15 -9 -22 -97
-63 -150 -70 -147 -20 -259 81 -241 216 6 44 -2 47 -47 24 -36 -19 -33 -20
-39 13 -11 56 -38 75 -111 80 -76 5 -94 -5 -128 -71 -19 -38 -18 -90 3 -102 5
-4 9 -13 9 -20 0 -11 -6 -12 -25 -5 -29 11 -72 8 -101 -8 -27 -14 -70 -112
-54 -122 8 -5 7 -10 -2 -17 -29 -23 -35 -22 -31 2 7 35 -13 88 -46 119 -40 38
-138 47 -203 18 -48 -21 -70 -50 -83 -109 -3 -18 -11 -33 -16 -33 -13 0 -1
-64 21 -116 9 -22 32 -57 50 -77 36 -42 31 -47 -14 -16 -20 14 -41 44 -60 87
-24 56 -27 76 -24 133 3 57 9 76 36 114 25 36 28 43 12 35 -25 -13 -25 -13 5
52 46 99 27 242 -44 329 -16 19 -57 50 -91 68 -108 58 -212 52 -311 -16 l-49
-33 0 34 c0 20 -9 60 -21 91 -18 50 -19 62 -9 106 13 53 7 134 -13 182 -10 25
-12 16 -12 -65 0 -112 -22 -167 -97 -240 -73 -71 -177 -118 -274 -125 -44 -3
-95 -1 -114 4 -32 9 -27 10 50 16 47 3 112 15 145 27 80 28 155 79 155 106 0
12 7 27 16 34 38 32 66 99 66 158 0 97 -54 186 -155 255 -49 34 -64 39 -114
40 -42 1 -70 -5 -101 -22 -91 -47 -178 -151 -220 -261 -11 -30 -28 -71 -37
-90 l-16 -35 5 33 c8 50 72 179 117 240 40 52 41 57 35 107 -3 29 -13 68 -21
88 l-15 35 60 1 c90 0 136 16 186 66 24 25 44 52 44 61 0 11 -8 5 -23 -17 -57
-84 -187 -110 -279 -56 -27 15 -48 32 -48 38 0 5 13 0 30 -12 24 -18 41 -22
91 -20 34 1 74 8 89 16 47 24 110 92 116 125 9 44 -20 112 -67 155 l-39 35 36
33 c45 39 74 98 73 152 l0 40 -18 -52 c-9 -28 -30 -67 -45 -87 -52 -69 -164
-113 -249 -99 -41 7 -40 8 30 14 78 7 150 39 168 74 5 11 20 37 33 56 28 45
29 112 3 155 -23 37 -97 99 -129 107 -34 8 -88 -13 -135 -52 -23 -19 -36 -28
-29 -21 37 42 -16 166 -76 177 -113 20 -165 10 -211 -42 -16 -19 -33 -50 -37
-70 -3 -19 -11 -35 -16 -35 -13 0 -2 -63 21 -116 10 -22 33 -57 51 -77 17 -20
27 -37 20 -37 -24 0 -77 66 -98 123 -29 77 -28 141 3 202 13 27 23 51 21 52
-2 2 -17 -12 -34 -31 -53 -60 -55 -145 -8 -236 14 -28 25 -50 24 -50 -2 0 -21
7 -43 15 -55 19 -123 18 -165 -3 -42 -21 -69 -81 -69 -157 -1 -66 25 -114 76
-140 22 -11 48 -26 57 -34 20 -17 109 -2 168 29 47 24 55 25 37 4 -50 -60
-204 -80 -286 -36 -60 31 -96 89 -101 161 -4 54 -6 59 -43 82 -21 13 -39 27
-39 30 0 4 13 15 29 26 143 92 232 263 214 414 l-6 52 -15 -29 c-9 -16 -19
-53 -23 -83 -22 -157 -175 -316 -368 -383 -54 -19 -87 -23 -183 -23 -72 0
-121 4 -128 11 -8 8 16 13 87 17 54 4 121 13 148 20 125 35 273 118 267 151
-2 10 16 45 39 79 23 33 48 76 55 96 19 54 17 153 -5 211 -29 75 -106 178
-160 211 -25 15 -53 35 -62 44 -24 24 -140 38 -195 24 -143 -36 -311 -221
-378 -415 -30 -87 -65 -164 -66 -143 0 30 60 192 96 258 20 36 56 91 80 123
41 52 44 61 44 115 0 110 -45 209 -122 266 -38 28 -128 45 -128 23z m530 -417
c-156 -126 -212 -183 -304 -309 -61 -82 -63 -85 -36 -30 68 137 286 361 349
360 12 -1 9 -6 -9 -21z m140 -89 c0 -6 -42 -31 -93 -56 -52 -25 -134 -76 -182
-112 -49 -37 -100 -76 -114 -86 -14 -11 -6 2 19 28 51 53 206 167 284 208 53
28 86 35 86 18z m-80 -149 c0 -18 -245 -149 -257 -137 -2 2 33 28 79 59 108
71 178 102 178 78z m210 -50 c0 -15 -138 -97 -216 -129 -103 -43 -254 -86
-265 -75 -5 5 20 16 59 26 37 10 141 55 232 101 169 84 190 93 190 77z m586
-128 l4 -48 -15 45 c-18 55 -20 79 -4 63 6 -6 13 -33 15 -60z m-100 -41 c9
-42 23 -89 31 -104 7 -16 10 -28 5 -28 -17 0 -72 150 -72 197 0 46 19 12 36
-65z m154 -74 l-10 -33 5 40 c3 22 6 67 7 100 l2 60 3 -67 c2 -37 -1 -82 -7
-100z m-2092 131 c108 -23 231 -68 277 -100 17 -12 21 -18 10 -14 -191 73
-319 104 -441 108 -71 2 -82 5 -67 20 13 14 126 6 221 -14z m698 -33 c-2 -11
-7 -46 -11 -76 -8 -69 3 -86 75 -110 40 -13 55 -24 55 -37 0 -16 -8 -18 -62
-15 -76 4 -89 -11 -73 -83 6 -26 8 -51 5 -56 -12 -18 -24 -9 -35 26 -21 65
-79 83 -144 44 -50 -29 -56 -7 -17 65 17 31 31 64 31 73 0 9 -18 33 -40 54
-22 21 -40 43 -40 48 0 20 20 21 52 1 18 -11 44 -20 57 -20 36 0 88 40 107 82
18 40 50 43 40 4z m1308 -23 c2 -16 7 -46 10 -68 l6 -40 -13 30 c-19 42 -30
105 -18 105 5 0 12 -12 15 -27z m305 -30 c-13 -9 -50 -43 -82 -75 -63 -63 -65
-60 -8 11 36 44 101 95 110 86 3 -3 -6 -13 -20 -22z m-262 -60 c-2 -16 -4 -3
-4 27 0 30 2 43 4 28 2 -16 2 -40 0 -55z m324 17 c-13 -11 -29 -20 -35 -20 -7
0 -38 -18 -69 -40 -32 -22 -57 -37 -57 -35 0 5 104 84 135 102 34 21 53 15 26
-7z m-2194 -6 c14 -6 -36 -9 -145 -9 -92 0 -198 -4 -236 -9 -57 -7 -68 -6 -64
5 3 8 20 17 39 21 48 9 380 3 406 -8z m1946 -29 c-3 -9 -8 -14 -10 -11 -3 3
-2 9 2 15 9 16 15 13 8 -4z m227 -24 c0 -12 -59 -46 -95 -55 -26 -6 -23 -3 20
28 49 35 75 45 75 27z m-2240 -27 c-36 -7 -103 -16 -149 -20 -69 -6 -83 -5
-79 7 7 21 44 27 173 27 l120 0 -65 -14z m2331 -8 c-15 -18 -139 -74 -181 -82
-25 -4 -8 8 60 44 96 50 143 65 121 38z m-639 -51 c24 -8 32 -12 18 -10 -14 3
-55 8 -92 12 -39 3 -65 10 -62 15 7 12 76 3 136 -17z m319 -94 c34 -12 32 -32
-2 -24 -24 7 -41 -13 -33 -39 2 -9 0 -19 -6 -23 -5 -3 -10 0 -10 8 0 26 -28
41 -54 29 -32 -14 -38 -5 -20 30 14 27 14 32 0 47 -24 26 -21 44 4 31 27 -14
57 -4 73 23 11 20 12 18 15 -25 3 -42 6 -47 33 -57z m-1891 75 c-19 -17 -152
-61 -245 -80 -98 -20 -245 -31 -245 -18 0 5 39 15 88 22 139 19 284 48 343 69
66 24 78 25 59 7z m1505 -26 l20 -9 -20 0 c-11 -1 -37 -4 -57 -7 -24 -4 -38
-3 -38 4 0 6 15 13 33 15 17 2 34 4 37 5 3 0 14 -3 25 -8z m93 -7 c-10 -2 -28
-2 -40 0 -13 2 -5 4 17 4 22 1 32 -1 23 -4z m-609 -34 c120 -22 203 -49 209
-68 6 -18 -33 -13 -129 19 -103 34 -173 47 -309 59 l-95 8 105 2 c69 1 145 -6
219 -20z m576 -9 c-45 -11 -85 -11 -85 0 0 6 25 9 58 9 47 -1 52 -3 27 -9z
m70 -39 c-16 -16 -126 -41 -180 -41 -73 0 -38 17 55 26 41 4 84 10 95 15 28
11 41 11 30 0z m502 -26 c18 -2 43 -9 55 -16 37 -20 2 -23 -56 -5 -28 8 -69
20 -91 25 -40 10 -40 10 10 5 28 -3 64 -7 82 -9z m-1588 -185 c79 -128 124
-183 201 -249 52 -45 78 -61 100 -61 16 0 64 -11 107 -26 119 -38 188 -24 300
65 28 22 65 60 83 85 20 27 38 42 46 39 19 -7 43 52 51 127 5 49 9 60 24 60
41 0 34 -152 -10 -244 -29 -58 -90 -118 -157 -150 -58 -29 -166 -56 -222 -56
-30 0 -33 -2 -25 -22 4 -13 7 -35 7 -50 -1 -32 7 -35 27 -11 33 39 113 54 166
31 91 -40 135 -93 149 -177 5 -34 11 -42 33 -47 50 -11 146 -45 171 -60 16
-10 18 -13 5 -8 -26 9 -188 54 -196 54 -3 0 -10 -16 -16 -35 l-11 -35 51 -1
c29 0 70 -4 92 -9 27 -6 10 -7 -56 -3 -94 5 -97 5 -110 -18 -6 -13 -21 -30
-31 -37 -18 -13 -17 -15 19 -41 21 -15 44 -34 50 -43 15 -17 77 -11 152 16 51
19 54 19 46 6 -3 -5 -44 -21 -90 -36 -71 -22 -83 -29 -76 -43 4 -9 9 -36 10
-61 2 -25 4 -47 6 -49 8 -7 106 32 160 64 66 40 66 40 59 20 -10 -25 -125 -95
-185 -112 -41 -11 -60 -22 -68 -39 -13 -28 -87 -84 -112 -84 -36 0 -27 -16 16
-28 24 -6 59 -25 78 -42 l34 -30 11 33 c9 26 10 14 5 -58 -7 -107 -27 -153
-84 -194 -44 -32 -132 -56 -156 -43 -11 7 -2 11 31 15 51 7 126 42 126 58 0 6
8 23 18 37 11 15 22 38 25 51 8 34 -19 94 -62 133 -39 37 -68 48 -139 53 -37
2 -49 9 -74 40 l-31 37 -78 -4 c-94 -4 -114 -18 -140 -103 -15 -51 -16 -61 -3
-97 7 -22 28 -59 46 -81 18 -23 26 -37 18 -31 -8 7 -33 24 -55 39 -22 16 -32
25 -22 22 17 -6 24 7 8 17 -16 10 -32 99 -26 138 4 21 18 54 32 75 l25 37 -24
-15 c-42 -28 -60 -77 -54 -146 l5 -63 -27 0 c-38 0 -99 38 -136 83 -26 32 -31
48 -34 105 -3 57 0 74 23 116 l26 48 -38 -8 c-60 -13 -115 -8 -160 14 -53 27
-80 62 -99 128 -14 49 -14 59 1 116 9 35 23 73 31 86 35 54 146 76 229 47 21
-8 40 -13 42 -12 1 2 -9 25 -22 52 -27 52 -33 123 -14 172 13 36 64 88 100
104 16 6 29 14 29 18 0 4 -16 23 -36 42 -85 82 -304 406 -304 449 0 8 13 -7
28 -35 16 -27 52 -88 81 -135z m421 103 c36 -8 78 -17 93 -19 35 -5 175 -63
183 -76 3 -5 4 -12 1 -15 -7 -6 -113 30 -184 63 -28 13 -104 33 -169 44 -64
11 -119 22 -123 26 -9 10 126 -5 199 -23z m-740 14 c0 -2 -10 -12 -22 -23
l-23 -19 19 23 c18 21 26 27 26 19z m671 -135 c68 -34 153 -72 189 -85 102
-39 89 -65 -16 -31 -65 22 -326 169 -372 211 l-37 33 56 -33 c31 -18 112 -61
180 -95z m1289 112 c22 -9 40 -20 40 -25 0 -12 2 -12 -53 7 -26 9 -47 20 -47
25 0 13 14 11 60 -7z m-37 -73 c43 -14 51 -35 10 -25 -27 7 -163 82 -163 90 0
2 26 -9 58 -24 31 -16 74 -35 95 -41z m-462 20 c-12 -17 -27 -45 -33 -63 -6
-18 -15 -39 -21 -45 -16 -21 -29 -15 -21 10 8 27 86 138 92 132 2 -2 -5 -17
-17 -34z m-116 -26 c-14 -26 -25 -65 -25 -84 1 -55 33 -116 77 -144 35 -23 43
-24 105 -16 37 4 76 12 85 18 39 20 87 86 94 126 l6 40 2 -51 c1 -61 -23 -104
-86 -148 -31 -21 -57 -31 -98 -34 -30 -2 -58 -8 -60 -12 -7 -11 38 -177 63
-234 32 -70 9 -55 -26 19 -40 82 -76 200 -69 225 3 11 2 20 -2 20 -3 0 -19 11
-34 26 -33 30 -44 25 -53 -24 -3 -20 -13 -43 -22 -49 -13 -11 -14 -21 -4 -75
16 -86 59 -169 133 -257 64 -76 58 -77 -40 -3 -56 42 -133 81 -191 98 -27 7
-36 13 -22 13 12 1 39 -6 59 -14 19 -8 42 -15 50 -15 8 0 21 -7 29 -15 33 -32
30 -12 -8 63 -33 65 -40 90 -45 157 -4 66 -1 90 17 140 33 91 35 107 17 120
-10 7 -16 31 -18 70 l-3 60 45 16 c24 9 45 16 46 15 1 -1 -9 -24 -22 -51z
m504 -53 c-12 -5 -119 85 -119 99 0 6 29 -14 65 -43 35 -29 60 -55 54 -56z
m-1956 21 c-30 -43 -77 -123 -103 -179 -48 -102 -63 -123 -75 -104 -21 33 189
360 231 360 2 0 -22 -35 -53 -77z m745 -137 c45 -37 82 -70 82 -72 0 -2 -9 -4
-20 -4 -25 0 -182 132 -241 202 -77 92 -76 94 11 17 47 -41 122 -105 168 -143z
m896 182 c-4 -7 -16 -25 -26 -40 -10 -15 -26 -50 -34 -77 -8 -28 -19 -53 -24
-56 -13 -8 -13 17 0 50 11 29 79 135 87 135 2 0 1 -6 -3 -12z m36 -55 c-14
-73 -39 -143 -51 -143 -12 0 -12 2 10 52 10 25 24 70 31 101 17 74 25 66 10
-10z m-1443 -21 c-14 -165 -94 -442 -127 -442 -16 0 -12 23 20 101 30 76 100
345 100 386 0 13 3 23 6 23 4 0 4 -31 1 -68z m1503 4 c0 -36 -4 -68 -10 -71
-6 -4 -10 20 -10 64 0 41 4 71 10 71 6 0 10 -28 10 -64z m-1950 49 c0 -16 -35
-55 -46 -51 -13 5 -29 -38 -19 -54 4 -6 2 -10 -3 -10 -5 0 -9 -6 -9 -12 -1 -7
-8 -40 -17 -73 -19 -70 -20 -106 -5 -177 25 -117 95 -210 196 -260 46 -22 68
-29 71 -20 2 8 31 12 90 12 163 0 243 34 317 132 22 29 45 58 51 63 23 20 37
92 37 185 -1 74 1 90 10 75 6 -11 12 -65 12 -121 0 -96 -2 -103 -38 -176 -46
-94 -118 -162 -226 -216 -69 -34 -82 -37 -160 -37 -72 0 -95 4 -143 27 -107
50 -215 175 -243 284 -11 43 -13 91 -9 198 4 113 3 137 -7 122 -7 -11 -13 -58
-15 -104 l-2 -84 -42 -24 c-23 -13 -55 -33 -71 -45 -24 -17 -29 -18 -29 -5 0
9 -5 25 -12 36 -10 15 -9 33 4 87 9 37 14 70 11 73 -8 9 -33 -32 -39 -67 -4
-19 -10 -31 -15 -26 -4 4 -2 37 6 73 13 62 13 91 -1 56 -10 -25 -21 -19 -28
17 -9 44 -26 18 -26 -40 0 -26 -5 -43 -11 -43 -9 0 -10 22 -5 77 4 42 9 80 12
84 2 4 21 3 42 -3 85 -25 291 0 330 39 14 13 32 18 32 8z m-446 -11 c17 -6 20
-33 9 -73 -6 -22 -8 -20 -19 20 -19 63 -19 64 10 53z m786 -86 c-79 -126 -99
-161 -114 -209 -9 -28 -29 -76 -43 -107 -22 -48 -27 -53 -31 -33 -4 25 32 136
53 161 7 8 23 35 35 60 29 57 122 191 128 185 3 -3 -10 -28 -28 -57z m202
-140 c2 -98 0 -140 -9 -149 -7 -7 -14 -11 -16 -8 -2 2 -2 85 1 184 6 208 20
193 24 -27z m1495 -113 c-5 -93 -33 -242 -44 -231 -3 3 1 29 8 58 8 31 14 106
14 181 0 109 2 125 13 110 11 -14 13 -43 9 -118z m-91 47 c1 -20 4 -82 7 -137
5 -85 5 -90 -3 -35 -5 36 -14 94 -20 129 -9 51 -8 66 2 72 7 5 13 9 13 9 0 0
0 -17 1 -38z m-88 1 c-16 -2 -40 -2 -55 0 -16 2 -3 4 27 4 30 0 43 -2 28 -4z
m20 -45 c14 -44 34 -169 29 -175 -6 -5 -34 82 -42 132 -4 22 -9 48 -12 58 -8
32 15 17 25 -15z m497 -54 c-16 -14 -52 -44 -79 -66 -26 -23 -75 -75 -108
-117 -75 -94 -77 -96 -47 -42 36 65 142 185 196 220 56 37 80 40 38 5z m105
-57 c0 -7 -37 -32 -82 -55 -46 -23 -114 -67 -153 -98 -42 -34 -58 -44 -40 -24
55 59 236 188 268 190 4 0 7 -6 7 -13z m-50 -112 c0 -9 -76 -53 -146 -85 -82
-37 -76 -30 30 39 68 44 116 63 116 46z m-2940 -35 c0 -5 -2 -10 -4 -10 -3 0
-8 5 -11 10 -3 6 -1 10 4 10 6 0 11 -4 11 -10z m3087 -8 c-42 -46 -312 -163
-339 -146 -6 4 13 15 43 24 30 9 108 44 174 78 129 65 147 72 122 44z m-552
-111 c-18 -83 -5 -116 51 -127 25 -5 34 -11 34 -26 0 -18 -5 -19 -34 -14 -57
11 -69 0 -62 -55 4 -32 3 -49 -4 -49 -6 0 -13 8 -17 18 -18 51 -62 66 -107 36
-34 -22 -41 -3 -16 45 26 52 25 73 -5 101 -40 37 -32 66 9 35 42 -32 104 -7
122 47 3 10 12 18 20 18 12 0 14 -7 9 -29z m2599 -121 c3 -11 9 -29 12 -40 3
-11 1 -20 -4 -20 -10 0 -32 44 -32 65 0 22 18 18 24 -5z m-3034 -2 c-51 -15
-170 -22 -170 -10 0 14 31 19 125 20 70 0 76 -1 45 -10z m2943 -98 c13 -47 28
-94 31 -105 7 -19 7 -20 -8 -1 -26 32 -82 225 -58 201 5 -5 21 -48 35 -95z
m157 23 c0 -43 -4 -83 -8 -90 -4 -6 -7 29 -7 78 0 49 3 89 8 89 4 0 7 -35 7
-77z m-1984 -37 c46 -54 78 -157 72 -235 -12 -163 -140 -259 -332 -249 -66 3
-91 10 -135 33 -55 30 -124 100 -180 183 -23 34 -24 37 -5 12 49 -62 140 -144
182 -166 34 -17 59 -21 129 -20 87 1 89 2 149 44 33 23 71 56 83 72 12 17 28
30 35 30 20 0 39 55 39 115 0 77 -39 150 -116 221 l-62 57 54 -29 c29 -15 69
-46 87 -68z m1887 47 c3 -5 8 -30 11 -58 7 -45 6 -48 -7 -30 -18 26 -31 95
-18 95 5 0 12 -3 14 -7z m-2205 -38 c108 -16 174 -36 180 -53 6 -19 -28 -14
-107 13 -41 15 -102 29 -137 32 -35 3 -64 10 -64 14 0 12 14 11 128 -6z m2502
-22 c-19 -15 -57 -50 -84 -78 -27 -27 -43 -41 -36 -30 28 41 125 135 140 135
9 0 1 -11 -20 -27z m90 -22 c0 -5 -19 -16 -42 -26 -24 -9 -67 -34 -95 -56 -74
-55 -66 -41 10 18 88 70 127 89 127 64z m-269 -48 c-12 -20 -14 -14 -5 12 4 9
9 14 11 11 3 -2 0 -13 -6 -23z m-2626 -103 c8 -16 13 -30 11 -30 -6 0 -86 136
-86 146 0 9 52 -71 75 -116z m285 80 c122 -22 151 -30 196 -53 26 -13 42 -27
37 -30 -11 -7 -97 20 -148 47 -17 8 -64 20 -105 27 -41 6 -79 16 -85 21 -9 8
0 7 105 -12z m2570 1 c0 -12 -59 -46 -95 -55 -26 -6 -23 -2 20 28 50 35 75 44
75 27z m-2442 -162 c45 -13 56 -29 20 -28 -31 0 -89 25 -189 82 -146 83 -151
99 -8 27 75 -37 154 -74 177 -81z m2537 132 c-9 -15 -78 -50 -144 -72 -91 -32
-81 -21 34 35 61 29 112 52 114 50 1 -1 0 -8 -4 -13z m-4855 -16 c7 -9 10 -18
7 -22 -8 -7 -37 15 -37 28 0 14 16 11 30 -6z m-43 -30 l28 -24 -27 -51 c-16
-27 -28 -58 -28 -68 -1 -16 -1 -16 -14 1 -14 18 -30 142 -21 157 10 17 33 11
62 -15z m1657 13 c-5 -7 -22 -33 -40 -58 -17 -25 -45 -76 -60 -114 -28 -68
-54 -96 -54 -59 0 35 130 243 151 243 6 0 7 -6 3 -12z m494 -102 c50 -43 92
-80 92 -82 0 -30 -149 89 -205 162 -35 46 -33 45 113 -80z m-2314 88 c11 -30
6 -35 -19 -17 -13 10 -25 21 -25 26 0 14 38 7 44 -9z m84 -7 c2 -10 1 -26 -3
-35 -6 -15 -8 -13 -20 8 -8 14 -14 31 -15 38 0 20 34 10 38 -11z m4352 -3 c68
-20 60 -27 -10 -9 -30 8 -77 15 -103 15 -33 0 -46 4 -41 11 8 13 78 6 154 -17z
m-2469 -66 c-28 -171 -65 -288 -91 -288 -13 0 -14 -6 19 81 16 41 39 121 52
177 25 112 37 129 20 30z m2741 32 c-4 -38 -2 -42 27 -53 41 -15 42 -39 1 -30
-28 5 -30 4 -30 -26 0 -37 -6 -39 -30 -9 -15 20 -21 21 -44 10 -30 -13 -31
-11 -14 34 10 28 9 36 -6 53 -10 11 -13 21 -7 25 5 4 12 2 16 -4 11 -18 44
-10 61 15 23 35 30 31 26 -15z m-2824 -42 c-48 -74 -58 -93 -88 -177 -14 -41
-31 -76 -38 -79 -36 -12 10 101 90 224 34 51 64 92 66 89 3 -3 -11 -28 -30
-57z m161 -118 c1 -61 -10 -103 -22 -84 -2 5 -2 65 1 134 6 108 7 118 13 70 4
-30 7 -84 8 -120z m2419 145 c-8 -7 -209 -12 -202 -5 5 5 23 10 39 12 33 3
169 -2 163 -7z m-53 -46 c-46 -10 -85 -10 -85 0 0 10 88 19 105 11 6 -2 -3 -8
-20 -11z m-5073 -1 c-9 -9 -15 -9 -24 0 -9 9 -7 12 12 12 19 0 21 -3 12 -12z
m1813 -35 c4 -14 2 -23 -5 -23 -12 0 -30 41 -23 53 7 11 19 -2 28 -30z m-70
-107 c8 -22 13 -42 10 -44 -9 -10 -45 87 -50 135 l-5 48 16 -50 c8 -27 21 -68
29 -89z m112 32 c-2 -18 -4 -4 -4 32 0 36 2 50 4 33 2 -18 2 -48 0 -65z m954
-22 c1 -85 -28 -151 -97 -216 -149 -141 -329 -128 -446 34 -15 21 -28 35 -28
29 0 -20 61 -93 101 -123 33 -24 38 -31 25 -36 -22 -8 -133 47 -169 84 l-27
28 30 40 c16 21 30 50 30 64 0 21 5 17 29 -25 29 -50 59 -78 116 -107 25 -13
47 -14 126 -7 124 10 167 28 228 96 56 61 78 129 67 206 -5 34 -4 38 4 18 6
-13 11 -51 11 -85z m2335 95 c-7 -10 -110 -37 -173 -46 -33 -4 -43 -2 -43 9 0
11 20 16 78 21 42 4 88 10 102 15 34 11 42 12 36 1z m417 -18 c-7 -2 -19 -2
-25 0 -7 3 -2 5 12 5 14 0 19 -2 13 -5z m-3773 -57 c0 -18 -4 -26 -9 -20 -12
13 -22 60 -14 68 10 10 23 -16 23 -48z m3899 43 c32 -11 42 -29 16 -29 -8 0
-32 6 -52 14 -21 8 -47 17 -58 19 -11 3 -2 5 21 6 23 0 55 -4 73 -10z m-1804
-42 c-16 -39 -21 -42 -45 -27 -12 9 -9 15 20 39 19 16 36 28 38 27 1 -2 -5
-19 -13 -39z m-1849 0 c-11 -7 -40 -30 -65 -52 l-46 -39 50 52 c27 29 56 52
65 51 11 0 11 -3 -4 -12z m2094 -66 l0 -36 -15 29 c-8 15 -15 40 -15 55 1 25
1 25 15 7 8 -11 15 -36 15 -55z m-80 -120 c11 -33 14 -49 6 -40 -23 25 -57
122 -62 174 l-4 50 20 -65 c12 -36 29 -89 40 -119z m139 99 c-1 -30 -4 -68 -8
-85 -4 -17 -7 11 -7 67 1 53 4 91 8 85 4 -7 7 -37 7 -67z m1378 74 c-3 -3 -12
-4 -19 -1 -8 3 -5 6 6 6 11 1 17 -2 13 -5z m-3467 -11 c0 -5 -25 -20 -55 -34
-30 -14 -55 -24 -55 -23 0 1 19 16 42 33 40 30 68 39 68 24z m2415 -21 c72
-35 105 -86 105 -162 0 -63 -17 -106 -61 -149 -53 -53 -122 -81 -199 -80 l-65
2 64 8 c72 9 148 44 165 74 5 11 19 33 29 48 51 76 40 138 -38 215 -31 30 -63
52 -75 52 -12 0 -18 5 -15 10 7 12 46 4 90 -18z m1098 21 c-7 -2 -19 -2 -25 0
-7 3 -2 5 12 5 14 0 19 -2 13 -5z m87 -19 c22 -9 40 -20 40 -26 0 -11 -32 -2
-80 23 -44 23 -15 25 40 3z m-1 -84 c7 0 10 -4 6 -9 -3 -6 -17 -6 -34 -1 -29
8 -171 87 -171 95 0 2 42 -16 94 -41 51 -24 99 -44 105 -44z m-497 27 c-17
-24 -34 -56 -37 -70 -4 -14 -14 -32 -23 -39 -13 -11 -14 -10 -8 14 7 30 86
151 93 144 3 -3 -9 -24 -25 -49z m368 -47 c19 -16 29 -30 22 -30 -8 0 -42 28
-75 61 -60 60 -37 46 53 -31z m-1475 32 c3 -20 8 -48 10 -62 3 -18 -1 -13 -15
15 -20 42 -27 101 -10 90 5 -3 12 -22 15 -43z m-2044 20 c-27 -19 -81 -43 -81
-37 0 9 76 55 90 54 10 0 7 -6 -9 -17z m-71 5 c0 -2 -10 -12 -22 -23 l-23 -19
19 23 c18 21 26 27 26 19z m-549 -56 c-34 -62 4 -167 67 -185 17 -5 32 -13 32
-17 0 -18 88 -8 133 15 31 15 43 18 35 8 -22 -26 -91 -52 -138 -52 -55 0 -125
33 -154 73 -30 40 -28 121 4 172 18 29 26 35 28 23 2 -9 -2 -26 -7 -37z m704
33 c-24 -19 -96 -53 -138 -65 -40 -11 -35 -8 53 39 78 42 122 55 85 26z m3122
-31 c-14 -21 -33 -62 -43 -90 -17 -50 -34 -69 -34 -39 0 24 89 180 98 171 2
-2 -8 -20 -21 -42z m113 -34 c0 -39 -4 -69 -10 -69 -6 0 -10 32 -10 76 0 47 4
73 10 69 6 -3 10 -37 10 -76z m-1100 67 c0 -2 -8 -10 -17 -17 -16 -13 -17 -12
-4 4 13 16 21 21 21 13z m93 -52 c-34 -30 -74 -69 -88 -87 -15 -18 -22 -23
-17 -12 24 49 135 155 162 155 3 0 -23 -25 -57 -56z m-226 24 c-3 -8 -6 -5 -6
6 -1 11 2 17 5 13 3 -3 4 -12 1 -19z m1170 -59 c-8 -35 -19 -75 -26 -87 -24
-46 -22 -13 6 71 15 48 29 85 30 83 2 -2 -3 -32 -10 -67z m-3692 45 c27 -9 30
-12 10 -8 -16 4 -52 10 -80 14 -48 7 -49 8 -10 8 22 0 58 -6 80 -14z m238 -27
c-4 -29 -1 -35 22 -45 28 -13 27 -27 -3 -27 -10 0 -18 -10 -20 -23 -3 -23 -5
-23 -22 -7 -11 10 -28 15 -40 12 -22 -6 -25 4 -10 33 7 13 6 21 -5 30 -24 20
-17 30 14 24 23 -5 32 -2 43 15 19 31 28 26 21 -12z m2284 1 c-3 -8 -6 -5 -6
6 -1 11 2 17 5 13 3 -3 4 -12 1 -19z m339 13 c-3 -5 -27 -19 -53 -31 -27 -12
-66 -36 -88 -53 -24 -19 -33 -23 -22 -10 40 46 185 130 163 94z m-2857 -25
c-2 -2 -35 -7 -73 -11 -48 -5 -66 -4 -62 4 4 6 36 11 73 11 37 0 64 -2 62 -4z
m1516 -21 c22 -13 35 -25 28 -25 -6 0 -14 4 -17 9 -3 5 -37 8 -75 7 -63 -1
-73 -4 -101 -31 -17 -16 -33 -41 -37 -55 -3 -14 -10 -31 -16 -37 -15 -20 1
-78 38 -134 42 -61 43 -67 8 -39 -62 48 -88 185 -50 258 39 73 144 95 222 47z
m-1520 -15 c-3 -5 -22 -10 -41 -10 -21 0 -33 4 -29 10 3 6 22 10 41 10 21 0
33 -4 29 -10z m2577 -32 c-8 -8 -9 -4 -5 13 4 13 8 18 11 10 2 -7 -1 -18 -6
-23z m248 23 c0 -11 -108 -66 -115 -59 -6 6 87 67 103 68 6 0 12 -4 12 -9z
m1077 -16 c76 -49 74 -46 60 -88 l-12 -37 -82 2 -81 2 29 33 c16 19 32 51 35
73 4 22 8 40 10 40 2 0 20 -11 41 -25z m-1829 -2 c-39 -47 -49 -162 -18 -222
17 -35 68 -71 99 -71 6 0 11 -4 11 -10 0 -5 24 -10 54 -10 39 0 69 8 110 28
63 33 75 25 19 -12 -82 -54 -197 -56 -276 -6 -68 43 -94 117 -74 213 6 29 5
37 -6 37 -17 0 -67 38 -67 50 0 5 20 0 45 -11 l46 -20 30 25 c35 30 49 34 27
9z m810 -34 c-47 -32 -165 -75 -176 -65 -3 4 3 9 14 12 12 3 59 25 105 49 92
47 126 50 57 4z m-2832 22 c-8 -13 -89 -31 -137 -31 -68 0 -33 17 56 28 44 5
81 10 83 11 2 0 1 -3 -2 -8z m449 -26 c26 -6 35 -25 12 -25 -7 0 -31 9 -53 20
-40 21 -37 21 41 5z m964 -45 l-1 -35 -13 40 c-13 41 -9 68 6 44 5 -8 8 -30 8
-49z m-217 -42 c-6 -6 -15 -7 -21 -4 -16 10 -13 43 4 50 8 3 16 13 17 23 1 10
3 1 5 -21 3 -21 0 -43 -5 -48z m128 40 c5 -24 16 -64 24 -90 8 -27 12 -48 10
-48 -9 0 -52 105 -58 143 -9 52 11 48 24 -5z m137 -50 c-2 -18 -4 -4 -4 32 0
36 2 50 4 33 2 -18 2 -48 0 -65z m781 67 c70 -21 63 -29 -8 -10 -30 8 -76 15
-102 15 -29 0 -48 4 -48 11 0 15 83 6 158 -16z m-486 -10 c69 -47 85 -142 35
-216 -39 -58 -134 -106 -190 -96 -19 3 -18 4 8 11 62 15 118 42 129 61 6 11
19 32 29 47 36 54 9 154 -48 180 -14 6 -25 15 -25 19 0 4 -8 10 -17 12 -10 3
-5 5 12 6 17 1 46 -10 67 -24z m754 -20 c-6 -33 -4 -37 31 -58 l38 -22 -35 -5
c-31 -5 -35 -8 -33 -33 2 -32 -7 -35 -25 -7 -13 21 -47 27 -57 10 -4 -6 -11
-8 -16 -5 -5 4 -2 19 7 36 14 28 14 32 0 48 -26 28 -21 43 10 29 24 -11 29
-10 48 14 29 37 39 34 32 -7z m-2119 9 c-3 -3 -12 -4 -19 -1 -8 3 -5 6 6 6 11
1 17 -2 13 -5z m998 -54 l5 -45 -14 30 c-17 34 -21 84 -7 70 6 -6 12 -30 16
-55z m-905 24 c14 -15 13 -15 -10 -9 -14 4 -36 14 -50 22 -25 14 -25 14 10 8
19 -3 42 -13 50 -21z m1060 12 c0 -2 -8 -10 -17 -17 -16 -13 -17 -12 -4 4 13
16 21 21 21 13z m605 -6 c3 -5 0 -10 -8 -10 -8 0 -29 -3 -46 -6 -19 -4 -31 -2
-31 4 0 18 75 28 85 12z m-2093 -27 c-11 -16 -27 -45 -35 -65 -9 -21 -21 -38
-26 -38 -17 0 10 54 58 113 22 27 24 20 3 -10z m387 -41 c-14 -3 -129 53 -129
63 0 1 33 -11 74 -29 41 -17 65 -32 55 -34z m1824 61 c-7 -2 -19 -2 -25 0 -7
3 -2 5 12 5 14 0 19 -2 13 -5z m-1933 -55 c24 -21 38 -38 31 -38 -7 0 -33 21
-59 46 -54 52 -36 47 28 -8z m1295 29 c-16 -12 -47 -40 -69 -62 -33 -34 -35
-36 -17 -9 25 39 87 94 104 94 7 0 -1 -11 -18 -23z m-810 -29 c5 -20 13 -40
18 -44 4 -4 7 -16 7 -27 0 -20 -5 -20 -97 -1 -31 6 -103 72 -103 94 0 15 74
12 96 -5 30 -22 53 -19 47 6 -10 39 21 15 32 -23z m-45 22 c0 -5 -4 -10 -9
-10 -6 0 -13 5 -16 10 -3 6 1 10 9 10 9 0 16 -4 16 -10z m647 -27 c-3 -10 -5
-4 -5 12 0 17 2 24 5 18 2 -7 2 -21 0 -30z m828 27 c-49 -13 -115 -19 -115
-10 0 11 33 17 95 18 43 0 46 -1 20 -8z m-2150 -27 c-10 -15 -28 -52 -41 -82
-16 -39 -23 -49 -24 -32 0 22 65 141 77 141 3 0 -3 -12 -12 -27z m1559 -11
c-27 -13 -58 -32 -69 -41 -18 -15 -19 -15 -6 1 21 27 103 78 114 71 5 -3 -12
-17 -39 -31z m-1477 -54 c-2 -18 -4 -6 -4 27 0 33 2 48 4 33 2 -15 2 -42 0
-60z m1270 50 c-3 -8 -6 -5 -6 6 -1 11 2 17 5 13 3 -3 4 -12 1 -19z m22 -37
c-6 -18 -13 -30 -15 -28 -2 2 1 18 7 36 6 18 13 30 15 28 2 -2 -1 -18 -7 -36z
m810 29 c-29 -17 -132 -40 -177 -40 -70 0 -39 18 46 25 42 4 86 11 97 16 11 4
27 8 35 8 12 0 12 -1 -1 -9z m-2164 -90 c-24 -47 -29 -29 -8 30 15 43 19 47
21 27 2 -14 -4 -40 -13 -57z m1541 62 c-7 -12 -76 -45 -81 -40 -3 2 14 16 37
31 40 26 57 29 44 9z m1047 11 c-7 -2 -21 -2 -30 0 -10 3 -4 5 12 5 17 0 24
-2 18 -5z m146 -27 c14 -15 13 -16 -4 -16 -11 1 -45 10 -75 21 l-55 20 59 -5
c34 -3 66 -11 75 -20z m-1129 -17 c-26 -19 -122 -59 -143 -59 -7 0 26 20 73
44 86 44 116 51 70 15z m-540 -19 c20 -6 14 -8 -28 -9 -33 -1 -51 3 -47 9 7
12 39 12 75 0z m274 -42 c1 -24 7 -36 26 -45 24 -12 23 -15 -10 -17 -8 -1 -17
-14 -20 -31 l-6 -30 -13 23 c-10 19 -18 22 -42 17 -29 -7 -29 -6 -17 20 9 21
9 31 0 46 -17 27 -15 31 10 18 19 -10 25 -8 42 13 25 30 30 28 30 -14z m-217
26 c-3 -3 -12 -4 -19 -1 -8 3 -5 6 6 6 11 1 17 -2 13 -5z m1506 -1 c-7 -2 -21
-2 -30 0 -10 3 -4 5 12 5 17 0 24 -2 18 -5z m97 -19 c22 -9 40 -20 40 -26 0
-11 -28 -3 -85 23 -30 14 -35 18 -18 19 13 0 41 -7 63 -16z m-1703 -20 c-31
-17 -74 -11 -47 6 8 6 29 10 45 9 l30 0 -28 -15z m1618 -33 c92 -41 93 -42 55
-37 -19 2 -61 20 -94 40 -69 41 -82 52 -41 33 17 -7 53 -24 80 -36z m-437 -41
c-22 -44 -44 -80 -49 -80 -11 0 -11 3 0 34 9 22 79 126 86 126 1 0 -15 -36
-37 -80z m412 -38 c-11 -4 -117 85 -124 105 -3 7 26 -13 64 -44 38 -32 65 -59
60 -61z m-1525 82 c0 -5 -15 -10 -32 -12 -34 -3 -46 14 -15 20 25 6 47 2 47
-8z m1201 -29 c-37 -57 -44 -72 -56 -110 -7 -22 -16 -44 -21 -49 -12 -13 -12
16 1 49 12 32 78 135 86 135 3 0 -1 -11 -10 -25z m103 -82 c1 -17 -3 -35 -9
-38 -6 -4 -10 22 -9 72 1 68 2 73 10 38 4 -22 8 -54 8 -72z m-1243 78 c-9 -14
-91 -31 -143 -30 l-48 2 60 9 c33 5 74 13 90 17 41 12 47 12 41 2z m1178 -64
c-15 -71 -29 -107 -43 -107 -5 0 5 40 22 90 17 49 32 89 33 87 1 -1 -4 -33
-12 -70z m-816 46 c-10 -2 -26 -2 -35 0 -10 3 -2 5 17 5 19 0 27 -2 18 -5z
m89 -15 c19 -7 23 -12 12 -15 -8 -2 -31 3 -50 11 -27 12 -29 15 -12 16 12 0
34 -5 50 -12z m-94 -45 c-7 -2 -21 -2 -30 0 -10 3 -4 5 12 5 17 0 24 -2 18 -5z
m44 -9 c-3 -3 -12 -4 -19 -1 -8 3 -5 6 6 6 11 1 17 -2 13 -5z m87 -24 c15 -15
-14 -12 -49 6 l-30 14 35 -5 c19 -3 39 -10 44 -15z m-46 -50 c6 0 12 -5 12
-11 0 -16 -42 -4 -83 24 -19 12 -43 28 -53 34 -11 7 10 -1 46 -17 36 -17 71
-30 78 -30z m-412 -15 c-29 -61 -46 -80 -46 -53 0 10 69 118 76 118 1 0 -12
-29 -30 -65z m334 -28 c0 -11 -60 39 -85 73 -12 15 2 7 33 -19 28 -24 52 -48
52 -54z m-223 31 c-3 -8 -6 -5 -6 6 -1 11 2 17 5 13 3 -3 4 -12 1 -19z m40
-60 c-2 -18 -4 -6 -4 27 0 33 2 48 4 33 2 -15 2 -42 0 -60z m-49 10 c-2 -37
-24 -88 -38 -88 -5 0 0 21 10 46 11 25 20 52 20 60 0 8 2 14 5 14 3 0 4 -15 3
-32z m-79 -42 c-7 -19 -16 -33 -21 -30 -10 6 -1 42 15 62 17 21 20 6 6 -32z"/>
<path d="M1630 4014 l0 -67 19 25 c15 19 18 34 14 66 -4 26 -11 42 -19 42 -11
0 -14 -17 -14 -66z"/>
<path d="M1810 4035 c0 -8 7 -15 16 -15 14 0 14 3 4 15 -7 8 -14 15 -16 15 -2
0 -4 -7 -4 -15z"/>
<path d="M3726 3825 c-43 -29 -90 -65 -105 -80 -20 -22 -16 -21 19 7 25 19 72
53 105 74 33 21 62 40 64 41 2 2 2 5 0 7 -2 3 -40 -19 -83 -49z"/>
<path d="M1628 3584 c-79 -135 -71 -150 9 -19 29 50 57 91 62 93 4 1 24 -21
43 -50 44 -66 154 -185 162 -177 4 4 -22 40 -57 80 -35 41 -83 100 -106 132
-23 31 -43 57 -44 57 -1 0 -32 -52 -69 -116z"/>
<path d="M1842 3688 c-26 -13 -25 -19 15 -118 38 -95 86 -163 128 -183 l36
-17 -28 37 c-15 21 -44 58 -65 83 -50 61 -61 94 -53 158 7 54 4 58 -33 40z"/>
<path d="M3379 3669 c11 -17 27 -61 37 -96 13 -47 20 -60 26 -49 9 17 -49 157
-71 170 -6 4 -3 -7 8 -25z"/>
<path d="M710 2764 c0 -7 9 -22 21 -35 16 -19 18 -20 10 -4 -17 34 -31 51 -31
39z"/>
<path d="M4363 2685 c0 -27 2 -38 4 -22 2 15 2 37 0 50 -2 12 -4 0 -4 -28z"/>
<path d="M790 2626 c0 -3 14 -12 32 -20 31 -16 31 -16 13 4 -16 18 -45 28 -45
16z"/>
<path d="M1040 2505 c0 -5 5 -17 10 -25 5 -8 10 -10 10 -5 0 6 -5 17 -10 25
-5 8 -10 11 -10 5z"/>
<path d="M1061 2455 c0 -5 11 -30 24 -55 13 -25 24 -40 24 -35 0 6 -11 30 -24
55 -13 25 -24 41 -24 35z"/>
<path d="M7143 2349 c-24 -12 -43 -25 -43 -30 0 -17 -40 -9 -60 11 -11 11 -26
20 -33 20 -22 0 -57 -39 -57 -65 0 -13 -4 -27 -10 -30 -5 -3 -10 -45 -10 -92
0 -79 2 -90 32 -137 17 -28 43 -64 58 -81 29 -33 45 -66 54 -107 7 -32 31 -37
39 -8 6 22 51 28 62 9 5 -7 12 -6 23 4 10 8 39 21 65 30 92 31 161 94 232 212
32 52 32 56 15 65 -10 6 -27 10 -38 10 -13 0 -21 9 -25 28 -3 15 -16 43 -29
62 -25 37 -36 39 -109 25 -36 -7 -37 -6 -43 29 -7 35 -37 66 -66 66 -8 0 -34
-9 -57 -21z m141 -120 c20 -23 26 -41 26 -77 l-1 -47 -22 55 c-23 58 -41 69
-94 55 -36 -9 -74 -98 -82 -194 l-7 -76 -7 47 c-11 66 25 202 64 241 39 39 88
37 123 -4z m-90 -99 c-15 -33 -32 -60 -37 -60 -10 0 -1 32 21 75 40 80 55 67
16 -15z m31 -26 c-24 -37 -31 -21 -9 23 13 28 19 33 22 20 2 -10 -4 -29 -13
-43z m35 -8 c-6 -19 -18 -40 -27 -48 -9 -7 -14 -8 -12 -3 26 66 45 103 47 95
2 -5 -1 -25 -8 -44z m-224 1 c10 4 14 -4 14 -31 0 -20 4 -36 8 -36 11 0 32
-46 32 -70 0 -11 5 -20 10 -20 16 0 11 -30 -6 -37 -34 -13 -126 115 -116 161
4 18 5 18 23 -5 l18 -24 -4 40 c-3 22 -3 35 1 28 3 -7 12 -9 20 -6z m220 -95
c-14 -27 -31 -52 -39 -55 -9 -3 0 18 19 51 19 31 34 61 35 66 0 7 3 6 5 -1 3
-6 -6 -34 -20 -61z m129 -42 c-3 -5 -16 -15 -28 -21 -21 -10 -21 -9 2 10 25
23 36 27 26 11z m-87 -51 c-28 -16 -129 -32 -140 -21 -6 6 9 10 40 10 27 1 60
6 73 11 32 13 48 13 27 0z"/>
<path d="M7027 2050 c3 -11 7 -20 9 -20 2 0 4 9 4 20 0 11 -4 20 -9 20 -5 0
-7 -9 -4 -20z"/>
<path d="M4621 2250 c14 -31 19 -36 19 -24 0 6 -7 19 -16 30 -14 18 -14 18 -3
-6z"/>
<path d="M5253 2238 c-13 -6 -25 -19 -28 -29 -3 -9 -17 -34 -30 -53 -35 -52
-62 -211 -48 -280 15 -69 49 -157 77 -198 30 -45 40 -83 37 -139 -4 -62 14
-72 50 -30 l27 33 36 -17 c19 -9 39 -14 43 -12 5 3 40 7 78 8 39 1 92 11 120
21 27 10 54 20 60 21 5 1 14 5 20 10 5 4 48 34 95 65 47 32 90 67 95 78 6 11
26 37 45 58 50 54 49 55 -40 96 -10 5 -17 28 -21 71 -3 35 -13 79 -23 98 l-18
34 -75 -7 c-93 -9 -103 -2 -103 70 0 51 -2 55 -39 80 -46 30 -78 27 -150 -12
-60 -33 -82 -31 -109 11 -24 37 -55 44 -99 23z m394 -202 c28 -30 33 -43 33
-85 0 -27 -5 -62 -12 -78 -11 -27 -12 -27 -19 27 -12 100 -35 130 -97 130 -39
0 -93 -20 -86 -31 3 -6 -6 -26 -21 -45 -36 -47 -83 -152 -97 -217 -9 -42 -12
-48 -19 -32 -6 13 -7 1 -3 -31 4 -40 2 -53 -11 -64 -15 -13 -20 -11 -37 10
-59 73 -113 215 -88 230 7 4 11 10 11 14 -2 16 15 1 26 -23 11 -25 11 -23 12
21 1 26 5 50 11 53 6 4 9 -18 9 -55 -1 -34 2 -64 5 -67 3 -4 6 14 6 38 0 24 5
51 11 59 8 11 9 1 4 -37 -5 -44 -3 -53 10 -53 8 0 15 -9 15 -19 0 -34 18 -33
25 1 9 43 102 232 124 252 63 57 137 58 188 2z m-114 -93 c-17 -21 -43 -58
-58 -83 -16 -25 -30 -39 -33 -32 -5 15 32 75 77 125 43 48 53 40 14 -10z
m-356 -55 c-2 -13 -4 -3 -4 22 0 25 2 35 4 23 2 -13 2 -33 0 -45z m403 29 c0
-18 -69 -96 -70 -79 0 11 59 91 68 92 1 0 2 -6 2 -13z m17 -70 c-27 -46 -64
-84 -73 -75 -3 3 8 21 24 39 16 19 37 50 47 69 10 19 20 29 22 22 3 -7 -6 -31
-20 -55z m-1 -93 c-27 -40 -111 -124 -125 -124 -7 0 20 36 61 79 72 79 97 96
64 45z m-214 -23 c-9 -16 -18 -28 -21 -26 -4 5 27 55 34 55 2 0 -4 -13 -13
-29z m138 -96 c0 -6 -56 -35 -67 -35 -9 0 48 38 60 39 4 1 7 -1 7 -4z m195
-24 c-38 -36 -291 -69 -318 -42 -18 18 -5 20 57 9 66 -12 179 2 225 27 30 16
50 20 36 6z"/>
<path d="M5291 1715 c1 -21 27 -98 28 -80 0 6 -6 30 -13 55 -8 25 -15 36 -15
25z"/>
<path d="M1182 2000 c-32 -19 -38 -40 -16 -47 15 -5 64 36 64 53 0 19 -9 18
-48 -6z"/>
<path d="M1304 2006 c-27 -20 -79 -95 -70 -103 4 -4 30 16 59 45 34 35 48 55
41 62 -7 7 -16 5 -30 -4z"/>
<path d="M805 1811 c-8 -14 17 -29 63 -39 23 -6 54 -18 68 -27 32 -21 41 -13
21 19 -21 31 -139 68 -152 47z"/>
<path d="M7066 1745 c-15 -20 -32 -33 -37 -29 -6 3 -5 -3 2 -14 13 -21 13 -21
26 6 7 15 20 37 29 50 27 36 9 25 -20 -13z"/>
<path d="M8071 1725 c-29 -14 -73 -39 -98 -55 -24 -17 -48 -28 -52 -26 -4 3
-16 -9 -26 -26 -17 -30 -16 -30 49 17 37 26 97 63 134 81 78 39 73 46 -7 9z"/>
<path d="M7785 1549 c-38 -37 -71 -79 -82 -105 -10 -24 -23 -44 -30 -44 -6 0
-19 -10 -27 -21 -17 -25 -276 -133 -276 -115 0 6 -9 -7 -19 -29 -10 -22 -42
-62 -72 -89 -41 -37 -46 -45 -23 -33 31 16 104 90 104 105 0 10 25 22 152 73
l98 39 20 -20 c26 -26 70 -27 70 -1 0 23 31 32 116 33 68 0 98 -10 137 -47 15
-14 27 -21 27 -15 0 8 11 9 31 5 29 -6 30 -5 24 15 -6 20 -4 22 27 16 18 -3
-18 12 -80 33 -62 21 -116 42 -120 46 -7 8 184 0 248 -10 28 -4 31 -4 13 4
-11 5 -59 15 -105 22 -45 7 -87 15 -91 19 -5 4 22 13 60 20 37 7 75 17 83 22
13 8 13 9 -1 5 -8 -3 -47 -8 -85 -12 -38 -4 -91 -16 -117 -26 -53 -21 -92 -14
-63 10 24 20 19 33 -6 20 -18 -9 -15 -3 14 37 30 42 55 104 41 104 -3 0 -33
-27 -68 -61z"/>
<path d="M740 1495 c13 -14 26 -25 28 -25 3 0 -5 11 -18 25 -13 14 -26 25 -28
25 -3 0 5 -11 18 -25z"/>
<path d="M9140 1491 c-82 -27 -144 -56 -159 -75 -8 -9 22 1 72 25 47 22 107
47 134 54 26 7 39 13 28 14 -11 0 -45 -8 -75 -18z"/>
<path d="M8477 1411 c-35 -53 -105 -92 -202 -113 l-80 -18 69 6 c101 7 193 61
232 137 21 39 11 33 -19 -12z"/>
<path d="M8905 1408 c-22 -11 -70 -52 -107 -89 -36 -38 -70 -69 -74 -69 -4 0
-15 -7 -24 -15 -9 -9 -53 -22 -96 -29 -116 -21 -223 -50 -369 -100 -193 -66
-195 -67 -195 -77 0 -4 19 -2 41 6 51 18 50 18 43 0 -7 -18 21 -65 39 -65 7 0
18 -12 25 -27 15 -34 37 -60 80 -95 55 -46 70 -32 29 25 -13 18 -24 45 -25 61
-2 25 1 28 21 21 12 -4 47 -8 77 -10 42 -3 48 -2 25 4 -16 5 -28 10 -25 11 3
1 37 10 75 21 39 10 54 16 35 13 -87 -13 -163 -17 -158 -8 4 5 35 20 70 33 57
21 64 27 60 47 -4 20 -7 22 -24 13 -11 -6 -22 -8 -26 -5 -3 4 -18 -6 -34 -21
-46 -44 -180 -46 -191 -3 -5 18 8 24 121 60 70 22 168 48 217 59 151 32 155
32 155 16 0 -19 46 -49 65 -41 8 3 15 12 15 21 0 12 13 15 58 15 31 0 73 -5
93 -10 37 -10 96 -61 110 -95 6 -17 8 -17 8 -2 1 19 16 23 26 7 12 -19 38 -11
32 10 -6 24 -6 24 40 5 71 -30 40 -9 -85 57 -104 56 -121 68 -96 68 17 0 77
-13 132 -30 135 -40 149 -37 32 6 -146 54 -145 52 -45 55 l90 2 -80 7 c-44 3
-104 2 -133 -3 -62 -12 -90 2 -56 28 15 11 16 17 6 23 -9 6 -1 20 32 50 25 23
41 42 36 42 -5 0 -7 7 -4 15 8 19 8 19 -41 -7z"/>
<path d="M1890 1391 c0 -13 72 -80 93 -87 24 -8 36 5 15 17 -9 5 -35 25 -58
44 -45 37 -50 40 -50 26z"/>
<path d="M7750 1315 c-15 -18 -14 -18 87 -38 60 -12 73 -12 77 -1 7 17 -4 23
-72 40 -73 17 -77 17 -92 -1z"/>
<path d="M8158 1293 c6 -2 18 -2 25 0 6 3 1 5 -13 5 -14 0 -19 -2 -12 -5z"/>
<path d="M8788 1157 c-14 -9 -4 -16 70 -44 62 -23 88 -29 93 -21 11 18 4 24
-66 52 -73 29 -74 29 -97 13z"/>
<path d="M9526 1121 c-16 -16 -51 -39 -79 -51 -43 -19 -65 -22 -139 -18 -48 2
-88 3 -88 2 0 -2 25 -8 57 -14 42 -9 70 -9 111 -1 59 12 146 61 163 92 14 26
7 24 -25 -10z"/>
<path d="M6270 1099 c0 -5 5 -7 10 -4 6 3 10 8 10 11 0 2 -4 4 -10 4 -5 0 -10
-5 -10 -11z"/>
<path d="M9795 1090 c-33 -4 -71 -10 -84 -14 -17 -6 -21 -5 -16 4 5 8 1 8 -13
-1 -12 -7 -20 -15 -18 -17 6 -5 179 19 201 28 23 10 13 10 -70 0z"/>
<path d="M7272 1038 c-68 -46 -82 -68 -44 -68 18 0 132 77 132 88 -1 30 -21
25 -88 -20z"/>
<path d="M8315 1085 c-5 -2 -29 -9 -52 -15 -43 -11 -61 -40 -25 -40 37 0 107
28 110 44 3 15 -10 19 -33 11z"/>
<path d="M8630 1080 c80 -10 116 -23 155 -58 l30 -27 -25 29 c-38 43 -95 66
-165 64 l-60 -1 65 -7z"/>
<path d="M9923 1083 c9 -2 25 -2 35 0 9 3 1 5 -18 5 -19 0 -27 -2 -17 -5z"/>
<path d="M8538 1073 c7 -3 16 -2 19 1 4 3 -2 6 -13 5 -11 0 -14 -3 -6 -6z"/>
<path d="M9533 1056 c-63 -24 -77 -31 -123 -72 -37 -32 -63 -35 -310 -35 -127
0 -234 -4 -245 -9 -14 -7 20 -9 110 -7 72 2 175 1 229 -2 85 -5 100 -9 102
-24 6 -43 43 -60 73 -33 14 13 24 12 76 -6 32 -11 71 -28 86 -39 31 -22 74
-102 64 -121 -4 -7 1 -4 10 7 15 19 17 19 26 3 14 -26 42 -24 34 2 -8 27 1 25
44 -6 20 -15 -4 11 -53 57 -49 46 -101 92 -115 101 -16 11 -20 18 -11 18 17 0
90 -36 193 -94 37 -21 67 -36 67 -33 0 3 -42 33 -94 68 -52 35 -94 64 -93 66
2 1 38 -7 81 -18 43 -11 83 -18 88 -17 18 6 -177 58 -219 58 -45 0 -65 22 -35
40 13 7 14 12 5 18 -9 5 5 18 42 37 29 16 56 38 58 47 7 24 -13 22 -90 -6z"/>
<path d="M6214 1044 c-18 -14 -16 -15 21 -9 51 8 70 25 29 25 -17 0 -39 -7
-50 -16z"/>
<path d="M6135 978 c-16 -16 -25 -28 -20 -28 25 0 84 22 94 34 9 11 6 14 -16
17 -20 3 -37 -4 -58 -23z"/>
<path d="M6966 974 c-48 -17 -70 -34 -58 -46 12 -12 122 31 122 48 0 17 -14
17 -64 -2z"/>
<path d="M6265 970 c-3 -5 -1 -10 4 -10 6 0 11 5 11 10 0 6 -2 10 -4 10 -3 0
-8 -4 -11 -10z"/>
<path d="M2035 951 c-6 -5 -34 -18 -64 -28 -63 -21 -85 -50 -30 -38 49 10 80
27 97 53 15 23 13 29 -3 13z"/>
<path d="M5930 912 c-24 -23 -29 -32 -15 -27 11 4 28 7 37 7 22 -1 40 22 32
42 -8 21 -13 19 -54 -22z"/>
<path d="M6290 941 c0 -5 8 -15 17 -22 14 -12 15 -12 9 0 -5 8 -3 17 5 22 10
6 8 9 -8 9 -13 0 -23 -4 -23 -9z"/>
<path d="M8468 933 c7 -3 16 -2 19 1 4 3 -2 6 -13 5 -11 0 -14 -3 -6 -6z"/>
<path d="M6150 914 l-25 -15 25 7 c14 3 32 10 40 15 13 7 13 8 0 8 -8 0 -26
-6 -40 -15z"/>
<path d="M6210 905 c-11 -13 -8 -15 18 -15 24 0 30 4 26 15 -4 8 -12 15 -19
15 -7 0 -18 -7 -25 -15z"/>
<path d="M3825 870 c4 -8 15 -23 24 -34 15 -18 14 -18 -19 -11 -19 4 -32 4
-28 0 8 -8 131 -35 136 -30 8 8 -33 43 -45 38 -8 -3 -28 7 -45 23 -17 16 -27
22 -23 14z"/>
<path d="M5810 870 c20 -13 43 -13 35 0 -3 6 -16 10 -28 10 -18 0 -19 -2 -7
-10z"/>
<path d="M9396 852 c-6 -11 139 -114 148 -105 15 16 2 34 -51 72 -56 40 -86
50 -97 33z"/>
<path d="M5910 822 c0 -11 51 -35 58 -27 3 3 1 9 -4 14 -14 14 -54 23 -54 13z"/>
<path d="M8362 804 c10 -10 20 -15 24 -12 3 4 -5 12 -18 18 -22 12 -22 12 -6
-6z"/>
<path d="M6122 803 c-10 -4 -10 -8 -1 -19 15 -18 39 -18 39 0 0 16 -19 25 -38
19z"/>
<path d="M6262 790 c-18 -11 -32 -23 -32 -26 0 -6 100 3 133 12 9 3 17 12 17
19 0 11 -6 12 -30 3 -21 -7 -34 -7 -43 1 -10 7 -22 5 -45 -9z"/>
<path d="M6490 784 c0 -8 5 -12 10 -9 6 3 10 10 10 16 0 5 -4 9 -10 9 -5 0
-10 -7 -10 -16z"/>
<path d="M6000 781 c0 -10 24 -21 43 -21 7 0 3 7 -7 15 -22 17 -36 19 -36 6z"/>
<path d="M6405 770 c-3 -5 -1 -10 4 -10 6 0 11 5 11 10 0 6 -2 10 -4 10 -3 0
-8 -4 -11 -10z"/>
<path d="M6578 763 c6 -2 18 -2 25 0 6 3 1 5 -13 5 -14 0 -19 -2 -12 -5z"/>
<path d="M6764 763 c9 -9 79 -33 84 -28 6 6 -55 35 -74 35 -10 0 -14 -3 -10
-7z"/>
<path d="M7463 754 c16 -8 31 -13 35 -10 8 8 1 12 -33 20 l-30 6 28 -16z"/>
<path d="M6483 749 c7 -5 27 -4 43 1 27 8 25 8 -14 7 -27 0 -38 -3 -29 -8z"/>
<path d="M7518 743 c7 -3 16 -2 19 1 4 3 -2 6 -13 5 -11 0 -14 -3 -6 -6z"/>
<path d="M7575 730 c30 -8 162 -13 154 -6 -2 2 -44 5 -94 8 -49 3 -76 2 -60
-2z"/>
<path d="M2798 723 c6 -2 18 -2 25 0 6 3 1 5 -13 5 -14 0 -19 -2 -12 -5z"/>
<path d="M3320 674 c0 -18 -6 -22 -32 -22 -49 0 -89 -18 -82 -37 9 -23 57 -18
90 10 16 14 32 25 37 25 20 0 22 -2 19 -20 -2 -11 1 -28 7 -37 9 -15 10 -13
11 14 0 47 9 63 35 63 17 0 25 -7 27 -22 3 -17 5 -14 9 12 l4 35 -62 0 c-58 0
-63 -2 -63 -21z"/>
<path d="M6166 631 c39 -78 129 -166 136 -133 2 9 -8 35 -22 57 -42 63 -43 65
-26 59 22 -8 20 0 -10 46 -26 39 -57 52 -67 28 -4 -10 -6 -10 -6 0 -1 6 -10
12 -21 12 -18 0 -16 -6 16 -69z"/>
<path d="M3795 671 l20 -24 -43 6 c-39 5 -41 4 -25 -9 11 -8 13 -13 6 -14 -29
0 -11 -20 18 -20 23 0 30 4 26 14 -5 13 -1 13 35 0 22 -8 47 -14 54 -14 17 0
7 27 -12 34 -9 3 -12 1 -9 -4 14 -22 -21 -8 -54 23 -20 17 -27 21 -16 8z"/>
<path d="M6270 686 c0 -11 33 -36 46 -36 12 0 12 4 4 20 -9 17 -50 30 -50 16z"/>
<path d="M9775 665 c49 -41 112 -67 179 -72 54 -5 72 -2 120 20 31 14 56 29
56 32 0 3 -15 -2 -32 -11 -78 -41 -217 -26 -313 33 l-40 24 30 -26z"/>
<path d="M6390 670 c0 -12 53 -12 125 0 46 7 43 7 -37 9 -53 0 -88 -3 -88 -9z"/>
<path d="M5901 654 c0 -11 3 -14 6 -6 3 7 2 16 -1 19 -3 4 -6 -2 -5 -13z"/>
<path d="M4690 651 c0 -17 18 -21 24 -6 3 9 0 15 -9 15 -8 0 -15 -4 -15 -9z"/>
<path d="M4720 621 c0 -11 69 -35 77 -27 3 3 -3 8 -13 11 -10 4 -27 11 -36 16
-22 11 -28 11 -28 0z"/>
<path d="M6424 621 c4 -6 18 -11 31 -11 13 0 35 -4 49 -10 14 -5 26 -7 26 -5
0 7 -36 21 -79 30 -23 5 -31 4 -27 -4z"/>
<path d="M3313 585 c0 -22 2 -30 4 -17 2 12 2 30 0 40 -3 9 -5 -1 -4 -23z"/>
<path d="M3800 590 c0 -13 40 -13 60 0 11 7 5 10 -22 10 -21 0 -38 -4 -38 -10z"/>
<path d="M3268 574 c-5 -4 -8 -16 -8 -28 0 -14 3 -17 11 -9 6 6 9 19 7 28 -1
9 -6 13 -10 9z"/>
<path d="M6342 470 c7 -11 17 -20 22 -20 5 0 1 9 -9 20 -10 11 -20 20 -22 20
-2 0 2 -9 9 -20z"/>
<path d="M4011 426 c-8 -14 -12 -29 -8 -32 7 -7 29 34 25 47 -2 6 -10 -1 -17
-15z"/>
<path d="M6409 417 c13 -14 54 -42 91 -61 80 -42 108 -48 35 -8 -27 15 -72 43
-100 61 -44 30 -47 31 -26 8z"/>
<path d="M5150 396 c0 -2 8 -10 18 -17 15 -13 16 -12 3 4 -13 16 -21 21 -21
13z"/>
</g>
</svg>
