<?xml version="1.0" standalone="no"?>
<!DOCTYPE svg PUBLIC "-//W3C//DTD SVG 20010904//EN"
 "http://www.w3.org/TR/2001/REC-SVG-20010904/DTD/svg10.dtd">
<svg version="1.0" xmlns="http://www.w3.org/2000/svg"
 width="1500.000000pt" height="1500.000000pt" viewBox="0 0 1500.000000 1500.000000"
 preserveAspectRatio="xMidYMid meet">

<g transform="translate(0.000000,1500.000000) scale(0.100000,-0.100000)"
fill="#000000" stroke="none">
<path d="M7255 14989 c-870 -27 -1689 -196 -2520 -522 -1049 -410 -2052 -1109
-2810 -1957 -976 -1092 -1607 -2420 -1830 -3850 -101 -647 -115 -1386 -39
-2035 294 -2505 1835 -4700 4092 -5829 873 -437 1803 -693 2797 -771 268 -21
840 -21 1110 0 1448 113 2797 620 3950 1485 566 424 1087 949 1512 1520 773
1040 1267 2277 1422 3560 73 600 71 1262 -5 1858 -106 834 -343 1619 -720
2382 -650 1318 -1691 2425 -2980 3170 -202 117 -632 330 -836 414 -556 230
-1164 401 -1758 496 -401 63 -923 93 -1385 79z m-35 -570 l0 -69 -59 0 c-32 0
-73 -3 -91 -6 l-32 -7 7 -126 c9 -178 0 -164 106 -156 l89 7 0 -71 0 -71 -39
0 c-21 0 -60 -3 -86 -7 l-47 -6 6 -126 c4 -69 10 -141 13 -159 l5 -33 90 7
c105 8 108 6 108 -77 l0 -56 -72 -6 c-40 -4 -120 -9 -179 -13 l-105 -6 -23
348 c-13 192 -29 423 -36 514 -6 91 -10 167 -8 169 4 6 336 28 346 23 4 -2 7
-34 7 -73z m858 57 c90 -8 164 -16 166 -18 1 -1 0 -33 -2 -70 l-4 -68 -98 6
-98 7 -5 -39 c-4 -21 -9 -80 -13 -130 l-6 -91 32 -7 c18 -3 56 -6 86 -6 29 0
56 -5 59 -10 4 -6 3 -39 0 -74 l-7 -64 -91 2 -92 1 -17 -205 c-9 -113 -17
-219 -17 -235 l-1 -30 -77 3 c-43 2 -80 6 -83 8 -4 5 66 942 76 1002 3 17 10
32 17 32 7 0 85 -7 175 -14z m-1515 -49 c7 -18 20 -127 16 -127 -15 0 -173
-31 -176 -34 -4 -4 37 -277 42 -284 2 -2 40 4 86 12 46 8 87 11 90 8 4 -4 10
-35 14 -68 l7 -62 -64 -11 c-36 -6 -72 -11 -82 -11 -9 0 -19 -6 -21 -12 -6
-16 39 -295 48 -304 4 -4 47 0 97 8 50 8 92 12 94 9 2 -3 7 -35 11 -71 l7 -65
-173 -28 c-95 -15 -174 -26 -176 -24 -2 3 -137 821 -166 1006 -1 11 36 21 158
41 197 34 182 33 188 17z m2232 -38 c62 -17 120 -82 134 -148 14 -65 13 -67
-50 -421 -55 -303 -76 -367 -140 -424 -76 -69 -230 -56 -306 26 -68 72 -68
150 -2 513 59 329 80 387 157 436 38 24 57 29 106 29 34 0 79 -5 101 -11z
m-2927 -138 c38 -27 74 -101 102 -211 26 -101 23 -160 -11 -196 -21 -22 -21
-24 -3 -24 44 -1 82 -56 122 -180 48 -146 92 -314 85 -320 -10 -9 -143 -44
-147 -39 -2 2 -27 87 -55 189 -59 212 -72 246 -100 255 -28 9 -101 -12 -96
-28 14 -38 124 -452 120 -455 -4 -5 -149 -42 -152 -39 -5 5 -271 992 -268 995
2 2 66 21 142 43 155 44 211 46 261 10z m3584 -30 c144 -44 170 -57 199 -104
57 -90 -35 -390 -127 -413 l-24 -6 20 -25 c36 -46 27 -107 -55 -394 -20 -68
-38 -125 -40 -128 -3 -2 -35 5 -72 16 -44 13 -69 26 -71 37 -2 9 22 104 53
211 33 114 55 205 51 218 -5 22 -61 57 -89 57 -8 0 -40 -90 -81 -230 -41 -137
-74 -229 -80 -227 -6 2 -41 12 -78 23 -51 14 -67 22 -63 34 2 8 68 227 145
485 77 259 142 476 145 484 3 7 12 10 21 7 9 -3 74 -24 146 -45z m-4213 -166
c12 -31 21 -60 21 -65 0 -4 -22 -16 -50 -25 -27 -9 -50 -20 -50 -23 0 -4 70
-191 155 -416 85 -224 155 -411 155 -415 0 -6 -142 -62 -147 -57 -3 2 -204
529 -274 718 l-43 116 -49 -19 c-27 -11 -54 -18 -60 -16 -5 1 -20 30 -32 63
l-23 61 172 66 c94 36 179 66 188 66 11 1 23 -17 37 -54z m5237 -221 c75 -40
84 -49 78 -68 -19 -58 -202 -691 -201 -692 2 -1 338 433 444 572 10 13 23 9
102 -31 l92 -45 -24 -43 c-14 -23 -69 -130 -124 -237 -265 -515 -317 -616
-325 -627 -8 -9 -24 -5 -69 17 -32 17 -59 35 -59 41 0 9 166 331 273 529 22
41 35 71 30 65 -6 -5 -102 -127 -213 -270 -112 -143 -204 -261 -205 -263 -5
-6 -115 52 -115 60 0 4 41 149 90 320 50 172 93 322 96 333 3 11 -62 -115
-146 -280 -83 -165 -155 -304 -160 -308 -6 -7 -130 47 -130 56 0 3 88 175 356
695 64 122 118 222 121 222 3 0 43 -21 89 -46z m-5982 -589 c174 -222 316
-408 316 -412 0 -8 -111 -73 -123 -73 -3 0 -28 32 -57 70 -29 39 -54 70 -56
70 -3 0 -35 -17 -73 -37 l-68 -38 35 -84 c34 -82 35 -84 16 -98 -24 -19 -115
-65 -118 -61 -15 20 -377 973 -370 975 5 2 43 23 84 47 41 24 80 45 86 45 7 1
154 -181 328 -404z m6809 127 c20 -14 37 -30 37 -36 0 -6 -27 -87 -60 -180
-33 -93 -59 -171 -57 -173 2 -2 65 53 141 123 75 69 139 124 143 122 5 -1 34
-21 66 -42 47 -32 55 -42 45 -52 -7 -6 -101 -87 -208 -179 -107 -92 -212 -183
-232 -201 -21 -18 -87 -107 -148 -196 -61 -90 -115 -164 -120 -166 -9 -3 -130
75 -130 84 0 3 54 85 119 182 l119 177 98 297 99 297 25 -16 c14 -9 42 -27 63
-41z m-7923 -362 c20 -10 56 -40 81 -67 87 -93 369 -454 394 -504 53 -103 41
-183 -37 -255 -55 -51 -186 -154 -195 -153 -8 0 -635 779 -641 797 -3 9 150
137 211 177 56 36 120 38 187 5z m4440 -160 c1086 -68 2110 -452 2955 -1109
772 -600 1373 -1402 1717 -2291 545 -1411 482 -2945 -176 -4296 -360 -738
-849 -1346 -1496 -1859 -118 -93 -322 -241 -399 -289 l-43 -28 55 -33 c30 -18
64 -36 76 -40 77 -24 -82 -52 -205 -35 -48 6 -89 8 -93 5 -8 -9 48 -56 123
-106 74 -49 151 -78 245 -93 l75 -12 -60 -26 c-65 -30 -118 -43 -211 -53 l-63
-7 22 -31 c58 -83 175 -181 293 -244 l59 -32 -29 -7 c-38 -11 -186 -11 -245
-2 l-45 8 55 -52 c74 -69 144 -112 232 -143 l73 -26 -100 4 c-98 5 -190 29
-240 63 -35 25 -36 15 -4 -33 46 -69 126 -150 188 -190 61 -39 185 -92 237
-100 52 -9 49 -20 -8 -33 -85 -21 -216 -15 -383 16 -29 6 -27 3 30 -56 33 -34
90 -82 128 -106 37 -25 67 -47 67 -49 0 -13 -86 22 -152 62 -79 47 -219 167
-239 205 -10 18 -7 19 53 16 l63 -3 3 47 c3 48 3 48 -87 143 -79 82 -91 100
-91 130 0 30 5 37 44 60 23 14 51 34 61 45 17 19 17 23 2 55 -16 33 -68 64
-252 146 l-50 23 70 6 c113 10 180 53 155 100 -13 24 -44 41 -158 84 -111 42
-182 76 -182 86 0 4 28 11 62 14 61 7 88 19 88 37 0 5 -17 28 -38 52 -83 91
-91 127 -42 190 36 48 32 60 -48 159 -71 87 -85 112 -77 138 7 21 27 26 143
36 74 5 82 8 82 27 0 29 -83 106 -156 144 -34 18 -67 40 -74 48 -28 33 17 70
106 86 32 6 69 13 82 15 43 8 37 22 -100 211 -31 44 -60 91 -63 105 -7 27 -6
28 58 42 33 8 35 28 6 76 -34 56 -40 88 -23 122 17 33 19 29 -53 112 -24 26
-43 54 -43 62 0 7 16 16 36 20 l37 7 -6 65 c-4 35 -19 126 -34 201 -27 133
-28 135 -34 86 -11 -82 -27 -131 -63 -184 l-34 -50 28 1 c34 1 50 -8 50 -29 0
-20 -59 -124 -104 -183 l-34 -45 44 4 c51 4 56 -7 25 -67 -24 -46 -127 -171
-148 -179 -17 -7 -126 95 -149 140 -30 56 10 87 109 87 l50 0 -59 41 c-64 46
-134 108 -134 121 0 13 63 9 114 -6 l47 -14 -48 41 c-26 22 -85 78 -130 123
-122 121 -112 144 60 144 l92 1 -40 31 c-78 62 -136 128 -133 151 3 19 11 23
61 27 l59 5 -92 74 c-102 82 -151 144 -131 164 7 7 34 11 63 10 l51 -1 -31 24
c-44 35 -109 137 -117 184 -8 47 -20 52 -28 12 -11 -54 -49 -142 -82 -191
l-34 -50 28 16 c15 9 35 13 45 10 54 -21 -68 -191 -179 -252 l-30 -16 30 5
c86 14 101 15 114 7 20 -13 -2 -46 -98 -144 l-76 -79 59 36 c67 40 143 72 152
63 22 -21 -81 -165 -235 -330 -40 -42 -71 -77 -69 -77 3 0 38 11 78 25 186 63
185 16 -5 -167 l-90 -87 40 9 c59 14 151 12 163 -3 19 -23 -18 -78 -123 -181
-55 -54 -92 -96 -82 -93 118 42 184 46 179 12 -2 -19 -177 -195 -193 -195 -4
0 -37 29 -72 63 -65 65 -107 144 -107 203 0 17 -4 23 -12 18 -7 -4 -9 -3 -5 1
10 11 39 16 32 6 -2 -4 22 -16 53 -26 31 -9 64 -20 72 -23 8 -3 -1 8 -20 24
-19 16 -38 28 -43 26 -5 -1 -6 1 -3 6 3 5 -13 26 -36 48 -49 47 -108 136 -108
163 0 37 27 51 98 51 l66 0 -97 96 c-53 53 -100 107 -103 119 -9 37 4 48 48
41 l40 -6 -54 63 c-29 35 -57 62 -63 59 -5 -3 -7 -2 -3 3 4 4 1 20 -7 35 -13
26 -17 69 -5 68 3 0 20 0 37 1 l33 1 -35 46 c-20 26 -45 77 -57 120 -13 40
-26 74 -30 74 -5 0 -8 -4 -8 -10 0 -30 -49 -130 -90 -185 l-48 -63 42 19 c52
23 66 24 66 1 0 -30 -51 -101 -155 -216 -111 -122 -113 -118 43 -74 40 12 75
18 79 15 15 -15 -224 -297 -251 -297 -24 0 -125 61 -174 105 -45 41 -103 128
-91 139 2 3 47 8 98 12 l94 7 -29 21 c-58 41 -146 131 -185 189 -22 33 -38 61
-37 62 2 2 37 -3 78 -10 41 -8 81 -14 89 -14 8 -1 -24 28 -71 63 -93 71 -128
108 -128 139 0 18 5 19 59 15 l58 -4 -79 90 c-87 99 -113 140 -104 163 5 12
15 14 42 8 l36 -6 -26 33 c-35 47 -72 131 -92 213 l-18 70 -16 -66 c-21 -83
-60 -168 -107 -233 l-36 -50 29 18 c16 11 38 25 49 33 26 18 55 17 55 -2 0 -9
-7 -30 -16 -48 -21 -40 -127 -199 -168 -252 -17 -21 -24 -36 -16 -33 73 28
120 41 125 36 12 -12 -26 -68 -107 -155 -45 -48 -92 -100 -105 -114 l-23 -26
72 19 c76 19 118 14 118 -15 0 -24 -49 -89 -128 -169 -78 -79 -80 -87 -23 -67
49 17 56 0 21 -52 -16 -24 -30 -47 -30 -50 0 -3 11 -11 25 -17 28 -13 50 -52
61 -107 4 -22 18 -53 32 -70 37 -44 72 -125 72 -166 0 -49 -17 -95 -54 -149
-31 -44 -32 -46 -17 -84 12 -32 13 -48 2 -99 l-12 -60 31 -28 c38 -35 60 -86
60 -140 0 -37 -6 -48 -67 -110 -36 -38 -62 -69 -57 -69 11 1 91 18 117 26 14
4 17 -1 17 -33 0 -46 -44 -124 -116 -208 -25 -30 -44 -55 -42 -55 2 0 38 11
78 25 40 14 75 25 78 25 9 0 -64 -120 -113 -185 -60 -78 -116 -135 -188 -189
-40 -30 -45 -36 -26 -36 42 0 153 32 213 61 32 16 60 28 62 26 10 -10 -70
-113 -150 -193 -83 -84 -89 -92 -61 -88 84 12 181 21 184 17 13 -11 -130 -248
-154 -256 -5 -2 -53 0 -105 4 -58 4 -111 3 -137 -3 -34 -8 -48 -7 -65 4 -13 8
-36 18 -51 22 -25 6 -28 11 -23 31 6 22 3 25 -23 25 -20 0 -34 -7 -41 -20 -14
-26 -66 -28 -74 -2 -2 9 -10 42 -16 73 -8 42 -19 64 -45 89 -39 38 -41 33 -20
-55 23 -94 21 -105 -19 -105 -25 0 -48 11 -84 39 -50 40 -62 42 -62 11 0 -10
-9 -29 -21 -44 -17 -21 -19 -34 -14 -66 13 -77 -24 -130 -90 -130 -17 0 -29
-9 -40 -30 -18 -35 -57 -41 -87 -14 -14 14 -20 14 -33 4 -8 -7 -26 -10 -40 -8
-14 3 -28 1 -31 -4 -13 -21 -56 -28 -100 -17 -42 11 -49 10 -100 -17 -51 -27
-57 -28 -81 -14 -15 8 -31 29 -36 45 -5 17 -32 53 -58 82 -42 45 -49 57 -49
93 0 45 11 72 43 107 l20 23 -34 0 c-30 -1 -36 -6 -54 -43 -26 -54 -63 -76
-104 -61 -28 11 -29 10 -35 -21 -8 -41 -34 -64 -80 -72 -22 -3 -49 -18 -66
-34 -29 -30 -79 -39 -109 -20 -8 5 -27 3 -47 -5 -49 -21 -85 -17 -114 11 -14
14 -46 29 -70 34 -75 14 -100 29 -115 64 -14 33 -7 97 14 135 5 10 2 21 -10
33 -13 13 -19 33 -19 60 0 38 -2 41 -22 35 -69 -19 -106 -18 -127 3 -12 12
-21 34 -21 50 0 22 -6 31 -30 41 -42 17 -90 75 -90 108 0 15 4 42 10 61 8 28
5 41 -15 82 -14 26 -25 59 -25 73 0 35 43 66 91 66 l39 0 0 56 c0 60 9 85 47
126 l25 26 -36 37 c-67 67 -72 115 -20 200 28 47 33 64 25 80 -29 62 -17 104
42 140 39 23 41 26 38 68 -2 35 3 50 21 71 l23 28 -39 41 c-80 86 -106 187
-65 254 22 35 84 74 107 66 6 -3 12 0 12 6 0 6 -6 11 -12 11 -8 0 -9 3 -3 8 6
4 11 34 12 67 2 84 3 87 32 114 14 14 25 27 24 30 -2 9 85 13 108 6 12 -4 29
-27 39 -51 23 -52 48 -57 94 -21 23 18 29 32 29 58 -2 49 15 97 40 114 12 8
41 15 65 15 35 0 49 -6 73 -29 16 -16 29 -40 29 -53 0 -23 4 -24 49 -24 39 1
55 -4 75 -23 34 -32 50 -83 42 -135 -6 -41 -6 -42 28 -54 52 -19 103 -82 123
-152 10 -39 22 -62 34 -65 10 -4 27 -17 38 -31 23 -29 27 -30 34 -4 3 11 18
27 34 36 15 9 40 34 55 55 35 49 67 58 110 30 64 -41 153 -81 181 -81 26 0 27
2 27 48 0 62 26 112 72 137 l36 21 -30 17 c-28 16 -30 21 -25 54 6 33 3 41
-28 69 -41 38 -44 66 -13 127 11 23 23 60 25 82 6 57 23 85 55 92 20 4 27 10
24 22 -3 9 -8 33 -12 54 -10 60 -38 87 -88 87 l-44 0 5 44 c5 38 2 48 -19 68
-20 18 -26 36 -30 81 -4 48 -10 63 -38 92 -18 19 -46 37 -62 40 -15 4 -28 7
-28 8 0 1 14 29 30 61 43 85 37 157 -20 211 -28 27 -30 33 -30 107 0 123 -37
181 -122 195 -26 4 -45 14 -55 29 -8 13 -19 21 -24 18 -5 -3 -6 1 -3 9 6 16
-57 61 -97 71 -42 9 -88 -30 -136 -114 -58 -102 -100 -140 -155 -140 -78 0
-122 -42 -148 -140 -6 -25 -23 -73 -36 -108 -19 -48 -25 -81 -25 -142 0 -44 3
-84 6 -90 4 -6 -8 -10 -29 -10 -75 0 -114 -44 -103 -118 6 -34 4 -38 -26 -53
-47 -23 -57 -61 -29 -112 16 -29 19 -43 11 -46 -7 -2 -28 -18 -47 -35 -28 -26
-35 -41 -38 -81 -3 -31 0 -51 7 -56 7 -4 -3 -7 -22 -6 -33 2 -34 1 -37 -38 -4
-49 -15 -63 -56 -71 -37 -6 -132 -75 -129 -92 2 -6 -3 -9 -10 -7 -12 5 -37
-37 -37 -64 0 -8 11 -29 25 -47 25 -32 34 -74 16 -74 -18 0 -101 -90 -101
-109 0 -11 -5 -21 -12 -23 -12 -4 -30 -270 -20 -297 3 -9 1 -12 -6 -7 -8 5
-12 -2 -12 -21 0 -44 -35 -90 -85 -114 -25 -12 -48 -26 -51 -31 -12 -19 -14
-125 -4 -213 5 -49 10 -166 11 -259 1 -100 5 -163 10 -155 5 8 9 9 9 3 0 -6
-3 -14 -7 -18 -4 -3 -8 -34 -9 -69 -2 -34 -3 -65 -3 -69 -2 -18 -69 -41 -113
-39 l-47 2 -3 -48 c-3 -41 -6 -48 -28 -53 -14 -3 -46 2 -73 11 -77 28 -147 33
-209 15 -57 -16 -197 -24 -218 -11 -6 4 -24 33 -39 65 -16 33 -38 71 -50 86
-12 15 -21 37 -21 50 0 29 41 78 79 94 l29 12 -35 46 c-31 41 -35 52 -31 93 3
25 15 60 26 77 23 32 28 47 13 38 -5 -4 -21 -2 -34 3 -34 13 -42 55 -27 140
l11 68 -55 56 c-81 81 -95 135 -56 212 l20 39 -24 36 c-29 44 -40 89 -28 120
8 22 -4 39 -107 160 -148 171 -242 291 -347 438 -95 135 -96 128 21 165 72 22
230 30 287 15 26 -8 26 -8 22 -90 l-5 -83 19 50 c26 69 41 95 54 95 6 0 35
-14 65 -30 29 -17 55 -30 59 -30 11 0 -35 51 -72 81 l-38 30 77 75 c91 89 203
148 319 168 80 14 81 13 -34 31 -47 7 -151 -15 -213 -46 -69 -35 -136 -96
-172 -157 -14 -23 -28 -42 -31 -42 -4 0 -27 7 -52 16 -59 21 -181 21 -252 0
-31 -9 -79 -32 -108 -51 -62 -42 -46 -56 -160 135 -136 227 -301 564 -392 800
-325 844 -434 1702 -328 2590 145 1207 690 2318 1556 3171 696 686 1501 1140
2450 1384 524 135 1091 189 1634 155z m4383 -173 c37 -34 67 -67 67 -72 0 -6
-11 -26 -24 -45 -159 -235 -384 -580 -374 -574 7 5 146 102 308 216 l294 208
73 -72 73 -72 -268 -271 c-147 -148 -310 -314 -362 -367 l-95 -97 -54 50 -54
51 244 246 c134 135 237 241 229 235 -8 -6 -135 -94 -282 -197 -148 -102 -272
-186 -276 -186 -4 0 -27 20 -50 43 l-43 44 187 284 c103 156 192 291 198 299
6 8 -46 -43 -114 -115 -69 -71 -180 -186 -247 -255 l-122 -125 -52 52 -52 51
359 366 c197 201 361 366 364 366 3 0 35 -28 73 -63z m-9410 -104 l48 -47 -65
-65 -64 -66 102 -107 102 -108 64 65 65 65 48 -48 48 -49 -66 -64 -66 -64 116
-115 115 -115 70 70 71 70 49 -51 49 -51 -127 -126 -127 -127 -250 252 c-137
139 -301 306 -365 371 l-115 117 120 120 c66 66 122 120 125 120 3 0 27 -21
53 -47z m-422 -425 c27 -22 49 -44 49 -48 0 -3 -16 -25 -35 -47 l-34 -40 339
-288 c187 -158 340 -290 340 -292 0 -3 -23 -32 -51 -64 l-51 -59 -120 103
c-66 56 -220 186 -342 290 l-221 188 -19 -23 c-10 -13 -27 -34 -37 -47 l-19
-24 -46 38 c-25 21 -48 43 -51 51 -2 7 44 69 104 139 59 70 114 135 122 146 7
10 15 19 18 19 2 0 27 -19 54 -42z m10557 -251 c50 -32 98 -100 114 -160 10
-39 9 -51 -7 -93 -10 -27 -39 -70 -64 -97 -53 -57 -430 -356 -509 -403 -112
-68 -203 -63 -280 13 -108 108 -108 224 1 336 38 38 407 332 482 383 89 61
191 69 263 21z m-10611 -503 c230 -158 422 -290 427 -295 7 -7 -48 -99 -60
-99 -6 0 -502 134 -578 156 -27 7 -47 12 -45 10 2 -2 110 -74 239 -161 129
-86 241 -163 249 -170 14 -14 10 -23 -60 -127 -6 -9 -854 568 -854 580 0 14
60 102 70 102 6 0 141 -36 300 -79 160 -44 291 -78 293 -76 1 1 -21 17 -50 35
-139 87 -428 284 -428 292 0 8 71 117 77 118 1 0 190 -129 420 -286z m11056
-119 l106 -164 -57 -36 c-31 -19 -59 -35 -62 -35 -3 0 -18 20 -33 45 -16 25
-30 45 -32 45 -2 0 -167 -104 -367 -231 -200 -128 -370 -234 -378 -236 -14 -3
-90 101 -90 123 0 5 139 97 308 204 169 107 337 214 375 238 l67 43 -30 44
c-16 24 -30 47 -30 52 0 10 91 71 107 72 6 1 59 -73 116 -164z m-11474 -546
c267 -95 488 -173 489 -175 2 -1 -13 -32 -33 -69 -29 -51 -41 -65 -54 -60 -63
26 -143 55 -151 55 -5 0 -26 -31 -45 -70 l-35 -69 75 -51 c41 -28 75 -53 75
-55 0 -2 -16 -34 -36 -70 -23 -41 -40 -62 -47 -58 -7 4 -187 136 -402 293
-214 157 -400 293 -412 301 l-22 15 50 92 c27 51 53 92 56 92 4 0 225 -77 492
-171z m11718 139 c4 -7 20 -39 35 -71 l27 -57 -72 -36 c-40 -20 -123 -63 -184
-96 l-113 -59 31 -60 30 -60 185 95 c102 53 186 96 188 96 1 0 17 -32 36 -70
21 -43 30 -73 24 -79 -9 -8 -902 -461 -910 -461 -5 0 -76 141 -72 145 2 1 95
49 208 105 113 56 207 104 209 106 3 2 -8 31 -24 63 l-28 60 -208 -105 c-115
-57 -213 -104 -218 -104 -15 0 -76 129 -65 139 10 11 896 461 906 461 4 0 10
-6 15 -12z m-12157 -826 c201 -83 381 -157 401 -166 l36 -15 34 86 c19 47 39
87 45 90 6 2 36 -7 68 -21 51 -23 55 -27 47 -48 -17 -45 -124 -303 -127 -306
-1 -2 -157 60 -346 138 -189 78 -399 164 -468 193 -69 28 -129 54 -134 58 -4
4 4 40 20 79 20 53 32 70 43 67 9 -3 180 -72 381 -155z m12550 -37 c33 -87 57
-162 53 -166 -15 -14 -117 -49 -124 -41 -3 4 -19 42 -34 85 -15 42 -33 77 -39
77 -13 0 -248 -90 -259 -99 -4 -4 4 -34 17 -67 42 -105 43 -98 -20 -123 -31
-11 -59 -21 -64 -21 -5 0 -21 33 -35 73 -15 39 -31 75 -35 80 -5 6 -284 -93
-297 -106 -2 -2 12 -44 31 -93 l35 -89 -57 -22 c-31 -12 -62 -22 -68 -22 -13
-1 -136 321 -126 330 4 3 189 75 412 159 223 84 437 165 475 181 39 15 71 26
73 24 1 -1 29 -73 62 -160z m-12785 -309 c102 -34 181 -81 211 -126 29 -42 32
-113 8 -184 -12 -35 -14 -50 -5 -55 6 -4 92 -31 191 -61 139 -41 180 -57 180
-70 0 -9 -10 -44 -21 -79 -16 -48 -25 -62 -38 -58 -164 47 -958 291 -964 296
-11 10 70 269 95 304 11 16 35 38 52 49 45 28 181 21 291 -16z m12978 -281
c50 -187 52 -199 28 -248 -26 -52 -65 -79 -163 -111 -111 -36 -186 -43 -232
-21 -20 10 -36 22 -36 29 0 6 -8 -5 -18 -24 -30 -60 -78 -82 -372 -165 -52
-15 -102 -29 -111 -32 -12 -3 -20 13 -36 72 l-20 77 21 9 c11 5 101 31 198 58
209 57 228 67 227 119 -1 76 10 76 -247 7 l-232 -62 -16 53 c-8 29 -16 65 -17
80 l-2 26 495 133 c272 73 496 132 496 131 1 -1 18 -59 37 -131z m-13435 -740
c1 -1 -3 -44 -11 -94 -13 -90 -13 -92 7 -96 27 -6 243 -35 260 -35 9 0 16 20
20 63 13 114 10 110 80 102 33 -4 64 -10 67 -14 4 -3 1 -42 -6 -86 -7 -44 -11
-82 -8 -85 5 -5 306 -49 311 -45 2 2 9 42 16 89 7 47 16 89 19 92 3 4 36 3 72
-1 65 -7 66 -7 61 -33 -3 -15 -15 -94 -27 -177 -11 -82 -22 -151 -22 -152 -5
-4 -1013 140 -1018 146 -4 3 4 80 17 171 13 91 23 167 24 169 0 4 133 -9 138
-14z m13656 -416 c10 -94 15 -173 12 -176 -3 -3 -34 -8 -70 -10 l-64 -6 -7 81
c-4 44 -11 85 -15 92 -6 9 -38 9 -144 -3 -76 -8 -139 -17 -142 -20 -3 -2 0
-42 5 -88 6 -45 10 -83 8 -84 -1 -2 -32 -6 -68 -9 l-66 -7 -7 47 c-3 26 -6 61
-6 78 0 54 -2 54 -170 37 -125 -13 -155 -19 -154 -31 1 -9 4 -52 8 -96 8 -93
7 -94 -86 -94 -39 0 -48 3 -48 18 -1 9 -9 88 -18 175 -10 86 -15 157 -12 158
3 0 226 24 495 53 270 30 499 54 511 55 19 1 21 -9 38 -170z m-13352 -289
c270 -49 495 -90 499 -90 5 0 9 -45 9 -100 l0 -99 -32 -6 c-18 -3 -150 -18
-293 -35 -143 -16 -363 -41 -488 -56 -126 -14 -230 -24 -232 -22 -2 2 -1 36 2
76 5 63 9 73 27 77 30 6 502 53 616 61 52 4 101 10 108 13 6 4 -43 15 -110 24
-68 10 -234 36 -370 57 -136 22 -249 40 -252 40 -3 0 -6 34 -6 75 0 62 3 75
16 75 8 0 236 -40 506 -90z m12862 -225 c259 -36 483 -68 499 -71 l27 -6 0
-103 c0 -115 4 -108 -75 -119 -22 -3 -244 -38 -493 -76 -248 -39 -457 -70
-462 -70 -6 0 -10 32 -10 74 l0 74 30 5 c16 4 59 9 95 13 l65 7 0 82 0 83 -67
6 c-131 13 -123 7 -123 92 0 69 1 74 22 74 12 0 233 -29 492 -65z m-12355
-476 l1 -37 -91 -17 -91 -18 6 -76 c4 -41 13 -79 19 -83 7 -4 47 -8 89 -8 42
0 79 -4 82 -8 2 -4 6 -39 7 -77 l2 -70 -54 2 c-126 3 -975 67 -982 73 -4 4
-10 52 -14 107 l-6 101 74 17 c41 9 270 60 509 114 l435 97 7 -40 c3 -23 7
-57 7 -77z m12371 -202 c471 -51 485 -53 488 -75 7 -45 -29 -296 -46 -326 -36
-62 -61 -71 -195 -71 -144 1 -198 14 -244 60 l-34 34 -36 -25 c-31 -21 -47
-24 -122 -24 -47 0 -149 7 -226 15 -77 8 -146 15 -154 15 -11 0 -13 15 -7 77
3 42 8 79 11 81 3 3 99 -4 214 -16 240 -25 254 -23 270 35 20 69 47 60 -269
93 -107 12 -196 23 -198 25 -2 2 -1 38 3 79 7 74 8 76 34 76 14 -1 244 -24
511 -53z m-12310 -424 c6 -32 13 -68 15 -80 6 -27 20 -23 -240 -69 -115 -20
-214 -40 -218 -44 -5 -4 -3 -35 4 -69 11 -56 14 -62 33 -57 44 11 415 76 433
76 16 0 21 -12 31 -77 7 -42 11 -77 10 -78 -2 -1 -221 -41 -488 -89 -267 -48
-495 -90 -506 -92 -20 -5 -23 1 -36 73 -13 70 -13 79 1 84 9 3 100 21 204 39
118 21 187 38 187 46 0 14 -19 117 -23 120 -1 1 -92 -15 -202 -36 -110 -20
-202 -36 -204 -34 -7 6 -30 148 -25 153 4 5 954 184 1001 190 7 0 16 -24 23
-56z m12128 -328 c227 -47 416 -84 421 -81 5 3 12 26 16 51 3 26 12 48 19 51
17 6 131 -19 130 -29 -1 -4 -18 -91 -39 -192 -43 -206 -34 -194 -124 -173 -55
12 -55 12 -40 77 5 24 8 45 7 46 -2 2 -190 42 -418 89 -228 47 -424 88 -436
91 -21 5 -21 5 -5 85 14 73 17 81 36 76 11 -3 206 -44 433 -91z m-43 -491
c259 -81 473 -150 478 -153 7 -7 -29 -129 -43 -144 -4 -5 -94 19 -200 52 -106
34 -195 60 -197 57 -2 -2 -12 -31 -22 -64 l-19 -61 72 -21 c102 -31 326 -102
326 -104 -2 -21 -51 -151 -57 -150 -11 2 -784 245 -895 281 l-86 28 24 77 c24
75 25 76 52 68 15 -4 114 -35 221 -69 106 -34 197 -61 201 -61 7 0 53 122 47
125 -1 0 -94 30 -207 64 -113 35 -215 67 -227 72 l-21 8 19 63 c28 91 27 90
46 84 10 -3 230 -71 488 -152z m-11836 -185 c13 -39 19 -75 14 -79 -11 -10
-963 -333 -968 -328 -11 11 -53 144 -47 149 4 3 198 70 432 149 234 79 448
152 475 161 28 10 55 18 61 19 5 0 20 -32 33 -71z m3166 -1289 c-3 -5 -12 -10
-18 -10 -7 0 -6 4 3 10 19 12 23 12 15 0z m-65 -14 c0 -2 -7 -7 -16 -10 -8 -3
-12 -2 -9 4 6 10 25 14 25 6z m-99 -103 c-12 -20 -14 -14 -5 12 4 9 9 14 11
11 3 -2 0 -13 -6 -23z m3322 -24 c-36 -62 -124 -159 -144 -159 -45 0 -118 59
-138 111 -9 25 -8 26 41 37 65 16 77 15 54 -3 -25 -19 -29 -20 89 15 55 16
104 29 108 29 5 1 0 -13 -10 -30z m-3312 -2 c-10 -9 -11 -8 -5 6 3 10 9 15 12
12 3 -3 0 -11 -7 -18z m4849 -68 c0 -21 -82 -151 -138 -218 l-28 -33 -69 65
c-61 59 -67 68 -55 83 12 13 27 15 82 12 64 -5 66 -5 46 12 -21 17 -21 17 23
42 113 66 139 72 139 37z m-4883 -45 c-3 -3 -12 -4 -19 -1 -8 3 -5 6 6 6 11 1
17 -2 13 -5z m-120 -126 c-3 -8 -6 -5 -6 6 -1 11 2 17 5 13 3 -3 4 -12 1 -19z
m2977 -178 c10 -19 36 -56 57 -81 l38 -47 -41 10 c-23 5 -47 8 -55 6 -19 -4
69 -135 152 -225 l67 -73 -45 0 c-24 0 -66 7 -92 15 -27 8 -50 13 -51 12 -9
-8 117 -155 166 -194 32 -26 58 -48 57 -50 -1 -1 -40 3 -85 9 -46 5 -86 7 -89
5 -18 -19 109 -185 182 -238 25 -18 45 -37 45 -42 0 -6 -30 -8 -80 -4 -44 4
-80 4 -80 0 0 -32 119 -168 184 -210 52 -33 35 -44 -68 -42 -46 1 -81 -2 -83
-8 -11 -31 129 -174 221 -228 12 -7 -13 -9 -83 -7 -56 2 -101 0 -101 -4 0 -16
114 -156 161 -198 l50 -45 -71 -7 c-39 -3 -73 -10 -75 -15 -3 -4 18 -35 46
-69 l52 -62 -29 -24 c-16 -13 -32 -23 -36 -24 -5 0 -8 -5 -8 -11 0 -8 23 -10
75 -7 127 8 121 -17 -39 -180 -50 -50 -84 -92 -76 -92 17 0 155 35 183 45 24
10 22 0 -12 -49 -35 -50 -96 -107 -159 -147 l-46 -29 77 0 c77 0 78 0 66 -22
-6 -13 -23 -35 -37 -51 l-26 -27 60 0 c53 0 190 11 709 54 94 8 251 17 350 20
99 4 211 9 248 12 66 6 68 7 51 25 -10 11 -64 47 -121 81 -57 33 -103 64 -103
68 0 4 16 11 35 14 19 4 35 11 35 15 0 4 -36 27 -80 51 -72 39 -81 46 -78 69
4 33 48 49 133 51 l60 1 -30 24 c-33 28 -222 123 -300 151 l-50 19 95 10 c87
9 95 12 98 33 2 13 -24 73 -63 148 -48 90 -64 129 -56 137 6 6 41 18 78 27 37
10 69 22 70 27 2 6 -20 20 -49 33 -87 36 -107 70 -55 86 75 23 127 47 127 59
0 8 -19 27 -42 43 -82 57 -99 92 -63 128 14 14 25 30 24 37 0 7 -23 29 -50 50
-28 21 -48 44 -46 50 3 8 29 11 83 9 75 -3 80 -5 104 -35 14 -17 47 -56 73
-85 27 -30 47 -56 45 -58 -3 -2 -41 12 -86 31 -65 27 -80 31 -73 17 22 -40 67
-92 149 -175 l87 -88 -80 6 c-44 4 -86 8 -92 10 -7 3 -13 0 -13 -5 0 -15 125
-144 170 -175 22 -15 39 -30 37 -32 -3 -2 -52 5 -111 15 -59 11 -106 16 -104
12 2 -4 33 -46 70 -93 60 -77 164 -176 228 -218 22 -15 13 -15 -85 2 -60 11
-119 18 -130 17 -33 -5 142 -174 243 -236 l83 -50 -43 5 c-24 3 -78 11 -121
18 -42 6 -79 9 -82 7 -2 -3 9 -31 26 -63 37 -70 109 -147 175 -189 58 -37 54
-37 -32 -5 -37 14 -69 23 -72 20 -3 -3 11 -23 32 -44 l37 -38 152 -6 c109 -4
231 0 432 15 256 19 295 19 455 7 99 -7 293 -12 445 -11 192 2 294 -2 353 -12
174 -28 129 -50 -238 -116 -175 -32 -366 -50 -520 -50 -162 0 -280 -12 -431
-45 -247 -54 -339 -67 -474 -70 -129 -2 -147 -5 -223 -33 -45 -18 -95 -38
-110 -46 -42 -22 -285 -36 -619 -36 -374 0 -598 13 -706 41 -122 31 -290 36
-533 14 -164 -15 -213 -16 -256 -7 -191 42 -840 65 -919 33 -77 -31 -182 -54
-316 -68 -135 -14 -163 -15 -240 -2 -86 14 -180 15 -808 9 -111 -1 -280 6
-380 14 -99 8 -287 20 -418 26 -130 6 -259 16 -285 21 -26 6 -105 14 -177 18
-71 4 -122 8 -112 9 10 1 37 11 59 22 46 22 162 46 278 58 l75 7 -37 23 c-23
14 -46 42 -62 74 -43 86 -31 171 30 208 l34 21 -31 39 c-27 33 -30 44 -25 74
8 42 53 83 100 92 33 6 99 -16 112 -37 3 -5 18 4 34 21 38 40 99 43 129 5 15
-20 25 -24 44 -20 30 8 57 -16 57 -51 0 -13 5 -24 10 -24 6 0 10 -56 10 -147
0 -82 3 -172 6 -200 l7 -53 54 0 c47 0 54 2 49 18 -11 39 -18 392 -7 392 5 0
22 -10 36 -23 28 -24 50 -100 39 -141 -4 -17 3 -25 38 -41 58 -27 81 -72 73
-143 l-5 -52 80 0 c66 0 78 2 74 15 -4 8 -14 15 -24 15 -24 0 -84 26 -97 42
-19 24 -22 59 -8 103 11 38 11 46 -2 57 -22 18 -53 84 -53 113 0 30 31 95 54
114 9 8 25 33 35 56 22 49 61 80 124 96 91 25 179 -29 193 -116 3 -25 3 -57 0
-71 l-7 -26 27 21 c53 41 92 23 101 -49 5 -38 6 -39 20 -20 31 45 112 64 167
39 34 -16 60 -68 54 -112 -4 -33 -2 -37 34 -50 32 -13 38 -20 38 -44 -1 -15
-7 -39 -15 -53 -19 -34 -18 -48 3 -54 30 -10 47 -51 34 -81 l-12 -25 106 0
c106 0 106 0 99 22 -4 13 -9 48 -12 79 -6 65 10 100 57 119 l30 12 -20 28
c-25 36 -25 64 1 101 36 51 135 62 175 18 9 -10 23 -19 31 -19 10 0 13 -19 13
-78 0 -44 3 -120 7 -171 l6 -92 31 6 c71 14 66 4 66 148 0 134 5 177 21 177
14 0 88 -70 94 -90 3 -10 19 -20 38 -24 52 -10 98 -44 114 -85 l15 -37 156 0
c86 1 267 -7 402 -16 250 -18 626 -23 827 -11 l112 6 -80 85 c-112 120 -109
129 48 134 111 4 122 18 45 57 -33 17 -63 35 -67 40 -3 6 11 13 32 16 46 7
105 35 111 53 2 7 -10 18 -27 25 -17 7 -29 16 -25 19 3 4 -14 17 -38 29 -100
51 -123 82 -66 93 31 6 68 32 68 47 0 17 -48 52 -132 96 -49 25 -88 51 -88 58
0 13 51 25 113 25 25 0 37 4 37 14 0 16 -86 92 -137 121 -18 11 -35 25 -37 31
-13 35 82 85 217 114 31 7 57 16 57 20 0 7 -92 83 -177 146 -29 21 -53 41 -53
44 0 4 28 3 63 -1 89 -11 119 1 80 32 -23 20 -93 109 -93 120 0 5 14 21 30 36
17 14 30 30 30 34 0 4 -26 38 -59 76 -72 84 -97 129 -81 148 6 7 33 16 61 20
27 4 49 10 49 14 0 3 -25 35 -56 70 -63 72 -68 103 -19 111 16 3 31 12 32 20
2 8 -22 44 -52 80 -30 35 -55 70 -55 77 0 20 25 26 49 13 32 -17 36 8 17 109
-10 48 -16 108 -15 134 2 32 -2 52 -15 65 -21 25 -31 80 -21 129 l8 38 22 -70
c12 -38 30 -86 39 -105z m1946 83 c0 -15 -61 -113 -69 -113 -15 0 -41 30 -41
46 0 7 19 27 42 44 39 29 68 38 68 23z m-647 -256 c14 -24 42 -58 62 -76 l36
-31 -58 0 -58 0 -34 105 c-22 71 -31 114 -26 132 6 25 8 24 29 -29 13 -31 35
-76 49 -101z m-177 123 c20 -17 7 -37 -54 -80 -44 -32 -58 -38 -69 -28 -16 13
-73 108 -73 122 0 12 179 -1 196 -14z m829 -90 c7 -11 -8 -42 -36 -79 l-19
-24 0 51 c0 40 4 52 18 55 28 8 31 7 37 -3z m-552 -318 c23 -24 58 -52 77 -63
l35 -20 -30 5 c-87 15 -125 17 -125 10 0 -32 96 -152 164 -206 46 -37 48 -40
21 -34 -52 13 -120 23 -133 18 -8 -2 -6 -15 8 -43 11 -21 19 -39 16 -39 -13 0
-157 74 -167 86 -17 21 -3 44 28 44 21 0 24 3 15 12 -7 7 -12 21 -12 31 0 35
-35 79 -84 108 l-50 28 30 11 c97 35 99 38 57 82 l-27 29 27 25 c15 13 30 36
33 49 6 23 9 21 41 -32 19 -32 53 -77 76 -101z m-4446 -344 c-3 -8 -6 -5 -6 6
-1 11 2 17 5 13 3 -3 4 -12 1 -19z m-150 -200 c-3 -7 -5 -2 -5 12 0 14 2 19 5
13 2 -7 2 -19 0 -25z m-7 -24 c0 -8 -19 -13 -24 -6 -3 5 1 9 9 9 8 0 15 -2 15
-3z m-40 -278 c0 -2 -7 -7 -16 -10 -8 -3 -12 -2 -9 4 6 10 25 14 25 6z m-563
-12 c-3 -3 -12 -4 -19 -1 -8 3 -5 6 6 6 11 1 17 -2 13 -5z"/>
<path d="M8677 14242 c-26 -29 -34 -59 -87 -350 -58 -319 -60 -370 -17 -390
24 -12 31 -11 52 2 32 21 37 42 95 353 55 301 61 376 31 393 -29 15 -56 12
-74 -8z"/>
<path d="M5683 14129 l-31 -9 18 -68 c11 -37 28 -98 38 -137 21 -78 30 -84 86
-61 32 13 36 19 36 52 0 54 -40 194 -62 216 -20 20 -36 21 -85 7z"/>
<path d="M9405 14088 c-17 -46 -75 -249 -75 -262 0 -10 15 -17 47 -22 41 -6
49 -4 65 16 24 30 70 180 66 216 -3 28 -21 42 -76 59 -14 4 -24 2 -27 -7z"/>
<path d="M4245 13280 c31 -74 73 -175 92 -225 20 -49 39 -94 43 -98 11 -12
111 46 105 60 -4 11 -265 364 -287 388 -5 6 16 -51 47 -125z"/>
<path d="M3207 12857 l-27 -22 241 -300 c133 -165 243 -302 244 -304 2 -2 18
7 34 19 39 27 47 59 25 101 -23 44 -365 469 -404 503 -39 32 -76 33 -113 3z"/>
<path d="M2732 5261 c-9 -5 2 -10 33 -14 88 -12 193 -71 241 -134 l26 -35 -38
-40 -39 -40 43 22 c24 12 50 19 57 16 7 -2 20 -24 29 -48 l16 -43 -4 57 -4 57
45 7 c75 11 161 -3 233 -38 36 -18 70 -34 75 -36 6 -3 -10 16 -34 41 -59 62
-128 91 -211 90 -36 0 -78 -6 -95 -13 -26 -10 -31 -9 -40 7 -5 10 -33 41 -62
70 -38 38 -65 56 -104 67 -57 17 -146 21 -167 7z"/>
<path d="M10610 4832 c-21 -7 -16 -10 36 -20 84 -17 157 -55 216 -115 l50 -50
-44 -45 c-24 -25 -36 -41 -27 -34 8 6 32 19 53 27 l37 16 20 -46 c11 -25 22
-45 24 -45 2 0 1 24 -2 53 l-5 54 50 6 c70 8 166 -9 232 -41 30 -14 60 -28 65
-30 6 -2 -13 19 -42 46 -79 76 -169 98 -281 70 -38 -9 -47 -9 -50 2 -11 33
-96 109 -144 130 -55 24 -147 34 -188 22z"/>
<path d="M10140 4540 c-24 -8 -24 -8 6 -9 42 -1 123 -44 164 -86 l34 -35 -30
-31 -29 -31 32 16 c43 21 47 21 60 -11 l11 -28 1 32 c1 26 6 34 27 39 41 10
132 -3 176 -26 55 -28 59 -18 8 19 -68 49 -144 63 -210 37 -10 -3 -24 8 -41
33 -42 60 -149 101 -209 81z"/>
<path d="M11622 4444 c-65 -17 -84 -27 -145 -73 -37 -28 -93 -96 -123 -149 -2
-2 -34 4 -73 14 -88 21 -191 15 -272 -15 -56 -21 -168 -111 -191 -154 -10 -20
-10 -20 23 2 102 67 218 101 344 100 98 -1 141 -10 138 -27 -2 -6 -5 -44 -8
-84 l-6 -73 26 64 c38 97 37 97 113 56 36 -19 67 -33 69 -32 2 2 -23 29 -55
61 l-57 57 75 72 c104 99 172 134 345 173 l30 7 -25 7 c-41 13 -151 10 -208
-6z"/>
<path d="M4520 3976 c-19 -11 -43 -31 -53 -43 -10 -13 -25 -30 -33 -37 -8 -8
-14 -18 -14 -23 0 -12 -64 -53 -84 -53 -35 0 -122 44 -161 82 -23 21 -43 38
-46 38 -3 0 -3 -20 1 -44 4 -25 4 -44 0 -43 -3 1 -21 -13 -39 -31 -18 -18 -50
-41 -70 -52 -78 -42 -102 -81 -82 -134 8 -21 16 -26 30 -21 28 8 32 -12 29
-150 -1 -85 1 -120 10 -123 7 -2 12 -12 12 -22 0 -19 44 -60 64 -60 17 0 56
-63 56 -90 0 -26 -32 -97 -67 -149 -27 -40 -28 -53 -7 -100 19 -42 72 -82 143
-107 70 -25 99 -14 118 46 43 135 65 253 72 390 8 124 13 155 36 209 14 35 27
77 27 92 1 16 4 29 8 29 4 0 10 21 13 48 7 59 31 130 67 203 18 35 26 66 24
85 -4 24 -3 26 5 9 8 -17 10 -14 10 17 1 51 -22 62 -69 34z m-23 -218 c-3 -8
-6 -5 -6 6 -1 11 2 17 5 13 3 -3 4 -12 1 -19z"/>
<path d="M12744 11731 c-99 -68 -456 -354 -477 -383 -17 -23 -19 -33 -11 -55
14 -40 53 -51 98 -27 61 33 510 390 525 418 23 42 5 80 -40 84 -28 2 -48 -6
-95 -37z"/>
<path d="M1570 10697 c0 -7 379 -272 388 -272 11 0 61 100 54 107 -4 4 -97 40
-207 81 -110 41 -208 78 -217 82 -10 4 -18 5 -18 2z"/>
<path d="M977 9555 c-14 -14 -33 -73 -25 -79 1 -2 74 -24 162 -50 87 -26 164
-50 172 -53 8 -3 16 9 24 36 19 70 -1 89 -148 135 -93 29 -163 34 -185 11z"/>
<path d="M13985 9330 c-55 -15 -119 -33 -142 -39 l-41 -11 10 -38 c14 -52 25
-62 67 -62 77 0 220 51 222 79 2 26 -2 63 -9 81 -6 16 -15 15 -107 -10z"/>
<path d="M13740 7555 c0 -50 3 -66 13 -62 7 2 109 17 227 32 118 15 218 31
223 34 4 4 -84 18 -195 30 -112 13 -218 26 -235 28 l-33 6 0 -68z"/>
<path d="M1023 7122 c-122 -26 -220 -48 -218 -51 4 -3 467 -30 472 -27 8 5
-12 126 -21 125 -6 0 -111 -22 -233 -47z"/>
<path d="M14006 6874 c-11 -30 -6 -71 12 -87 37 -33 238 -51 261 -23 7 8 13
34 14 58 l2 43 -105 12 c-151 16 -177 16 -184 -3z"/>
</g>
</svg>
