<?xml version="1.0" standalone="no"?>
<!DOCTYPE svg PUBLIC "-//W3C//DTD SVG 20010904//EN"
 "http://www.w3.org/TR/2001/REC-SVG-20010904/DTD/svg10.dtd">
<svg version="1.0" xmlns="http://www.w3.org/2000/svg"
 width="1600.000000pt" height="1600.000000pt" viewBox="0 0 1600.000000 1600.000000"
 preserveAspectRatio="xMidYMid meet">

<g transform="translate(0.000000,1600.000000) scale(0.100000,-0.100000)"
fill="#000000" stroke="none">
<path d="M773 15882 l117 -117 -243 -240 c-133 -132 -277 -274 -319 -314 l-77
-75 -123 120 -123 119 -3 -34 c-3 -32 5 -42 110 -148 l113 -113 -113 -113
c-100 -100 -112 -116 -112 -147 l0 -35 124 124 125 125 48 -45 c26 -25 86 -83
133 -130 223 -220 902 -889 944 -929 l47 -45 -3 32 c-2 28 -39 69 -225 255
l-222 223 225 229 c124 125 224 235 222 242 -2 9 -95 -75 -227 -203 -123 -120
-230 -222 -238 -227 -12 -6 -51 28 -164 140 -82 82 -149 152 -149 156 0 4 176
182 391 396 259 257 390 394 388 404 -3 12 -131 -107 -408 -378 l-404 -395
-161 158 c-88 87 -163 159 -165 160 -3 2 204 210 460 463 449 444 463 459 429
460 -31 0 -47 -12 -144 -106 l-109 -106 -106 106 c-78 77 -113 106 -131 106
-21 0 -7 -18 93 -118z"/>
<path d="M7850 15606 c217 -216 404 -398 416 -404 19 -10 21 -9 16 16 -3 19
-82 105 -263 287 l-259 260 115 108 c63 60 115 113 115 118 0 29 -47 -3 -142
-98 l-108 -108 -108 108 c-96 95 -111 107 -142 107 -34 0 -23 -13 360 -394z"/>
<path d="M14702 15980 c-14 -13 -22 -33 -22 -52 l0 -32 45 44 c25 24 45 48 45
52 0 16 -47 7 -68 -12z"/>
<path d="M15800 15805 c188 -189 195 -194 198 -165 3 24 -6 41 -37 79 l-40 48
39 38 c26 25 40 48 40 64 0 23 -4 21 -55 -29 l-55 -54 -108 107 c-95 95 -111
107 -142 107 -34 0 -32 -3 160 -195z"/>
<path d="M14933 15487 c-228 -228 -271 -277 -245 -277 5 0 120 109 257 243
136 133 250 241 253 241 4 -2 228 -221 580 -568 189 -188 222 -216 222 -194 0
21 -76 101 -396 417 -218 215 -402 391 -408 391 -6 0 -125 -114 -263 -253z"/>
<path d="M7100 15674 c0 -15 119 -140 388 -407 213 -212 412 -409 442 -438 31
-30 64 -64 75 -77 l19 -23 -149 -149 c-83 -83 -156 -150 -163 -150 -8 0 -147
132 -309 293 -162 160 -296 294 -299 296 -2 2 -4 -4 -4 -15 0 -13 109 -129
296 -314 l295 -295 -83 -79 c-46 -43 -189 -184 -319 -313 -229 -227 -237 -234
-262 -222 -14 6 -33 9 -43 5 -15 -6 -16 -8 0 -24 9 -10 16 -22 16 -25 0 -4
-719 -7 -1598 -7 l-1597 0 1 -97 c1 -118 -6 -141 -53 -173 -20 -14 -52 -43
-72 -64 -20 -22 -44 -48 -54 -58 -10 -10 -22 -29 -27 -41 -12 -26 -32 -60 -41
-67 -4 -3 -9 -21 -12 -41 -4 -32 1 -42 53 -99 43 -48 58 -59 63 -47 4 11 2 14
-9 10 -19 -7 -18 11 1 27 8 7 15 9 15 5 0 -4 6 -2 14 4 11 9 16 9 22 0 5 -8 3
-9 -6 -4 -10 6 -12 4 -7 -9 5 -11 3 -15 -5 -10 -8 5 -9 2 -5 -10 4 -9 3 -14
-2 -11 -5 3 -13 -4 -16 -16 -4 -12 -44 -60 -90 -107 l-83 -85 -13 -118 c-7
-75 -16 -116 -22 -112 -6 4 -8 -5 -4 -24 3 -17 4 -33 1 -35 -2 -3 -6 -54 -7
-113 -2 -66 -8 -110 -14 -112 -7 -3 -9 -32 -5 -85 3 -56 2 -79 -6 -75 -6 5 -8
-1 -5 -14 5 -19 10 -17 51 24 44 44 46 48 45 104 l0 58 4 -53 4 -54 37 28 c20
15 40 33 44 38 5 7 8 5 8 -4 0 -13 1 -13 10 0 5 8 10 10 10 4 0 -18 -28 -37
-41 -28 -9 5 -10 2 -6 -10 4 -10 3 -15 -3 -11 -6 3 -14 -4 -19 -17 -5 -13 -41
-58 -80 -101 -59 -64 -71 -84 -71 -112 0 -18 -6 -36 -12 -38 -10 -4 -10 -6 0
-6 6 -1 12 -6 12 -12 0 -6 38 -52 84 -103 46 -50 84 -94 85 -98 1 -5 1 -14 1
-22 0 -8 7 -22 16 -30 8 -9 11 -16 6 -16 -15 0 -43 36 -35 45 5 4 3 5 -3 2 -6
-4 -27 8 -46 26 -101 94 -127 117 -133 117 -4 0 -3 -6 3 -13 11 -12 10 -77 -4
-259 -4 -48 -10 -86 -13 -83 -6 3 -9 -62 -10 -195 0 -51 3 -58 41 -97 23 -23
46 -39 51 -36 6 3 7 1 3 -5 -3 -6 7 -26 24 -45 16 -19 30 -40 30 -46 0 -7 4
-10 9 -7 11 7 38 -25 38 -46 0 -13 -7 -11 -31 12 -16 17 -42 35 -57 42 -15 7
-26 15 -23 19 2 3 -22 30 -53 58 -62 57 -88 76 -61 44 18 -20 26 -99 9 -89
-10 7 -21 -17 -21 -45 0 -11 5 -17 10 -14 6 4 10 -16 10 -52 0 -41 -3 -54 -10
-43 -8 13 -10 13 -10 -2 0 -9 4 -18 9 -20 6 -2 6 -46 1 -113 -5 -60 -10 -129
-12 -153 -2 -46 -12 -32 162 -214 25 -26 45 -56 46 -67 1 -18 0 -19 -23 -4
-13 9 -22 22 -19 29 3 7 0 16 -6 20 -7 5 -8 2 -3 -7 10 -15 -104 81 -125 106
-7 9 -20 20 -29 25 -14 7 -16 0 -16 -43 0 -29 -4 -65 -9 -82 -6 -22 -5 -26 3
-15 8 11 10 4 6 -30 -3 -25 -10 -112 -15 -195 -7 -97 -15 -152 -23 -157 -9 -6
-9 -8 0 -8 6 0 13 -14 15 -32 l3 -32 84 82 c47 44 89 79 93 76 5 -3 6 -10 2
-15 -3 -6 3 -5 15 3 12 7 21 17 21 22 0 4 -7 3 -15 -4 -30 -25 -13 6 27 50 22
25 35 35 29 22 -7 -12 -11 -33 -9 -45 2 -13 -2 -21 -9 -20 -7 2 -13 -5 -13
-15 0 -9 -56 -73 -125 -141 -108 -109 -124 -128 -118 -149 4 -18 1 -29 -12
-39 -11 -7 -14 -13 -9 -13 15 0 17 -121 3 -273 l-13 -138 44 -44 43 -44 41 39
c22 21 52 48 66 59 14 11 34 28 44 38 11 10 15 12 11 4 -5 -9 -4 -12 3 -7 7 4
12 15 13 24 0 11 2 13 6 4 4 -10 10 -9 27 4 11 10 -26 -29 -82 -88 l-104 -105
37 -37 c20 -20 35 -43 32 -50 -3 -7 -1 -19 5 -27 8 -11 9 -10 4 4 -6 20 5 22
22 5 16 -16 15 -31 0 -22 -9 5 -9 2 1 -9 15 -18 26 -23 16 -7 -3 5 -2 10 4 10
11 0 27 -48 18 -56 -6 -6 -45 28 -161 137 l-80 77 -18 -23 c-19 -25 -24 -50
-8 -40 6 4 10 -22 10 -69 0 -42 -3 -76 -7 -76 -5 0 -9 -39 -9 -87 -3 -208 -5
-233 -14 -233 -6 0 -10 6 -10 13 0 8 -4 7 -10 -3 -8 -13 -14 -8 -12 10 1 10
-37 9 -43 -1 -4 -5 2 -6 11 -2 11 4 15 2 11 -4 -4 -6 2 -18 13 -28 18 -17 25
-14 21 8 -1 5 3 6 9 2 7 -4 7 -13 -1 -27 -8 -15 -8 -19 0 -14 6 4 11 1 11 -6
0 -7 30 -45 68 -84 143 -149 194 -209 160 -188 -7 4 -8 3 -4 -5 4 -6 11 -9 16
-6 4 3 18 -14 30 -38 l22 -42 -46 45 c-27 26 -44 50 -41 58 3 9 0 12 -8 9 -7
-3 -52 34 -102 84 -66 66 -91 85 -93 72 -5 -32 -32 -457 -32 -508 l-1 -51 111
-114 c75 -78 106 -116 98 -121 -8 -5 -21 0 -33 11 -12 11 -24 20 -27 20 -3 0
-42 36 -86 80 -44 44 -82 80 -84 80 -2 0 -4 -14 -4 -31 -1 -29 0 -30 10 -11 9
17 11 -2 11 -88 0 -61 -3 -110 -7 -110 -5 0 -8 -38 -8 -85 0 -47 -3 -85 -7
-85 -5 0 -9 -60 -10 -133 -2 -220 -3 -233 -12 -219 -4 7 -6 -23 -3 -68 4 -71
2 -83 -14 -95 -11 -8 -15 -15 -11 -15 5 0 74 62 153 138 133 127 179 165 159
132 -5 -9 -4 -11 4 -6 6 4 9 11 6 16 -3 4 2 13 10 20 13 11 15 8 12 -19 -3
-24 -22 -51 -75 -104 -64 -64 -72 -77 -74 -112 -1 -38 -1 -38 -5 -7 l-4 33
-85 -85 c-69 -70 -84 -91 -84 -116 0 -17 -4 -29 -9 -26 -5 3 -12 -1 -15 -10
-9 -24 -7 -31 4 -14 8 13 10 13 10 -2 0 -9 -5 -20 -12 -24 -8 -5 -7 -10 3 -18
8 -6 14 -28 14 -48 0 -34 10 -47 112 -150 l112 -113 26 32 c14 18 35 38 46 44
18 9 19 9 10 -9 -6 -11 -8 -21 -6 -24 3 -3 -11 -19 -30 -37 l-35 -32 33 -28
c23 -20 33 -39 35 -62 l3 -34 -37 35 c-102 98 -263 244 -274 248 -4 2 -11 -77
-15 -175 -4 -98 -10 -232 -14 -298 l-7 -120 75 -77 c41 -43 78 -78 82 -78 4 0
10 10 12 23 4 17 5 16 4 -5 -2 -21 14 -45 66 -103 48 -52 66 -79 60 -89 -6
-11 -45 22 -156 130 -81 79 -153 144 -160 144 -9 0 -9 -2 1 -8 15 -10 -1 -275
-17 -280 -6 -2 -11 -8 -11 -13 0 -6 5 -7 10 -4 6 4 10 -17 10 -54 0 -34 -4
-61 -9 -61 -5 0 -8 -15 -7 -32 2 -18 4 -54 5 -79 1 -45 4 -50 122 -170 235
-242 261 -269 245 -263 -9 3 -16 10 -16 15 0 5 -7 9 -15 9 -8 0 -15 5 -15 11
0 5 -4 8 -8 5 -5 -3 -35 20 -68 50 l-59 55 -6 -43 -6 -43 -1 50 -2 51 -117
109 c-65 60 -110 100 -101 89 11 -13 16 -30 12 -49 -3 -21 -2 -26 5 -15 5 8 7
18 4 23 -3 5 0 7 8 5 8 -3 13 -16 13 -29 -1 -13 -2 -40 -4 -59 -1 -27 -3 -31
-9 -16 -4 12 -8 -13 -7 -60 0 -92 0 -99 -16 -386 -6 -119 -14 -215 -17 -213
-3 2 -6 -45 -6 -103 0 -59 -2 -154 -5 -211 -3 -65 -1 -105 5 -107 6 -2 80 64
165 146 128 123 157 146 170 137 13 -10 13 -10 3 4 -11 13 -7 21 22 48 19 17
35 27 35 22 0 -6 -7 -14 -16 -19 -9 -5 -17 -22 -16 -38 0 -21 -19 -47 -82
-112 -44 -46 -80 -88 -78 -93 1 -5 -3 -9 -9 -9 -6 0 -45 -33 -86 -74 l-76 -75
69 -68 c167 -163 226 -231 230 -265 3 -21 19 -48 47 -77 38 -42 -104 93 -293
276 -41 40 -80 73 -86 73 -17 0 -37 -27 -25 -34 6 -4 8 -13 4 -22 -7 -18 -10
-61 -12 -144 -1 -49 -4 -61 -12 -50 -8 11 -9 5 -5 -25 8 -52 -15 -365 -26
-365 -5 0 -8 -16 -6 -35 2 -38 10 -36 55 13 12 13 27 22 33 20 6 -2 53 -45
104 -96 82 -82 100 -94 136 -99 52 -7 44 -13 -82 -54 -51 -17 -97 -35 -103
-40 -12 -12 27 -6 70 11 47 19 90 30 79 22 -5 -5 -54 -26 -109 -47 -114 -44
-128 -52 -86 -52 18 0 28 5 24 10 -4 6 1 8 11 4 11 -4 46 5 88 24 70 31 115
39 138 24 9 -6 11 -4 5 5 -6 10 -4 12 8 7 9 -3 19 -2 22 3 4 6 12 10 18 9 9 0
8 -2 -1 -6 -6 -2 -9 -10 -6 -15 4 -6 3 -9 -2 -6 -5 3 -19 -5 -32 -18 -12 -13
-21 -24 -20 -24 2 0 28 9 58 20 37 14 49 16 35 6 -11 -9 -26 -20 -32 -26 -7
-6 -13 -8 -13 -4 0 4 -9 -1 -20 -11 -10 -9 -26 -15 -35 -11 -9 3 -13 2 -10 -4
3 -6 5 -10 3 -10 -2 0 -42 -16 -88 -35 -78 -33 -749 -297 -970 -382 -52 -20
-246 -96 -430 -169 -184 -73 -414 -162 -510 -199 -96 -37 -294 -113 -440 -170
-146 -56 -381 -147 -522 -201 -142 -55 -258 -104 -258 -111 0 -8 15 -6 48 7
26 11 189 74 362 141 501 193 766 296 1215 473 231 92 472 186 535 211 63 24
291 114 505 199 365 144 443 171 488 168 9 0 17 2 17 6 0 4 20 8 45 8 25 1 45
0 45 -2 0 -2 -17 -13 -38 -24 -27 -15 -30 -19 -12 -15 22 5 23 4 7 -5 -10 -7
-25 -9 -33 -6 -8 3 -13 2 -10 -3 3 -5 -1 -12 -10 -15 -10 -4 -13 -2 -9 7 4 6
0 4 -9 -7 -9 -11 -22 -16 -31 -12 -9 3 -14 2 -11 -3 8 -12 -92 -54 -110 -47
-8 3 -13 2 -10 -3 3 -5 -8 -14 -26 -20 -38 -13 -48 -14 -28 -1 10 7 11 10 2
10 -7 0 -15 -7 -18 -15 -4 -8 -10 -13 -14 -10 -9 6 -123 -36 -116 -42 2 -2 21
3 41 12 21 8 40 14 42 12 2 -2 -26 -16 -62 -32 -36 -15 -64 -30 -61 -32 5 -5
148 50 266 102 117 52 180 75 180 66 0 -5 18 -5 39 -1 47 8 80 -5 38 -15 -15
-4 -24 -11 -21 -16 3 -5 10 -7 15 -4 5 4 9 3 9 0 0 -3 -21 -15 -46 -26 -25
-12 -44 -23 -41 -25 5 -5 87 23 102 36 6 5 28 16 48 25 32 13 36 13 31 0 -4
-8 -10 -13 -14 -10 -5 3 -15 -2 -23 -10 -9 -8 -22 -15 -29 -15 -7 0 -40 -16
-73 -36 -62 -36 -60 -38 10 -9 39 16 40 16 20 -2 -30 -28 -64 -47 -129 -73
-33 -13 -55 -25 -50 -27 6 -2 37 8 69 22 l58 26 21 -21 c20 -20 20 -21 1 -14
-17 7 -18 5 -8 -7 13 -17 12 -17 -260 -143 -106 -49 -136 -59 -73 -23 80 46
82 47 65 47 -27 0 -120 -52 -116 -65 6 -13 -13 -23 -248 -132 -88 -41 -169
-78 -180 -83 -99 -47 -493 -227 -620 -285 -88 -40 -200 -92 -250 -117 -75 -38
-680 -317 -879 -406 -33 -15 -193 -88 -355 -163 -243 -112 -297 -141 -299
-159 -3 -21 -3 -21 49 5 29 15 138 67 243 115 105 48 342 159 526 245 376 177
811 379 1065 495 94 43 285 133 425 200 381 183 702 331 725 333 11 2 30 8 43
15 12 7 26 10 31 8 5 -3 12 1 15 10 3 8 11 12 17 8 6 -3 24 3 40 15 15 11 35
21 42 21 8 0 40 11 71 25 31 14 63 25 70 25 8 0 16 5 18 12 3 9 6 9 11 1 8
-12 -69 -57 -83 -48 -4 3 -10 2 -12 -2 -4 -11 -64 -44 -206 -115 -67 -34 -120
-63 -117 -66 2 -3 32 9 66 26 34 17 66 29 70 26 5 -3 9 -1 9 4 0 13 50 33 62
26 6 -4 8 -3 5 3 -4 6 6 16 21 23 94 44 132 59 132 51 0 -5 -11 -12 -24 -15
-28 -7 -115 -56 -101 -56 6 -1 -6 -9 -25 -20 -19 -11 -28 -19 -20 -19 8 0 26
6 40 14 38 22 45 18 13 -8 -15 -12 -66 -40 -113 -62 -47 -21 -87 -42 -88 -47
-2 -4 -9 -5 -15 -1 -8 5 -8 2 0 -9 7 -8 10 -18 6 -21 -11 -12 3 -8 58 17 30
13 65 26 79 30 25 7 25 7 5 -10 l-20 -17 20 8 c11 4 29 10 40 13 18 5 18 4 5
-9 -8 -8 -32 -23 -52 -34 -21 -10 -36 -21 -34 -23 2 -2 27 8 55 22 65 34 76
33 28 -1 -38 -27 -37 -44 0 -24 15 7 22 5 31 -9 10 -16 9 -18 -5 -13 -10 4
-14 2 -10 -4 7 -12 -40 -36 -54 -28 -5 4 -9 1 -9 -4 0 -6 -6 -11 -13 -11 -7 0
-29 -14 -47 -30 -19 -17 -40 -28 -46 -26 -7 3 -14 2 -16 -2 -2 -4 -27 -18 -55
-31 -29 -14 -51 -26 -49 -29 2 -2 14 1 25 8 14 7 21 7 21 0 0 -5 -5 -10 -12
-10 -6 0 -9 -3 -6 -6 4 -3 46 15 95 40 165 84 191 85 49 2 -111 -66 -172 -114
-86 -68 30 16 92 50 136 75 45 26 88 47 95 46 8 0 4 -5 -8 -11 -15 -7 -22 -19
-21 -34 1 -12 5 -21 9 -18 4 2 9 0 11 -5 1 -5 14 -3 28 5 19 11 20 14 5 10
-30 -8 -50 7 -31 23 13 11 18 10 32 -3 15 -15 19 -15 50 3 19 11 34 16 34 10
0 -5 -16 -17 -35 -25 -19 -8 -35 -18 -35 -22 0 -4 -10 -12 -23 -18 -12 -6 -62
-35 -112 -64 -49 -29 -124 -71 -165 -93 -41 -22 -86 -48 -100 -57 -14 -10 -45
-28 -70 -40 -25 -12 -67 -36 -94 -54 -27 -17 -51 -31 -55 -31 -3 0 -17 -8 -31
-16 -44 -28 -323 -192 -371 -218 -26 -15 -78 -44 -115 -65 -38 -22 -82 -47
-99 -56 -16 -10 -48 -28 -71 -41 -22 -13 -119 -68 -215 -123 -96 -54 -211
-121 -256 -147 -45 -27 -84 -49 -87 -49 -3 0 -43 -22 -88 -49 -46 -26 -148
-84 -228 -128 -80 -44 -180 -101 -223 -127 -43 -25 -82 -46 -86 -46 -4 0 -12
-5 -19 -12 -14 -14 -106 -68 -172 -101 -25 -12 -47 -25 -50 -28 -3 -3 -39 -24
-80 -46 -41 -23 -102 -56 -135 -75 -33 -19 -109 -63 -170 -98 -154 -88 -165
-97 -165 -127 0 -20 3 -23 13 -14 8 6 45 28 83 49 38 22 130 74 204 117 74 43
164 95 200 115 36 20 92 53 125 72 33 19 244 141 470 270 226 129 464 268 530
308 66 40 210 123 320 185 110 62 245 139 300 172 55 33 215 124 355 203 140
79 285 163 323 187 37 24 69 43 72 43 3 0 23 11 44 24 21 14 42 22 45 19 3 -4
6 -2 6 4 0 5 12 15 27 22 l28 13 -28 -26 c-43 -40 -30 -47 15 -8 10 8 35 16
55 18 l38 3 -25 -20 -25 -20 33 16 c43 21 41 3 -3 -20 -19 -11 -32 -21 -30
-23 2 -3 15 2 27 10 38 25 184 101 173 91 -5 -6 -41 -31 -80 -56 -38 -25 -80
-55 -93 -66 -12 -12 -30 -21 -38 -21 -8 0 -12 -4 -9 -10 4 -6 18 -3 38 8 28
15 77 25 77 16 0 -2 -12 -15 -27 -29 -29 -26 -26 -32 8 -15 16 9 18 8 16 -7
-1 -10 -6 -24 -10 -30 -11 -18 23 -16 47 2 11 8 25 15 30 15 6 0 -6 -11 -27
-25 -20 -14 -42 -23 -49 -19 -6 4 -8 3 -5 -3 4 -6 -38 -38 -93 -73 -55 -34
-103 -67 -107 -73 -4 -6 9 -1 28 10 60 37 203 119 224 128 11 5 29 9 40 11 16
1 14 -3 -10 -23 -17 -13 -22 -21 -12 -17 31 11 18 -2 -36 -36 -121 -77 -158
-103 -154 -107 5 -4 59 26 131 75 33 22 55 30 69 26 12 -4 17 -2 13 4 -3 5 2
16 12 23 15 12 15 12 5 -1 -6 -8 -13 -19 -15 -25 -1 -5 -9 -9 -15 -9 -7 1 -11
-2 -8 -6 7 -11 -14 -31 -74 -69 -28 -18 -51 -35 -51 -38 0 -5 54 27 116 68 23
16 45 25 48 21 4 -3 11 -1 15 6 4 8 14 14 22 15 8 2 20 6 27 10 15 10 16 -5 0
-21 -15 -15 -31 -16 -22 0 4 7 3 8 -5 4 -6 -4 -9 -12 -6 -17 4 -5 -8 -21 -24
-35 -17 -14 -29 -30 -26 -34 3 -5 -7 -18 -22 -30 -17 -12 1 -7 44 15 40 20 78
33 84 30 6 -4 15 -1 20 6 6 9 7 4 3 -15 -5 -23 -4 -28 7 -22 8 4 3 -1 -11 -11
-13 -10 -36 -29 -50 -41 -21 -20 -17 -19 31 7 31 17 60 27 64 23 5 -4 5 -2 2
5 -4 7 13 23 43 42 60 37 66 33 10 -8 -21 -15 -37 -31 -33 -34 3 -4 0 -14 -8
-24 -9 -11 -10 -14 -1 -9 21 13 13 -7 -15 -38 l-28 -29 40 23 40 24 -20 -24
c-25 -28 -222 -182 -229 -178 -3 2 -11 -4 -18 -13 -7 -9 -146 -115 -308 -236
-988 -736 -1048 -780 -1389 -1032 -99 -73 -181 -135 -181 -137 0 -2 12 -4 28
-4 21 0 112 63 362 252 184 139 616 463 960 722 818 614 847 635 834 602 -5
-12 3 -15 39 -13 25 1 44 6 44 11 -1 5 4 11 11 13 7 3 10 -1 6 -10 -4 -11 5
-17 33 -22 21 -5 44 -7 51 -6 6 1 12 -8 12 -20 0 -15 4 -19 16 -15 9 3 27 9
40 12 20 5 23 3 18 -11 -8 -19 6 -17 73 11 28 11 37 11 60 -1 14 -8 31 -12 35
-9 16 10 68 16 68 8 0 -4 -8 -16 -17 -27 -17 -18 -16 -18 22 2 48 24 107 34
117 18 4 -7 11 -7 21 2 9 7 18 8 21 3 3 -5 17 -7 31 -4 15 2 25 0 25 -7 0 -6
9 -11 21 -11 12 0 17 -4 13 -11 -3 -6 4 -5 17 2 13 8 29 15 34 15 6 1 12 3 15
4 23 8 55 8 60 0 5 -8 15 -8 35 0 21 8 30 8 35 -1 5 -7 10 -7 13 -1 4 5 28 8
54 7 27 -1 58 1 69 6 26 9 64 1 64 -14 0 -6 -8 -20 -17 -31 -11 -12 -4 -9 16
7 23 20 37 25 44 18 11 -11 16 -6 -299 -336 -100 -104 -196 -208 -215 -230
-43 -50 -250 -274 -525 -565 -116 -124 -241 -256 -277 -295 l-65 -70 41 -3
c39 -3 45 0 92 50 114 121 302 325 470 508 98 107 246 267 329 355 84 88 208
223 277 300 68 77 162 178 209 226 l85 86 65 -5 c36 -2 66 -8 68 -13 2 -5 13
-2 25 5 13 8 30 11 42 6 11 -4 31 -4 45 -1 14 4 31 6 38 5 6 -1 17 -2 23 -3 5
0 8 -5 5 -10 -7 -11 13 -9 31 2 7 5 34 8 60 7 27 0 55 0 63 1 8 0 96 0 195 -1
99 0 207 0 239 0 37 0 62 -4 67 -12 6 -9 13 -9 34 0 17 8 32 9 39 3 12 -10 95
-12 111 -3 5 3 45 7 87 7 92 2 94 0 44 -89 -18 -34 -62 -115 -96 -181 -35 -66
-110 -208 -168 -315 -138 -255 -144 -267 -208 -390 -30 -58 -72 -139 -95 -180
-22 -41 -56 -106 -76 -143 -19 -37 -52 -98 -74 -135 -21 -37 -39 -70 -39 -74
0 -5 22 -8 49 -8 44 0 51 3 64 28 8 15 93 182 190 372 96 190 236 464 311 609
75 145 136 266 136 269 0 15 93 191 115 217 20 25 24 27 25 11 0 -19 0 -19 21
0 18 16 35 18 136 16 64 -2 120 -5 124 -8 5 -3 15 -2 21 3 20 11 52 9 66 -5 8
-7 18 -10 23 -7 5 4 9 -2 9 -12 1 -16 3 -15 20 5 22 26 74 39 94 23 10 -8 26
-9 54 -2 35 7 44 6 58 -10 16 -18 18 -18 37 -2 14 12 21 14 24 6 3 -8 13 -7
34 5 28 16 31 16 43 0 11 -14 15 -15 27 -4 22 22 79 9 80 -18 0 -21 1 -21 10
-1 9 19 54 28 124 26 11 -1 42 -1 69 -1 27 0 54 -4 60 -9 16 -13 46 -8 84 12
19 10 32 13 32 7 0 -6 5 -8 11 -5 5 4 21 4 35 1 22 -6 24 -11 24 -60 0 -83
-103 -877 -135 -1041 -8 -44 -20 -146 -25 -227 -5 -81 -12 -159 -16 -173 -6
-24 -5 -25 49 -25 l54 0 7 52 c4 29 11 114 16 188 11 161 56 628 69 720 6 36
13 92 16 125 4 33 8 76 10 95 2 19 9 91 16 160 13 141 21 169 46 171 10 1 41
3 68 5 74 5 179 6 275 3 47 -1 95 1 108 5 13 5 28 3 36 -3 10 -8 22 -8 41 -1
15 6 31 7 37 4 13 -8 86 -9 93 -2 11 11 131 -4 146 -18 20 -18 27 -18 32 4 3
13 7 10 17 -13 13 -28 14 -29 17 -7 8 41 57 50 94 16 17 -16 19 -16 19 -1 0
21 50 23 68 5 10 -10 15 -10 21 1 7 11 15 11 39 3 17 -6 33 -7 37 -4 4 4 42 7
85 7 90 0 86 4 119 -114 11 -36 31 -106 46 -156 57 -192 117 -403 131 -460 21
-81 26 -101 67 -235 19 -63 44 -149 55 -190 45 -167 65 -238 84 -298 l20 -62
44 0 c24 0 44 4 44 9 0 4 -8 35 -19 67 -10 33 -33 109 -51 169 -18 61 -60 202
-95 315 -35 113 -71 232 -80 265 -9 33 -31 107 -50 165 -18 58 -52 166 -75
240 -23 74 -50 161 -61 193 -20 61 -24 97 -10 97 5 0 16 -15 25 -32 15 -33 18
-32 20 7 1 15 8 20 31 20 17 0 35 3 40 6 6 4 19 5 30 3 11 -3 27 -4 35 -4 8 0
51 0 95 -1 44 0 89 0 100 0 295 3 337 2 349 -8 9 -7 16 -7 24 1 9 9 20 9 46 0
28 -10 39 -10 56 0 17 11 25 10 48 -3 24 -13 30 -14 41 -2 8 9 17 11 24 5 20
-16 87 -20 87 -5 0 12 43 18 110 15 14 -1 55 -2 92 -2 67 -1 68 -1 101 -43 19
-23 56 -73 82 -112 27 -38 64 -92 84 -120 19 -27 55 -79 80 -115 24 -36 56
-81 70 -101 14 -20 80 -114 146 -210 337 -487 538 -774 558 -796 28 -31 113
-34 113 -4 0 11 -3 18 -7 15 -4 -2 -18 10 -30 28 -13 18 -75 103 -139 189 -63
86 -152 208 -197 270 -45 63 -124 170 -174 239 -50 68 -134 188 -187 265 -53
77 -110 158 -127 180 -18 22 -73 97 -124 168 -101 142 -113 167 -61 134 16 -9
22 -9 28 0 6 9 55 12 177 12 205 0 239 -2 258 -18 16 -12 38 -12 48 2 3 4 18
-2 32 -13 18 -14 25 -16 21 -7 -8 23 15 31 35 13 22 -20 61 -21 61 -2 0 9 7
12 19 9 10 -3 30 2 42 9 13 8 29 14 34 13 51 -8 94 -18 113 -25 15 -7 22 -6
22 1 0 6 6 9 14 6 8 -3 16 -1 18 4 4 12 165 15 226 5 23 -4 48 -4 55 1 7 5 18
8 25 7 6 -1 26 -2 42 -3 30 -1 94 -52 265 -210 60 -56 165 -152 364 -331 58
-52 139 -127 181 -166 41 -39 127 -115 190 -169 63 -55 117 -102 120 -105 5
-6 141 -131 350 -321 249 -226 239 -219 300 -219 l55 1 -70 64 c-38 36 -69 69
-67 75 1 7 -2 9 -8 5 -6 -3 -34 16 -63 42 -156 146 -216 201 -248 228 -145
120 -192 160 -278 235 -53 47 -190 167 -306 265 -115 99 -280 243 -366 320
-85 77 -185 166 -222 198 -37 32 -67 63 -67 68 0 5 11 9 24 9 14 0 27 4 31 9
3 6 20 4 40 -5 19 -8 35 -10 35 -5 0 17 48 21 88 7 38 -14 40 -13 45 5 7 28
88 24 145 -7 36 -20 41 -21 34 -6 -12 24 -9 48 6 45 7 -2 12 1 12 6 0 23 75
-1 138 -44 54 -37 60 -39 32 -13 -19 18 -34 36 -32 41 1 5 -2 6 -7 2 -9 -5
-31 24 -31 40 0 4 30 -10 68 -30 l67 -37 -35 32 c-21 19 -28 29 -17 26 13 -4
20 0 24 13 4 16 11 19 37 15 l31 -6 -28 26 c-21 19 -24 26 -12 26 10 0 13 4 8
12 -4 7 5 5 21 -5 42 -28 43 -13 1 19 -33 25 -72 76 -46 60 21 -13 11 13 -11
28 -21 15 -21 16 -3 17 11 0 14 3 7 6 -6 2 -9 10 -6 15 4 6 3 9 -2 5 -5 -3
-23 6 -39 20 -17 14 -25 23 -19 20 6 -4 11 0 11 8 0 8 -3 14 -6 13 -19 -2 -44
4 -33 9 9 3 7 12 -9 34 -11 16 -25 29 -31 29 -13 0 -98 88 -98 102 0 5 -4 7
-9 4 -5 -3 -15 2 -22 12 -13 15 -12 16 3 4 10 -8 19 -9 22 -3 3 5 -6 19 -21
31 -16 12 -21 18 -13 14 27 -13 50 -36 44 -45 -3 -5 0 -9 5 -9 6 0 11 6 11 13
0 9 2 9 9 -1 4 -8 12 -13 17 -12 5 1 10 -3 12 -9 2 -6 -3 -9 -10 -6 -9 4 -15
0 -15 -9 0 -8 3 -13 7 -11 3 2 37 -23 76 -56 95 -84 142 -107 72 -37 -29 29
-56 52 -60 50 -5 -2 -8 5 -8 15 0 15 -2 16 -10 3 -9 -15 -11 -14 -14 13 -1 6
-8 11 -16 9 -12 -3 -12 -1 -3 9 10 10 20 7 50 -13 81 -54 270 -176 300 -193
18 -10 30 -22 27 -27 -3 -5 -2 -8 3 -7 19 3 34 -2 29 -9 -3 -5 0 -9 7 -9 14 0
248 -151 802 -518 209 -139 518 -343 687 -455 176 -116 305 -207 301 -213 -3
-6 -1 -7 5 -3 7 4 107 -56 234 -140 123 -81 261 -172 308 -202 47 -30 145 -95
217 -143 125 -84 136 -89 185 -89 l53 0 -100 64 c-55 36 -192 125 -305 199
-292 192 -485 317 -558 363 -34 21 -132 84 -217 139 -85 55 -203 131 -262 169
-60 38 -139 90 -178 114 -38 25 -190 124 -337 221 -147 97 -296 194 -330 215
-195 122 -787 520 -783 526 3 4 -3 7 -13 6 -9 0 -16 4 -15 11 2 7 -3 10 -11 7
-8 -3 -17 0 -22 7 -5 8 -3 10 7 5 8 -4 5 0 -5 8 -11 9 -25 16 -30 16 -6 0 -5
4 3 9 16 11 50 -4 118 -50 45 -31 53 -34 53 -19 0 5 -6 9 -12 7 -7 -1 -12 3
-11 10 2 8 -4 10 -14 6 -10 -4 -14 -2 -10 4 9 14 -40 46 -55 37 -6 -4 -8 -3
-5 3 4 6 0 14 -9 17 -9 4 -14 9 -11 12 5 5 127 -56 152 -76 22 -18 116 -70
111 -62 -3 5 -48 37 -101 72 -52 34 -95 67 -95 72 0 5 -4 7 -9 4 -5 -3 -30 15
-57 40 -42 39 -45 43 -19 32 47 -21 136 -68 177 -94 21 -13 44 -24 52 -24 7 0
73 -36 146 -80 73 -44 135 -78 137 -76 3 2 -5 9 -16 16 -35 18 -13 32 22 14
68 -34 5 8 -143 98 -85 51 -181 114 -213 138 -32 25 -88 64 -124 87 -78 50
-78 50 -53 48 11 -1 23 -4 26 -8 4 -4 12 -7 17 -7 5 0 -3 10 -19 22 -46 34
-49 38 -26 33 12 -2 76 -34 143 -70 67 -36 123 -64 125 -62 2 2 -55 36 -127
77 -101 57 -126 76 -114 83 9 5 23 6 30 3 8 -3 17 0 21 7 4 7 4 9 -1 5 -4 -4
-13 0 -20 8 -6 9 -31 26 -55 38 -24 11 -45 27 -46 34 -1 7 0 8 3 2 2 -5 19
-10 36 -10 18 0 76 -22 132 -50 55 -27 91 -43 80 -34 -11 9 -55 33 -97 55 -42
21 -80 43 -83 49 -14 22 4 21 42 -2 58 -36 231 -117 237 -111 2 3 22 -4 43
-15 75 -40 198 -92 178 -76 -11 9 -33 22 -50 30 -34 16 -67 36 -75 45 -3 3
-41 20 -85 39 -75 31 -125 56 -220 109 -56 32 -67 43 -57 53 9 9 118 -17 187
-46 21 -9 163 -81 315 -160 499 -260 553 -288 795 -411 132 -67 265 -135 295
-152 30 -17 136 -72 235 -123 298 -153 488 -252 525 -273 35 -20 342 -179 765
-397 121 -62 224 -117 229 -121 17 -15 26 -10 26 14 -1 18 -26 35 -162 102
-262 131 -720 364 -913 467 -99 52 -387 200 -640 328 -253 128 -494 252 -535
275 -41 23 -138 73 -215 110 -77 38 -219 110 -315 161 -96 50 -242 126 -325
169 -82 42 -142 74 -132 71 42 -13 10 8 -75 50 -51 24 -111 59 -133 77 -22 17
-46 32 -53 34 -8 1 -23 11 -34 22 -10 12 -24 18 -30 15 -7 -4 -8 -2 -4 4 8 13
56 -4 56 -20 0 -4 4 -7 8 -6 7 3 37 -10 105 -44 11 -5 22 -7 25 -4 3 3 0 6 -7
6 -7 0 -10 4 -7 8 3 5 -16 18 -41 31 -25 12 -43 24 -40 27 3 3 14 1 25 -5 25
-13 35 -14 27 -2 -3 5 9 3 25 -6 44 -21 47 -10 5 18 -19 13 -35 27 -35 31 0 4
-6 5 -13 2 -7 -2 -21 2 -31 9 -17 12 -17 14 -3 20 10 4 16 2 14 -5 -1 -6 4
-13 12 -16 9 -3 11 0 6 8 -5 8 -4 11 2 7 5 -3 22 -8 38 -11 16 -3 32 -11 37
-18 4 -7 8 -8 8 -3 0 6 6 3 13 -6 7 -9 46 -32 87 -52 203 -97 310 -145 306
-139 -2 4 -36 23 -75 41 -38 19 -67 39 -64 44 3 6 1 7 -6 3 -10 -6 -127 48
-141 65 -3 4 -29 18 -57 33 -29 14 -53 29 -53 31 0 3 41 -15 91 -41 50 -25 93
-43 95 -41 3 2 -53 34 -123 70 -168 88 -194 105 -88 63 38 -16 35 -10 -12 21
-31 22 35 4 90 -24 27 -13 51 -22 54 -20 2 3 -45 29 -106 58 -61 28 -111 56
-111 61 0 5 -5 6 -12 2 -7 -4 -8 -3 -4 5 4 6 17 9 29 6 15 -4 12 0 -8 11 -16
9 -35 23 -43 30 -7 8 -21 14 -30 14 -12 0 -13 3 -5 11 8 8 17 6 34 -9 12 -12
25 -19 29 -17 5 3 44 -15 89 -40 45 -25 84 -45 86 -45 3 0 39 -16 81 -36 98
-46 115 -40 21 8 -97 49 -211 103 -217 102 -3 -1 -13 7 -22 17 -23 24 -17 24
29 -1 21 -11 45 -20 54 -20 8 0 19 -3 23 -7 4 -5 11 -8 14 -8 15 -1 122 -49
122 -55 0 -4 6 -7 13 -7 7 0 94 -34 193 -76 446 -189 537 -228 586 -251 29
-14 85 -37 123 -51 39 -15 111 -44 160 -66 50 -22 119 -53 155 -69 114 -51
220 -96 400 -170 96 -40 301 -127 455 -195 154 -67 325 -141 380 -163 55 -22
183 -77 284 -121 102 -45 188 -81 193 -81 4 0 56 -22 116 -50 60 -27 112 -50
116 -50 3 0 6 6 6 13 0 8 -44 32 -97 54 -313 130 -418 175 -508 215 -55 25
-217 94 -360 153 -143 59 -321 134 -395 167 -74 33 -162 70 -195 83 -33 12
-91 37 -128 54 -38 17 -112 49 -165 70 -54 21 -133 55 -177 76 -44 20 -190 82
-325 137 -135 55 -279 116 -320 135 -41 19 -145 63 -230 98 -211 87 -344 148
-482 223 -64 34 -125 62 -135 62 -10 0 -24 4 -32 9 -10 6 -1 9 27 8 23 -1 42
-6 42 -11 0 -4 7 -6 15 -2 8 3 15 1 15 -5 0 -6 4 -7 10 -4 5 3 49 -10 97 -29
133 -53 234 -88 239 -83 3 2 -19 14 -48 27 -29 12 -57 28 -63 36 -8 11 -128
67 -188 88 -10 3 -15 10 -12 16 3 6 -1 7 -10 4 -10 -4 -14 -2 -10 8 7 18 61
16 95 -2 17 -9 25 -9 34 1 7 8 7 10 0 6 -13 -7 -74 14 -74 25 0 4 5 8 12 8 6
0 8 3 5 6 -4 4 -13 2 -21 -5 -10 -9 -20 -9 -40 0 -27 13 -37 36 -11 25 20 -8
42 -14 32 -9 -4 3 -5 8 -2 13 6 9 47 0 86 -20 l24 -11 -24 19 -24 19 54 2 c54
1 113 -19 549 -181 58 -22 193 -71 300 -110 107 -38 245 -88 305 -110 61 -22
290 -105 510 -185 220 -79 479 -173 575 -208 96 -35 330 -121 520 -190 190
-70 387 -142 438 -160 50 -19 92 -30 92 -25 0 12 -46 32 -170 75 -52 18 -144
51 -205 73 -176 66 -687 250 -840 302 -77 27 -214 77 -305 110 -91 34 -264 97
-385 140 -446 159 -1266 458 -1272 464 -4 3 14 6 39 6 40 0 50 5 76 34 17 19
32 33 34 30 3 -2 1 22 -3 53 -4 32 -10 101 -14 154 l-7 96 -230 233 c-210 213
-258 256 -258 229 0 -5 -7 -9 -16 -9 -8 0 -13 -4 -10 -8 3 -5 -7 -21 -23 -36
-23 -22 -30 -24 -34 -12 -6 15 15 40 25 31 3 -3 13 7 23 22 50 76 45 77 150
-26 59 -58 99 -90 106 -85 7 4 9 3 6 -3 -5 -8 231 -248 264 -268 8 -6 7 28 -2
35 -3 3 -13 111 -23 240 -9 129 -18 260 -20 290 -4 40 -2 47 3 25 l9 -30 1 28
c0 15 1 29 1 32 0 3 -3 5 -7 4 -4 0 -10 6 -13 14 -3 8 -97 110 -209 226 l-205
211 -21 -20 c-12 -11 -25 -17 -29 -13 -4 5 -6 3 -4 -3 5 -17 -59 -67 -68 -53
-8 14 33 52 47 43 5 -3 6 1 4 8 -3 8 10 29 30 48 l35 34 56 -54 c31 -30 66
-64 79 -75 12 -11 81 -77 152 -148 71 -70 133 -127 136 -127 4 0 4 7 1 15 -4
8 -2 15 4 15 6 0 13 -6 15 -12 4 -10 6 -10 6 0 1 8 -8 16 -19 19 -17 4 -20 14
-20 55 0 27 4 47 9 44 10 -7 1 47 -10 54 -4 3 -12 95 -18 205 -6 110 -13 212
-16 228 -2 15 0 27 5 27 6 0 10 5 10 11 0 5 -4 8 -9 4 -5 -3 -11 1 -13 10 -4
21 -209 226 -219 219 -5 -3 -9 2 -9 11 0 14 -126 144 -140 145 -3 0 -32 -26
-64 -57 -57 -56 -58 -56 -70 -35 -7 13 -16 19 -21 15 -4 -4 -5 -2 -1 5 4 7 12
10 17 7 5 -4 9 -1 9 5 0 6 24 33 53 60 50 46 51 49 35 67 -10 11 -18 25 -18
31 0 7 -3 12 -8 12 -18 0 -63 53 -57 67 4 13 3 13 -8 4 -12 -9 -13 -7 -10 13
3 15 11 23 21 22 21 -4 27 -23 11 -42 -10 -12 -10 -15 2 -12 8 2 13 -2 12 -9
-2 -8 4 -10 14 -6 13 5 15 2 9 -13 -6 -16 -5 -17 6 -6 11 11 9 16 -12 32 -14
11 -19 20 -13 20 7 0 31 -16 53 -37 l41 -36 170 169 c147 147 196 202 159 179
-6 -4 -6 3 0 21 7 18 7 30 -1 40 -6 7 -10 41 -8 76 1 35 -2 71 -6 81 -4 10 -5
57 -1 104 4 60 3 82 -5 78 -7 -5 -10 19 -7 78 2 47 0 83 -4 80 -5 -2 -8 11 -8
29 0 29 -18 51 -145 179 l-144 146 -53 -46 c-29 -25 -65 -59 -80 -74 -24 -24
-28 -25 -25 -8 2 11 38 57 81 102 l77 81 116 -113 c64 -63 129 -127 146 -143
l29 -29 -6 29 c-3 16 -8 108 -11 205 -2 97 -7 183 -11 192 -3 8 -4 56 -2 105
2 50 0 88 -4 85 -5 -2 -8 4 -8 14 0 13 -157 181 -243 260 -4 3 -22 -7 -40 -23
-17 -17 -52 -46 -77 -64 -25 -19 -48 -39 -52 -45 -5 -6 -8 -3 -8 6 0 9 16 27
35 40 19 13 35 29 35 34 0 6 22 33 49 59 l50 49 58 -51 c32 -28 78 -71 103
-97 48 -50 137 -123 107 -88 -16 18 -20 50 -27 220 -5 109 -9 205 -9 213 0 8
-3 60 -7 115 -7 97 -7 100 12 85 18 -14 18 -14 5 5 -8 11 -55 62 -105 112 -63
65 -93 89 -98 80 -7 -9 -8 -8 -7 3 3 20 -11 50 -23 50 -6 0 -41 -29 -79 -64
-62 -57 -121 -94 -102 -63 4 7 8 17 9 22 0 6 2 16 2 23 2 14 33 12 45 -3 4 -5
5 2 3 17 -3 19 3 33 21 50 14 12 34 36 45 51 l20 28 -56 56 c-31 31 -53 60
-49 67 3 6 3 8 -2 4 -4 -4 -14 -3 -22 3 -11 10 -11 15 -1 28 11 14 11 14 -3 4
-13 -11 -19 -9 -35 9 -10 12 -13 18 -6 14 8 -5 12 0 12 14 0 13 5 20 13 17 6
-2 11 -12 10 -21 0 -10 1 -15 4 -12 7 7 44 -22 112 -87 49 -48 54 -50 66 -33
8 10 11 25 8 34 -3 12 -2 13 4 5 6 -9 32 10 88 65 44 42 89 88 100 102 l20 25
-26 -23 -25 -22 0 109 c1 63 -3 107 -8 103 -6 -3 -7 32 -3 87 4 51 3 90 -1 87
-9 -5 -35 405 -31 481 2 39 -2 46 -66 112 -38 39 -72 71 -76 71 -5 0 -36 -27
-70 -60 -34 -32 -67 -56 -72 -53 -6 3 -7 1 -4 -4 9 -14 -29 -47 -44 -37 -7 4
-10 3 -5 -4 3 -6 2 -13 -4 -17 -5 -3 -10 -1 -10 6 0 8 -4 8 -17 -1 -10 -7 -5
0 11 15 22 20 31 24 37 13 6 -9 9 -7 9 9 0 15 30 52 86 109 l87 86 68 -68 c38
-38 69 -63 69 -56 0 8 5 10 12 6 7 -4 8 -3 4 5 -4 6 -12 8 -18 5 -7 -5 -9 11
-6 50 3 31 2 52 -2 46 -9 -14 -23 272 -14 293 3 10 1 17 -5 17 -7 0 -11 27
-11 74 0 89 6 112 26 95 9 -7 14 -8 14 -1 0 16 -26 22 -40 9 -10 -10 -10 -8
-2 8 9 17 2 28 -43 74 l-53 54 -61 -52 c-34 -29 -61 -56 -61 -60 0 -13 -42
-33 -52 -23 -5 5 27 45 82 102 l91 93 44 -43 c29 -29 44 -38 48 -28 3 10 9 8
21 -7 17 -20 17 -19 6 3 -8 15 -17 21 -27 18 -13 -5 -14 -4 -4 8 7 8 10 20 7
25 -4 5 -2 12 4 16 14 9 12 25 -3 25 -11 0 -16 29 -21 118 -3 65 -3 133 0 151
5 25 4 32 -4 27 -9 -5 -12 8 -13 46 -4 201 -8 231 -31 255 -12 13 -25 22 -30
21 -4 -2 -38 -32 -75 -68 -38 -36 -80 -76 -95 -88 l-26 -24 -12 22 c-11 20 -4
30 79 115 50 51 91 96 91 101 0 9 -28 39 -154 172 -49 51 -57 65 -46 73 10 6
11 12 5 17 -5 4 -11 13 -13 21 -3 13 137 -116 202 -186 33 -37 42 -39 66 -18
14 13 15 30 3 182 -13 162 -13 259 2 296 5 13 3 16 -7 12 -12 -5 -16 12 -22
94 -4 54 -4 112 0 127 5 19 4 25 -5 20 -8 -5 -11 12 -11 59 0 47 3 64 12 59 7
-4 8 -3 4 5 -4 6 -12 9 -18 5 -6 -4 -9 8 -7 32 1 22 -1 55 -4 74 -7 40 -16
141 -17 183 0 27 -3 26 -81 -45 -44 -40 -87 -73 -94 -73 -7 0 -17 -4 -22 -9
-5 -5 -2 -6 6 -1 9 5 12 3 9 -6 -3 -8 -11 -13 -17 -12 -6 2 -11 -2 -11 -7 0
-6 -4 -10 -9 -10 -18 0 2 40 37 73 21 19 68 67 106 107 l69 72 -18 167 c-20
194 -19 181 -10 204 4 9 3 17 -3 17 -5 0 -13 36 -17 80 l-7 80 -75 -70 c-41
-38 -78 -70 -82 -70 -18 0 -5 33 26 69 18 22 33 44 33 51 0 6 4 9 8 6 5 -3 23
10 41 28 29 30 33 41 34 94 1 34 -2 55 -6 49 -5 -7 -6 2 -3 20 3 21 0 35 -11
44 -12 10 -14 25 -9 64 4 34 2 45 -4 35 -8 -13 -10 -12 -10 3 0 10 -9 36 -20
58 -12 22 -18 44 -15 49 3 6 1 10 -5 10 -7 0 -9 8 -5 20 5 15 3 18 -9 14 -9
-3 -16 -2 -16 4 0 6 6 13 13 15 6 3 0 6 -15 6 -35 1 -36 17 -3 47 14 13 25 26
25 30 0 4 -13 -5 -30 -21 -22 -21 -31 -25 -35 -14 -3 8 -4 78 -2 157 1 89 -2
142 -8 142 -5 0 -4 4 3 9 8 4 13 12 13 17 -1 5 -930 11 -2201 14 l-2200 5 240
241 c133 133 243 251 245 264 6 29 -20 6 -310 -282 l-230 -228 -330 1 -330 0
583 577 c320 317 583 583 582 590 0 7 4 11 9 7 5 -3 13 0 17 7 10 15 16 68 8
68 -3 0 -55 -50 -117 -110 -61 -61 -115 -109 -118 -108 -10 4 -752 730 -861
843 -68 70 -88 85 -88 69z m-3263 -2081 c-3 -10 -5 -2 -5 17 0 19 2 27 5 18 2
-10 2 -26 0 -35z m8310 -65 c-2 -18 -4 -6 -4 27 0 33 2 48 4 33 2 -15 2 -42 0
-60z m20 60 c-3 -8 -6 -5 -6 6 -1 11 2 17 5 13 3 -3 4 -12 1 -19z m-8330 -50
c-3 -7 -5 -2 -5 12 0 14 2 19 5 13 2 -7 2 -19 0 -25z m30 -130 c-2 -29 -3 -8
-3 47 0 55 1 79 3 53 2 -26 2 -71 0 -100z m8300 50 c-3 -8 -6 -5 -6 6 -1 11 2
17 5 13 3 -3 4 -12 1 -19z m-6 -27 c7 11 9 9 9 -7 0 -12 -7 -27 -15 -34 -13
-11 -15 -7 -14 31 1 26 4 34 6 20 4 -19 7 -21 14 -10z m-341 -2791 c1 -6176 0
-8634 -4 -8638 -3 -2 -883 -3 -1958 -3 -1074 1 -2792 1 -3818 1 l-1865 0 2
4158 c1 2286 3 4842 3 5678 l0 1521 3820 -1 3820 -1 0 -2715z m-7953 2643 c-2
-16 -4 -5 -4 22 0 28 2 40 4 28 2 -13 2 -35 0 -50z m-60 -25 c-3 -8 -6 -5 -6
6 -1 11 2 17 5 13 3 -3 4 -12 1 -19z m31 -80 c0 -46 3 -93 7 -105 5 -15 3 -23
-4 -23 -6 0 -12 11 -12 25 -1 14 -2 31 -3 38 -1 6 -5 15 -11 19 -6 5 -6 8 1 8
6 0 10 21 9 53 -1 49 1 67 10 67 2 0 4 -37 3 -82z m-117 -61 c-10 -9 -11 -8
-5 6 3 10 9 15 12 12 3 -3 0 -11 -7 -18z m8526 -69 c-3 -7 -5 -2 -5 12 0 14 2
19 5 13 2 -7 2 -19 0 -25z m-8409 -90 c1 -46 -3 -90 -8 -98 -7 -12 -8 97 -1
168 3 34 7 3 9 -70z m8359 25 c-3 -10 -5 -4 -5 12 0 17 2 24 5 18 2 -7 2 -21
0 -30z m65 -8 c3 -13 1 -22 -3 -19 -9 5 -13 44 -5 44 2 0 6 -11 8 -25z m6 -81
c-3 -27 -4 -26 -9 8 -3 22 -1 34 4 29 5 -5 7 -21 5 -37z m-73 27 c3 -5 1 -12
-5 -16 -5 -3 -10 1 -10 9 0 18 6 21 15 7z m-8628 -83 c-3 -7 -5 -2 -5 12 0 14
2 19 5 13 2 -7 2 -19 0 -25z m260 -315 c-1 -54 -3 -12 -3 92 0 105 2 149 3 98
2 -51 2 -136 0 -190z m-270 230 c-3 -10 -5 -4 -5 12 0 17 2 24 5 18 2 -7 2
-21 0 -30z m8730 -50 c-3 -10 -5 -4 -5 12 0 17 2 24 5 18 2 -7 2 -21 0 -30z
m-8740 -60 c-3 -10 -5 -2 -5 17 0 19 2 27 5 18 2 -10 2 -26 0 -35z m313 -83
l-7 -115 -1 86 c-2 75 6 155 13 147 1 -2 -1 -55 -5 -118z m8437 18 c-2 -13 -4
-5 -4 17 -1 22 1 32 4 23 2 -10 2 -28 0 -40z m-8760 -20 c-2 -13 -4 -5 -4 17
-1 22 1 32 4 23 2 -10 2 -28 0 -40z m8770 -120 c-3 -7 -5 -2 -5 12 0 14 2 19
5 13 2 -7 2 -19 0 -25z m-8780 -25 c-3 -10 -5 -2 -5 17 0 19 2 27 5 18 2 -10
2 -26 0 -35z m8669 -33 c0 -38 -5 -70 -9 -70 -4 0 -7 32 -6 70 1 39 5 70 9 70
4 0 7 -31 6 -70z m-8319 8 c-3 -7 -5 -2 -5 12 0 14 2 19 5 13 2 -7 2 -19 0
-25z m-24 -69 c-4 -4 -6 13 -3 39 l5 47 3 -39 c2 -21 0 -42 -5 -47z m24 -41
c-3 -7 -5 -2 -5 12 0 14 2 19 5 13 2 -7 2 -19 0 -25z m8323 1 c0 -5 -4 -9 -10
-9 -5 0 -10 7 -10 16 0 8 5 12 10 9 6 -3 10 -10 10 -16z m-8373 -31 c-3 -8 -6
-5 -6 6 -1 11 2 17 5 13 3 -3 4 -12 1 -19z m8350 -50 c-3 -7 -5 -2 -5 12 0 14
2 19 5 13 2 -7 2 -19 0 -25z m20 -10 c-3 -8 -6 -5 -6 6 -1 11 2 17 5 13 3 -3
4 -12 1 -19z m-1 -188 c2 -103 0 -160 -7 -160 -6 0 -9 58 -8 165 2 91 5 163 7
160 3 -3 7 -77 8 -165z m-8689 83 c-3 -10 -5 -4 -5 12 0 17 2 24 5 18 2 -7 2
-21 0 -30z m320 0 c-3 -10 -5 -4 -5 12 0 17 2 24 5 18 2 -7 2 -21 0 -30z
m8330 5 c-3 -8 -6 -5 -6 6 -1 11 2 17 5 13 3 -3 4 -12 1 -19z m-8300 -50 c-2
-13 -4 -5 -4 17 -1 22 1 32 4 23 2 -10 2 -28 0 -40z m8480 -20 c-2 -13 -4 -3
-4 22 0 25 2 35 4 23 2 -13 2 -33 0 -45z m-178 -15 c-1 -37 -3 -42 -8 -23 -7
24 -3 70 5 70 2 0 4 -21 3 -47z m-8662 -65 c-2 -13 -4 -3 -4 22 0 25 2 35 4
23 2 -13 2 -33 0 -45z m360 10 c-3 -8 -6 -5 -6 6 -1 11 2 17 5 13 3 -3 4 -12
1 -19z m8300 -90 c-2 -18 -4 -4 -4 32 0 36 2 50 4 33 2 -18 2 -48 0 -65z m190
10 c-2 -13 -4 -5 -4 17 -1 22 1 32 4 23 2 -10 2 -28 0 -40z m-8520 -90 c-3 -7
-5 -2 -5 12 0 14 2 19 5 13 2 -7 2 -19 0 -25z m-20 -90 c-2 -18 -4 -4 -4 32 0
36 2 50 4 33 2 -18 2 -48 0 -65z m8550 15 c-2 -16 -4 -5 -4 22 0 28 2 40 4 28
2 -13 2 -35 0 -50z m-8880 -45 c-3 -8 -6 -5 -6 6 -1 11 2 17 5 13 3 -3 4 -12
1 -19z m8680 -90 c-3 -7 -5 -2 -5 12 0 14 2 19 5 13 2 -7 2 -19 0 -25z m210
-90 c-2 -24 -4 -5 -4 42 0 47 2 66 4 43 2 -24 2 -62 0 -85z m-167 67 c0 -5 -5
-3 -10 5 -5 8 -10 20 -10 25 0 6 5 3 10 -5 5 -8 10 -19 10 -25z m-1 -124 c-2
-53 1 -102 5 -109 5 -8 2 -11 -6 -10 -7 2 -12 -3 -10 -10 1 -8 -2 -11 -8 -7
-6 3 -7 11 -4 17 4 5 6 59 5 120 -2 80 1 108 9 103 8 -5 11 -40 9 -104z
m-8372 -53 c-2 -13 -4 -5 -4 17 -1 22 1 32 4 23 2 -10 2 -28 0 -40z m8550 -75
c-2 -16 -4 -5 -4 22 0 28 2 40 4 28 2 -13 2 -35 0 -50z m-180 -503 c-1 -241
-5 -436 -9 -434 -4 2 -6 210 -6 462 0 270 4 448 9 434 5 -13 8 -221 6 -462z
m-8380 428 c-3 -8 -6 -5 -6 6 -1 11 2 17 5 13 3 -3 4 -12 1 -19z m8330 -80
c-3 -8 -6 -5 -6 6 -1 11 2 17 5 13 3 -3 4 -12 1 -19z m-8700 -125 c-2 -16 -4
-5 -4 22 0 28 2 40 4 28 2 -13 2 -35 0 -50z m383 -37 c0 -3 -4 -8 -10 -11 -5
-3 -10 -1 -10 4 0 6 5 11 10 11 6 0 10 -2 10 -4z m8567 -28 c-3 -7 -5 -2 -5
12 0 14 2 19 5 13 2 -7 2 -19 0 -25z m-8960 -135 c-2 -16 -4 -5 -4 22 0 28 2
40 4 28 2 -13 2 -35 0 -50z m380 35 c-3 -7 -5 -2 -5 12 0 14 2 19 5 13 2 -7 2
-19 0 -25z m8350 -60 c-2 -13 -4 -5 -4 17 -1 22 1 32 4 23 2 -10 2 -28 0 -40z
m240 -50 c-2 -13 -4 -3 -4 22 0 25 2 35 4 23 2 -13 2 -33 0 -45z m-137 9 c0
-5 -5 -5 -12 -1 -8 5 -9 2 -5 -10 4 -10 3 -15 -3 -11 -11 7 -13 38 -3 48 7 7
23 -11 23 -26z m-103 -9 c-3 -8 -6 -5 -6 6 -1 11 2 17 5 13 3 -3 4 -12 1 -19z
m-8730 -20 c-3 -8 -6 -5 -6 6 -1 11 2 17 5 13 3 -3 4 -12 1 -19z m8970 -50
c-3 -7 -5 -2 -5 12 0 14 2 19 5 13 2 -7 2 -19 0 -25z m-8980 -25 c-3 -10 -5
-2 -5 17 0 19 2 27 5 18 2 -10 2 -26 0 -35z m8991 -39 c-3 -14 -5 -12 -10 9
-3 19 -2 25 4 19 6 -6 8 -18 6 -28z m-8611 4 c-3 -8 -6 -5 -6 6 -1 11 2 17 5
13 3 -3 4 -12 1 -19z m80 0 c-3 -8 -6 -5 -6 6 -1 11 2 17 5 13 3 -3 4 -12 1
-19z m-60 -40 c-3 -8 -6 -5 -6 6 -1 11 2 17 5 13 3 -3 4 -12 1 -19z m60 -85
c-2 -21 -4 -6 -4 32 0 39 2 55 4 38 2 -18 2 -50 0 -70z m8530 65 c-3 -7 -5 -2
-5 12 0 14 2 19 5 13 2 -7 2 -19 0 -25z m0 -85 c-3 -10 -5 -4 -5 12 0 17 2 24
5 18 2 -7 2 -21 0 -30z m-8570 -15 c-3 -8 -6 -5 -6 6 -1 11 2 17 5 13 3 -3 4
-12 1 -19z m-430 -25 c-3 -10 -5 -4 -5 12 0 17 2 24 5 18 2 -7 2 -21 0 -30z
m0 -90 c-2 -16 -4 -5 -4 22 0 28 2 40 4 28 2 -13 2 -35 0 -50z m410 -55 c-3
-8 -6 -5 -6 6 -1 11 2 17 5 13 3 -3 4 -12 1 -19z m-420 -20 c-3 -8 -6 -5 -6 6
-1 11 2 17 5 13 3 -3 4 -12 1 -19z m8788 -7 c0 -16 -3 -27 -7 -24 -13 7 -7 53
6 53 1 0 1 -13 1 -29z m-42 -102 c-1 -61 -5 -114 -8 -117 -3 -3 -5 50 -5 117
0 67 4 120 8 117 5 -3 7 -55 5 -117z m-8326 4 c-3 -10 -5 -2 -5 17 0 19 2 27
5 18 2 -10 2 -26 0 -35z m8370 -15 c-2 -13 -4 -5 -4 17 -1 22 1 32 4 23 2 -10
2 -28 0 -40z m-8790 10 c-3 -8 -6 -5 -6 6 -1 11 2 17 5 13 3 -3 4 -12 1 -19z
m8885 -78 c-12 -10 -19 -20 -17 -22 3 -3 -7 -15 -23 -29 l-27 -24 23 26 c12
14 19 28 15 32 -9 10 28 48 40 40 6 -4 2 -13 -11 -23z m-8465 -12 c-3 -8 -6
-5 -6 6 -1 11 2 17 5 13 3 -3 4 -12 1 -19z m8406 -23 c-3 -9 -8 -14 -10 -11
-3 3 -2 9 2 15 9 16 15 13 8 -4z m204 -42 c-3 -10 -5 -2 -5 17 0 19 2 27 5 18
2 -10 2 -26 0 -35z m-237 -14 c0 -11 -4 -18 -10 -14 -5 3 -7 12 -3 20 7 21 13
19 13 -6z m-69 -85 l-8 -69 -2 71 c0 39 2 74 6 78 13 12 14 -7 4 -80z m-8734
24 c-2 -13 -4 -5 -4 17 -1 22 1 32 4 23 2 -10 2 -28 0 -40z m0 -50 c-3 -8 -6
-5 -6 6 -1 11 2 17 5 13 3 -3 4 -12 1 -19z m9050 -55 c-2 -16 -4 -5 -4 22 0
28 2 40 4 28 2 -13 2 -35 0 -50z m-8610 -45 c-2 -18 -4 -4 -4 32 0 36 2 50 4
33 2 -18 2 -48 0 -65z m-450 -90 c-2 -18 -4 -6 -4 27 0 33 2 48 4 33 2 -15 2
-42 0 -60z m450 5 c-3 -10 -5 -2 -5 17 0 19 2 27 5 18 2 -10 2 -26 0 -35z
m-20 -25 c-3 -8 -6 -5 -6 6 -1 11 2 17 5 13 3 -3 4 -12 1 -19z m-440 -180 c-2
-13 -4 -3 -4 22 0 25 2 35 4 23 2 -13 2 -33 0 -45z m8868 -117 c3 -5 1 -12 -5
-16 -5 -3 -10 1 -10 9 0 18 6 21 15 7z m-50 -97 c0 -24 -3 -44 -8 -44 -4 0 -6
-4 -3 -8 2 -4 1 -14 -5 -22 -10 -17 -13 88 -3 115 10 26 19 7 19 -41z m-8358
-166 c-2 -35 -3 -7 -3 62 0 69 1 97 3 63 2 -35 2 -91 0 -125z m8630 130 c-3
-7 -5 -2 -5 12 0 14 2 19 5 13 2 -7 2 -19 0 -25z m-276 -61 c-10 -9 -11 -8 -5
6 3 10 9 15 12 12 3 -3 0 -11 -7 -18z m-8824 -54 c-3 -10 -5 -4 -5 12 0 17 2
24 5 18 2 -7 2 -21 0 -30z m8830 -15 c-3 -7 -5 -2 -5 12 0 14 2 19 5 13 2 -7
2 -19 0 -25z m280 -75 c-2 -21 -4 -6 -4 32 0 39 2 55 4 38 2 -18 2 -50 0 -70z
m-8940 5 c-3 -8 -6 -5 -6 6 -1 11 2 17 5 13 3 -3 4 -12 1 -19z m8653 -95 c0
-60 -4 -101 -8 -93 -8 15 -4 200 4 200 2 0 4 -48 4 -107z m-8833 65 c-3 -8 -6
-5 -6 6 -1 11 2 17 5 13 3 -3 4 -12 1 -19z m510 -220 c-2 -35 -3 -7 -3 62 0
69 1 97 3 63 2 -35 2 -91 0 -125z m8290 145 c-3 -10 -5 -4 -5 12 0 17 2 24 5
18 2 -7 2 -21 0 -30z m-8800 -25 c-3 -8 -6 -5 -6 6 -1 11 2 17 5 13 3 -3 4
-12 1 -19z m9130 -85 c-2 -16 -4 -5 -4 22 0 28 2 40 4 28 2 -13 2 -35 0 -50z
m-310 -25 c-3 -7 -5 -2 -5 12 0 14 2 19 5 13 2 -7 2 -19 0 -25z m-9006 -25
c13 -16 12 -17 -3 -4 -10 7 -18 15 -18 17 0 8 8 3 21 -13z m176 -75 c-2 -18
-4 -6 -4 27 0 33 2 48 4 33 2 -15 2 -42 0 -60z m480 -10 c-3 -8 -6 -5 -6 6 -1
11 2 17 5 13 3 -3 4 -12 1 -19z m8670 -165 c-2 -32 -3 -8 -3 52 0 61 1 87 3
58 2 -29 2 -78 0 -110z m-8680 -15 c-2 -18 -4 -6 -4 27 0 33 2 48 4 33 2 -15
2 -42 0 -60z m-480 -60 c-3 -7 -5 -2 -5 12 0 14 2 19 5 13 2 -7 2 -19 0 -25z
m480 -90 c-2 -18 -4 -6 -4 27 0 33 2 48 4 33 2 -15 2 -42 0 -60z m8690 40 c-3
-7 -5 -2 -5 12 0 14 2 19 5 13 2 -7 2 -19 0 -25z m-370 -50 c-2 -13 -4 -5 -4
17 -1 22 1 32 4 23 2 -10 2 -28 0 -40z m-8270 10 c-3 -7 -5 -2 -5 12 0 14 2
19 5 13 2 -7 2 -19 0 -25z m-540 -220 c-2 -29 -3 -8 -3 47 0 55 1 79 3 53 2
-26 2 -71 0 -100z m8850 25 c-3 -10 -5 -2 -5 17 0 19 2 27 5 18 2 -10 2 -26 0
-35z m340 -85 c-3 -8 -6 -5 -6 6 -1 11 2 17 5 13 3 -3 4 -12 1 -19z m-9200
-60 c-3 -8 -6 -5 -6 6 -1 11 2 17 5 13 3 -3 4 -12 1 -19z m8879 -4 c2 -10 -3
-82 -10 -159 -8 -77 -15 -194 -17 -260 -1 -66 -3 -148 -4 -183 -1 -35 2 -65 6
-68 5 -2 5 -14 0 -26 -4 -12 -4 -38 0 -58 11 -44 11 -60 2 -60 -5 0 -9 10 -9
23 -1 12 -4 40 -7 62 -6 35 8 673 15 733 4 26 20 24 24 -4z m94 22 c0 -2 -8
-10 -17 -17 -16 -13 -17 -12 -4 4 13 16 21 21 21 13z m227 -43 c-3 -10 -5 -2
-5 17 0 19 2 27 5 18 2 -10 2 -26 0 -35z m-9200 -35 c-3 -8 -6 -5 -6 6 -1 11
2 17 5 13 3 -3 4 -12 1 -19z m8760 0 c-3 -8 -6 -5 -6 6 -1 11 2 17 5 13 3 -3
4 -12 1 -19z m-8270 -50 c-3 -8 -6 -5 -6 6 -1 11 2 17 5 13 3 -3 4 -12 1 -19z
m0 -195 c-2 -32 -3 -8 -3 52 0 61 1 87 3 58 2 -29 2 -78 0 -110z m-391 92 c16
-15 29 -33 30 -42 2 -10 -10 -3 -32 18 -30 29 -42 49 -30 49 3 0 17 -11 32
-25z m-109 -52 c-2 -16 -4 -5 -4 22 0 28 2 40 4 28 2 -13 2 -35 0 -50z m0 -55
c-3 -8 -6 -5 -6 6 -1 11 2 17 5 13 3 -3 4 -12 1 -19z m520 -120 c-2 -24 -4 -7
-4 37 0 44 2 63 4 43 2 -21 2 -57 0 -80z m-520 60 c-3 -8 -6 -5 -6 6 -1 11 2
17 5 13 3 -3 4 -12 1 -19z m8840 -35 c-3 -10 -5 -2 -5 17 0 19 2 27 5 18 2
-10 2 -26 0 -35z m-8850 -190 c-2 -27 -3 -5 -3 47 0 52 1 74 3 48 2 -27 2 -69
0 -95z m203 54 c0 -2 -12 -14 -27 -28 l-28 -24 24 28 c23 25 31 32 31 24z
m316 -45 c-18 -16 -19 -16 -12 1 3 10 6 24 6 30 0 8 4 7 12 -1 10 -9 8 -16 -6
-30z m-306 -5 c0 -2 -12 -14 -27 -28 l-28 -24 24 28 c23 25 31 32 31 24z m307
-69 c-2 -13 -4 -5 -4 17 -1 22 1 32 4 23 2 -10 2 -28 0 -40z m8730 -60 c-2
-24 -4 -7 -4 37 0 44 2 63 4 43 2 -21 2 -57 0 -80z m-350 -30 c-2 -13 -4 -5
-4 17 -1 22 1 32 4 23 2 -10 2 -28 0 -40z m-8380 0 c-3 -8 -6 -5 -6 6 -1 11 2
17 5 13 3 -3 4 -12 1 -19z m8 -207 c0 -109 -3 -166 -10 -160 -11 11 -11 239 0
289 5 25 4 31 -5 25 -9 -5 -11 -4 -6 3 18 29 21 1 21 -157z m22 77 c-2 -18 -4
-6 -4 27 0 33 2 48 4 33 2 -15 2 -42 0 -60z m8710 -90 c-3 -7 -5 -2 -5 12 0
14 2 19 5 13 2 -7 2 -19 0 -25z m-9280 -50 c-2 -13 -4 -3 -4 22 0 25 2 35 4
23 2 -13 2 -33 0 -45z m8877 20 c-4 -13 -2 -18 4 -14 6 4 8 -31 5 -102 -6
-137 -11 -152 -12 -36 -1 50 -4 113 -8 139 -5 36 -3 46 6 41 7 -5 9 -16 5 -28z
m403 -40 c-3 -8 -6 -5 -6 6 -1 11 2 17 5 13 3 -3 4 -12 1 -19z m-9280 -75 c-3
-10 -5 -4 -5 12 0 17 2 24 5 18 2 -7 2 -21 0 -30z m8913 -84 c0 -42 -4 -68
-10 -64 -5 3 -8 27 -6 53 2 26 4 55 5 65 0 9 3 17 6 17 3 0 5 -32 5 -71z
m-8353 -111 c-2 -18 -4 -4 -4 32 0 36 2 50 4 33 2 -18 2 -48 0 -65z m-21 -46
c-13 -12 -15 7 -8 59 l7 54 3 -54 c2 -29 1 -56 -2 -59z m4 -59 c0 -35 -3 -44
-10 -33 -13 20 -13 80 0 80 6 0 10 -21 10 -47z m8757 -75 c-2 -18 -4 -6 -4 27
0 33 2 48 4 33 2 -15 2 -42 0 -60z m-8740 -15 c-3 -10 -5 -4 -5 12 0 17 2 24
5 18 2 -7 2 -21 0 -30z m8323 7 c0 -11 -4 -20 -10 -20 -5 0 -10 9 -10 20 0 11
5 20 10 20 6 0 10 -9 10 -20z m-8903 -117 c-2 -21 -4 -6 -4 32 0 39 2 55 4 38
2 -18 2 -50 0 -70z m550 30 c-3 -10 -5 -4 -5 12 0 17 2 24 5 18 2 -7 2 -21 0
-30z m8375 -128 c-7 -32 -8 -25 -6 40 4 96 6 105 11 45 2 -25 0 -63 -5 -85z
m405 -27 c-2 -13 -4 -3 -4 22 0 25 2 35 4 23 2 -13 2 -33 0 -45z m-8780 -110
c-2 -29 -3 -8 -3 47 0 55 1 79 3 53 2 -26 2 -71 0 -100z m-560 5 c-3 -10 -5
-4 -5 12 0 17 2 24 5 18 2 -7 2 -21 0 -30z m9350 -180 c-2 -37 -3 -9 -3 62 0
72 1 102 3 68 2 -34 2 -93 0 -130z m-8790 0 c-3 -10 -5 -4 -5 12 0 17 2 24 5
18 2 -7 2 -21 0 -30z m13 -75 c0 -45 -15 -32 -16 13 -1 26 2 36 7 28 5 -8 9
-26 9 -41z m8327 -165 c-2 -37 -3 -9 -3 62 0 72 1 102 3 68 2 -34 2 -93 0
-130z m49 71 c-4 -20 -10 -34 -12 -31 -3 3 -2 21 2 41 3 21 9 35 11 32 3 -3 2
-21 -1 -42z m411 -46 c-2 -13 -4 -5 -4 17 -1 22 1 32 4 23 2 -10 2 -28 0 -40z
m-9182 -20 c37 -39 37 -40 5 -10 -36 32 -58 42 -44 20 4 -7 3 -8 -4 -4 -13 8
-16 36 -4 36 4 0 26 -19 47 -42z m8762 -160 c-2 -35 -3 -7 -3 62 0 69 1 97 3
63 2 -35 2 -91 0 -125z m115 133 c2 -17 1 -28 -4 -25 -8 5 -12 54 -4 54 2 0 6
-13 8 -29z m-8849 -40 c-2 -3 -18 10 -36 29 l-32 34 36 -30 c20 -16 34 -31 32
-33z m8694 -143 c-3 -7 -5 -2 -5 12 0 14 2 19 5 13 2 -7 2 -19 0 -25z m-8930
-135 c-2 -21 -4 -6 -4 32 0 39 2 55 4 38 2 -18 2 -50 0 -70z m597 -109 c3 -8
2 -12 -4 -9 -6 3 -10 10 -10 16 0 14 7 11 14 -7z m8813 -91 c-2 -21 -4 -4 -4
37 0 41 2 58 4 38 2 -21 2 -55 0 -75z m10 -130 c-2 -16 -4 -3 -4 27 0 30 2 43
4 28 2 -16 2 -40 0 -55z m-9226 -10 c13 -16 12 -17 -3 -4 -17 13 -22 21 -14
21 2 0 10 -8 17 -17z m-214 -135 c-2 -24 -4 -5 -4 42 0 47 2 66 4 43 2 -24 2
-62 0 -85z m8990 100 c-3 -8 -6 -5 -6 6 -1 11 2 17 5 13 3 -3 4 -12 1 -19z
m-8370 -70 c-2 -13 -4 -3 -4 22 0 25 2 35 4 23 2 -13 2 -33 0 -45z m8360 -10
c-3 -7 -5 -2 -5 12 0 14 2 19 5 13 2 -7 2 -19 0 -25z m470 -80 c-2 -18 -4 -6
-4 27 0 33 2 48 4 33 2 -15 2 -42 0 -60z m-464 41 c4 -16 3 -18 -9 -8 -7 6
-11 15 -8 20 8 13 11 11 17 -12z m-8996 -221 c-2 -24 -4 -5 -4 42 0 47 2 66 4
43 2 -24 2 -62 0 -85z m8980 -5 c-2 -21 -4 -4 -4 37 0 41 2 58 4 38 2 -21 2
-55 0 -75z m20 -15 c-2 -18 -4 -6 -4 27 0 33 2 48 4 33 2 -15 2 -42 0 -60z
m-8337 19 c0 -32 -4 -44 -15 -44 -8 0 -15 7 -15 14 0 8 5 11 10 8 6 -4 10 8
10 29 0 20 2 36 5 36 3 0 5 -19 5 -43z m-33 1 c-3 -8 -6 -5 -6 6 -1 11 2 17 5
13 3 -3 4 -12 1 -19z m-424 -62 c-10 -13 -20 -22 -22 -20 -4 4 29 44 36 44 2
0 -4 -11 -14 -24z m-216 -129 c-2 -23 -3 -1 -3 48 0 50 1 68 3 42 2 -26 2 -67
0 -90z m700 -24 c-2 -32 -3 -8 -3 52 0 61 1 87 3 58 2 -29 2 -78 0 -110z
m8316 112 c3 -22 3 -34 1 -27 -9 19 -24 4 -24 -24 0 -15 4 -23 10 -19 6 4 7
11 4 17 -4 7 -2 8 5 4 9 -6 9 -13 -3 -31 -8 -12 -17 -49 -19 -81 -2 -33 -4
-11 -4 48 0 59 4 105 9 102 4 -3 8 9 8 27 0 42 7 34 13 -16z m-8773 11 c0 -2
-8 -10 -17 -17 -16 -13 -17 -12 -4 4 13 16 21 21 21 13z m427 -153 c-2 -21 -4
-4 -4 37 0 41 2 58 4 38 2 -21 2 -55 0 -75z m8340 -20 c-3 -10 -5 -4 -5 12 0
17 2 24 5 18 2 -7 2 -21 0 -30z m480 5 c-3 -8 -6 -5 -6 6 -1 11 2 17 5 13 3
-3 4 -12 1 -19z m0 -55 c-3 -10 -5 -4 -5 12 0 17 2 24 5 18 2 -7 2 -21 0 -30z
m-8790 -15 c-3 -8 -6 -5 -6 6 -1 11 2 17 5 13 3 -3 4 -12 1 -19z m-50 -50 c-3
-8 -6 -5 -6 6 -1 11 2 17 5 13 3 -3 4 -12 1 -19z m-660 -60 c-2 -13 -4 -5 -4
17 -1 22 1 32 4 23 2 -10 2 -28 0 -40z m660 -241 c-1 -45 -3 -5 -3 88 0 94 2
130 3 82 2 -48 2 -125 0 -170z m8850 181 c-2 -13 -4 -3 -4 22 0 25 2 35 4 23
2 -13 2 -33 0 -45z m-507 -46 c-7 -13 -9 -8 -9 23 0 35 1 37 10 17 6 -15 5
-30 -1 -40z m-9013 -34 c-2 -13 -4 -3 -4 22 0 25 2 35 4 23 2 -13 2 -33 0 -45z
m9530 -85 c-3 -10 -5 -4 -5 12 0 17 2 24 5 18 2 -7 2 -21 0 -30z m-530 -150
c-2 -16 -4 -3 -4 27 0 30 2 43 4 28 2 -16 2 -40 0 -55z m-8330 -10 c-3 -10 -5
-2 -5 17 0 19 2 27 5 18 2 -10 2 -26 0 -35z m-417 23 c0 -2 -8 -10 -17 -17
-16 -13 -17 -12 -4 4 13 16 21 21 21 13z m397 -93 c-2 -16 -4 -3 -4 27 0 30 2
43 4 28 2 -16 2 -40 0 -55z m-670 -105 c-2 -18 -4 -6 -4 27 0 33 2 48 4 33 2
-15 2 -42 0 -60z m9043 45 c0 -21 -3 -24 -9 -14 -5 8 -7 20 -4 28 8 21 13 15
13 -14z m-3 -55 c-3 -8 -6 -5 -6 6 -1 11 2 17 5 13 3 -3 4 -12 1 -19z m530
-60 c-3 -8 -6 -5 -6 6 -1 11 2 17 5 13 3 -3 4 -12 1 -19z m-530 -35 c-3 -10
-5 -2 -5 17 0 19 2 27 5 18 2 -10 2 -26 0 -35z m-8340 15 c-3 -8 -6 -5 -6 6
-1 11 2 17 5 13 3 -3 4 -12 1 -19z m20 -365 c-1 -71 -3 -13 -3 127 0 140 2
198 3 128 2 -71 2 -185 0 -255z m8850 335 c-3 -7 -5 -2 -5 12 0 14 2 19 5 13
2 -7 2 -19 0 -25z m10 -140 c-2 -18 -4 -6 -4 27 0 33 2 48 4 33 2 -15 2 -42 0
-60z m-8890 -30 c-3 -7 -5 -2 -5 12 0 14 2 19 5 13 2 -7 2 -19 0 -25z m8593
-203 c0 -2 -6 -5 -13 -8 -8 -3 -14 1 -14 8 0 7 6 11 14 8 7 -3 13 -6 13 -8z
m-236 -52 c-7 -2 -10 -12 -7 -22 3 -10 -1 -22 -7 -26 -9 -5 -10 -1 -6 13 4 11
2 23 -4 27 -8 5 -7 11 1 21 9 11 15 12 23 3 8 -8 8 -13 0 -16z m263 -55 c12
-6 20 -15 17 -19 -6 -10 -59 15 -69 31 -6 10 15 5 52 -12z m-255 -53 c3 -14 1
-25 -3 -25 -5 0 -9 11 -9 25 0 14 2 25 4 25 2 0 6 -11 8 -25z m-8335 -17 c-3
-8 -6 -5 -6 6 -1 11 2 17 5 13 3 -3 4 -12 1 -19z m8310 -14 c0 -26 -3 -31 -9
-20 -8 14 -3 56 6 56 1 0 3 -16 3 -36z m-8348 -44 c0 -10 -3 -8 -9 5 -12 27
-12 43 0 25 5 -8 9 -22 9 -30z m38 -32 c-2 -13 -4 -5 -4 17 -1 22 1 32 4 23 2
-10 2 -28 0 -40z m8643 42 c8 -5 11 -10 5 -10 -5 0 -17 5 -25 10 -8 5 -10 10
-5 10 6 0 17 -5 25 -10z m80 -42 c0 -6 -6 -5 -15 2 -8 7 -15 14 -15 16 0 2 7
1 15 -2 8 -4 15 -11 15 -16z m-8765 -18 c3 -5 1 -10 -4 -10 -6 0 -11 5 -11 10
0 6 2 10 4 10 3 0 8 -4 11 -10z m8615 0 c0 -5 -2 -10 -4 -10 -3 0 -8 5 -11 10
-3 6 -1 10 4 10 6 0 11 -4 11 -10z m-263 -77 c-2 -16 -4 -3 -4 27 0 30 2 43 4
28 2 -16 2 -40 0 -55z m-8739 55 c-2 -6 -10 -13 -16 -14 -7 -1 -8 0 -2 3 5 2
8 9 4 14 -3 5 0 9 6 9 7 0 10 -5 8 -12z m9098 -26 c-5 -4 -66 26 -66 33 0 3
16 -3 35 -12 19 -9 33 -18 31 -21z m-8712 -10 c2 -17 -1 -29 -5 -26 -5 3 -9
19 -9 36 0 39 9 32 14 -10z m43 16 c-3 -8 -6 -5 -6 6 -1 11 2 17 5 13 3 -3 4
-12 1 -19z m8769 -16 c-5 -4 -66 26 -66 33 0 3 16 -3 35 -12 19 -9 33 -18 31
-21z m-311 10 c-3 -3 -11 0 -18 7 -9 10 -8 11 6 5 10 -3 15 -9 12 -12z m-8908
-24 c-3 -8 -6 -5 -6 6 -1 11 2 17 5 13 3 -3 4 -12 1 -19z m-67 -8 c0 -5 -4
-10 -9 -10 -6 0 -13 5 -16 10 -3 6 1 10 9 10 9 0 16 -4 16 -10z m9165 -8 c-3
-3 -11 0 -18 7 -9 10 -8 11 6 5 10 -3 15 -9 12 -12z m-9195 -13 c0 -5 -6 -10
-12 -11 -7 0 -17 -2 -23 -3 -5 -2 -16 -3 -23 -4 -7 0 -10 -6 -7 -12 4 -6 14
-8 22 -5 8 3 11 1 8 -4 -9 -14 -17 -12 -45 11 -15 13 -18 19 -8 16 9 -3 21 0
26 6 12 14 62 19 62 6z m219 -3 c-2 -2 -15 -9 -29 -15 -24 -11 -24 -11 -6 3
16 13 49 24 35 12z m8638 -58 c-3 -7 -5 -2 -5 12 0 14 2 19 5 13 2 -7 2 -19 0
-25z m-8742 12 c3 -6 -1 -7 -9 -4 -18 7 -21 14 -7 14 6 0 13 -4 16 -10z m8722
-77 c-2 -16 -4 -3 -4 27 0 30 2 43 4 28 2 -16 2 -40 0 -55z m-8728 33 c-2 -2
-20 -11 -39 -20 l-35 -17 24 21 c13 11 30 20 39 20 8 0 13 -2 11 -4z m468 -58
c-3 -7 -5 -2 -5 12 0 14 2 19 5 13 2 -7 2 -19 0 -25z m8640 6 c-7 -7 -37 7
-37 17 0 6 9 5 21 -1 11 -7 19 -14 16 -16z m58 -22 c19 -12 18 -13 -5 -6 -14
3 -29 10 -34 14 -13 13 16 6 39 -8z m67 -32 c18 -11 29 -20 25 -20 -11 0 -67
29 -67 35 0 9 9 5 42 -15z m-258 -31 c-2 -5 -14 -1 -24 9 -26 22 -25 24 5 10
13 -6 22 -15 19 -19z m76 21 c8 -5 12 -11 10 -14 -3 -2 -14 2 -24 10 -22 15
-10 19 14 4z m61 -30 c28 -16 23 -32 -6 -18 -14 6 -25 15 -25 20 0 11 7 10 31
-2z m-8674 -52 c-2 -13 -4 -5 -4 17 -1 22 1 32 4 23 2 -10 2 -28 0 -40z m8612
26 c14 -12 -19 -1 -35 12 -18 14 -18 14 6 3 14 -6 27 -13 29 -15z m127 -21
c-6 -6 -36 9 -36 18 0 5 9 4 20 -3 10 -7 18 -14 16 -15z m-9321 -3 c3 -6 -1
-7 -9 -4 -18 7 -21 14 -7 14 6 0 13 -4 16 -10z m55 5 c0 -2 -10 -9 -22 -15
-22 -11 -22 -10 -4 4 21 17 26 19 26 11z m-200 -30 c0 -5 -89 -45 -99 -45 -8
1 81 49 92 50 4 0 7 -2 7 -5z m380 -1 c0 -8 -19 -13 -24 -6 -3 5 1 9 9 9 8 0
15 -2 15 -3z m8885 -14 c3 -6 -1 -7 -9 -4 -18 7 -21 14 -7 14 6 0 13 -4 16
-10z m-9018 -26 c0 -7 -4 -11 -8 -8 -4 2 -10 0 -14 -6 -3 -5 -15 -10 -26 -10
-11 0 -27 -7 -36 -15 -15 -16 -38 -11 -27 6 3 5 10 7 15 4 5 -4 12 1 15 10 4
9 13 14 20 11 8 -3 19 1 26 8 16 16 35 16 35 0z m9148 -49 c11 -9 -7 -2 -40
15 -33 18 -64 37 -70 42 -15 15 87 -38 110 -57z m-9272 1 c4 -10 1 -13 -9 -9
-15 6 -19 23 -5 23 5 0 11 -7 14 -14z m207 -20 c0 -3 -6 -5 -12 -3 -7 1 -12
-4 -10 -11 1 -8 -2 -11 -8 -7 -8 5 -7 11 1 21 9 11 8 14 -7 14 -15 0 -16 2 -5
9 13 8 41 -8 41 -23z m9180 30 c0 -2 -7 -7 -16 -10 -8 -3 -12 -2 -9 4 6 10 25
14 25 6z m-9237 -41 c-7 -21 -12 -19 -10 4 0 11 5 18 9 15 4 -3 5 -11 1 -19z
m-37 0 c-11 -8 -25 -15 -30 -15 -6 1 0 7 14 15 32 19 40 18 16 0z m-26 -32 c0
-5 -11 -8 -24 -8 -13 0 -22 3 -19 8 2 4 13 7 24 7 10 0 19 -3 19 -7z m9519
-237 c62 -36 117 -66 120 -66 4 0 18 -10 31 -22 14 -13 25 -21 25 -19 0 2 13
-3 29 -11 17 -9 24 -18 18 -22 -6 -4 -64 26 -129 65 -65 39 -167 101 -228 136
-60 36 -114 69 -120 75 -12 13 102 -49 254 -136z m-9439 4 c0 -5 -5 -10 -11
-10 -5 0 -7 5 -4 10 3 6 8 10 11 10 2 0 4 -4 4 -10z m-40 -94 c0 -4 -99 -66
-106 -66 -15 0 13 23 54 45 51 26 52 27 52 21z m15 -266 c-3 -5 -16 -15 -28
-21 -19 -9 -19 -8 3 10 28 23 34 26 25 11z m425 -23 c0 -5 -4 -5 -10 -2 -5 3
-10 14 -10 23 0 15 2 15 10 2 5 -8 10 -19 10 -23z m12 -39 c-6 -6 -7 0 -4 19
5 21 7 23 10 9 2 -10 0 -22 -6 -28z m-222 17 c-7 -8 -18 -15 -24 -15 -6 0 -2
7 8 15 25 19 32 19 16 0z"/>
<path d="M4255 7682 l0 -5587 955 1 c525 1 2208 2 3740 3 l2785 1 -2 5572 c-2
3065 -3 5579 -3 5586 0 9 -754 12 -3737 12 l-3738 0 0 -5588z m7412 -2735 c-1
-1497 -2 -269 -2 2728 0 2998 1 4222 2 2722 2 -1501 2 -3953 0 -5450z m-17
2726 l0 -5422 -21 4 c-11 2 -30 7 -41 11 -11 3 -18 2 -15 -2 8 -13 -7166 -12
-7176 1 -6 6 -10 6 -14 -2 -2 -7 -13 -13 -24 -13 -19 0 -19 85 -19 5423 l0
5422 3655 0 3655 0 0 -5422z m-1827 -5450 c-1007 -2 -2659 -2 -3670 0 -1011 1
-186 2 1832 2 2019 0 2846 -1 1838 -2z"/>
<path d="M11635 12610 c0 -250 1 -353 2 -227 2 125 2 329 0 455 -1 125 -2 22
-2 -228z"/>
<path d="M11635 10845 c0 -286 1 -402 2 -257 2 145 2 379 0 520 -1 141 -2 23
-2 -263z"/>
<path d="M11635 9000 c0 -729 1 -1027 2 -662 2 364 2 960 0 1325 -1 364 -2 66
-2 -663z"/>
<path d="M11635 5440 c0 -1191 1 -1678 2 -1083 2 596 2 1570 0 2165 -1 596 -2
109 -2 -1082z"/>
<path d="M11633 2435 c0 -27 2 -38 4 -22 2 15 2 37 0 50 -2 12 -4 0 -4 -28z"/>
<path d="M11627 2331 c-4 -17 -3 -21 5 -13 5 5 8 16 6 23 -3 8 -7 3 -11 -10z"/>
<path d="M12170 7950 c0 -5 5 -10 10 -10 6 0 10 5 10 10 0 6 -4 10 -10 10 -5
0 -10 -4 -10 -10z"/>
<path d="M12172 7880 c0 -14 2 -19 5 -12 2 6 2 18 0 25 -3 6 -5 1 -5 -13z"/>
<path d="M14936 14819 c-226 -222 -277 -279 -248 -279 8 0 123 110 362 347
l146 144 319 -315 319 -315 -106 -108 c-59 -59 -203 -204 -320 -320 l-213
-213 -250 250 c-137 138 -253 250 -257 250 -5 0 -8 -12 -8 -27 0 -22 46 -72
248 -270 l247 -242 -164 -165 -165 -165 -82 75 c-45 41 -81 68 -80 60 1 -7 32
-47 68 -87 l67 -74 -70 -70 c-51 -53 -69 -77 -69 -98 0 -15 2 -27 5 -27 3 0
119 112 258 250 l252 249 44 -42 c25 -23 119 -116 211 -207 584 -579 550 -547
550 -509 0 27 -9 44 -42 77 l-41 43 41 42 c26 27 42 52 42 67 0 22 -5 19 -55
-30 l-55 -55 -156 156 -155 155 211 210 c161 159 211 215 208 231 -2 16 -45
-21 -223 -193 -121 -118 -223 -213 -226 -211 -4 1 -79 73 -168 159 l-161 156
391 384 c378 372 390 385 387 419 l-3 34 -63 -63 c-35 -35 -67 -62 -72 -60 -5
2 -153 146 -328 321 -176 174 -325 317 -330 317 -6 0 -125 -113 -266 -251z"/>
<path d="M122 14257 c-90 -90 -122 -129 -122 -147 0 -21 19 -6 125 100 l124
124 173 -170 c95 -93 272 -265 393 -383 121 -118 264 -260 318 -314 l99 -100
-153 -153 c-85 -85 -157 -153 -161 -152 -5 2 -576 558 -661 644 -4 4 -64 -48
-132 -116 -93 -93 -125 -131 -125 -150 0 -21 18 -7 125 100 l124 124 143 -140
c79 -77 223 -219 321 -315 l178 -174 -318 -317 -318 -317 -128 121 c-126 119
-127 120 -127 87 0 -29 14 -48 112 -146 l113 -113 -113 -113 c-100 -100 -112
-116 -112 -147 l0 -35 125 125 c68 68 126 122 129 120 31 -31 925 -908 1021
-1002 72 -71 134 -128 138 -128 4 0 6 12 4 26 -2 18 -71 93 -225 248 l-222
222 226 226 c162 161 225 231 222 244 -3 14 -61 -38 -238 -213 l-235 -233
-155 155 -155 155 393 393 c215 215 392 398 392 405 0 6 -4 12 -9 12 -4 0 -90
-80 -189 -177 -349 -343 -610 -595 -617 -595 -4 0 -79 71 -168 158 l-160 157
567 562 c487 481 569 566 572 594 4 32 4 32 -77 -41 -44 -40 -82 -73 -83 -73
-2 0 -227 221 -500 490 -274 270 -500 491 -504 493 -4 1 -62 -53 -130 -121z"/>
<path d="M3740 13535 c-18 -21 -3 -32 16 -13 10 9 12 18 6 22 -5 3 -15 -1 -22
-9z"/>
<path d="M3770 13510 c0 -5 5 -10 11 -10 5 0 7 5 4 10 -3 6 -8 10 -11 10 -2 0
-4 -4 -4 -10z"/>
<path d="M12201 13494 c0 -11 3 -14 6 -6 3 7 2 16 -1 19 -3 4 -6 -2 -5 -13z"/>
<path d="M3630 13440 c0 -5 5 -10 11 -10 5 0 7 5 4 10 -3 6 -8 10 -11 10 -2 0
-4 -4 -4 -10z"/>
<path d="M3573 13392 c-9 -6 -10 -39 -1 -47 2 -2 11 7 20 20 14 18 15 24 4 28
-7 3 -17 2 -23 -1z m8 -25 c-10 -9 -11 -8 -5 6 3 10 9 15 12 12 3 -3 0 -11 -7
-18z"/>
<path d="M12320 13371 c0 -6 4 -13 10 -16 6 -3 7 1 4 9 -7 18 -14 21 -14 7z"/>
<path d="M12372 13280 c0 -14 2 -19 5 -12 2 6 2 18 0 25 -3 6 -5 1 -5 -13z"/>
<path d="M3496 13207 c3 -10 9 -15 12 -12 3 3 0 11 -7 18 -10 9 -11 8 -5 -6z"/>
<path d="M3525 13086 c-12 -14 -19 -136 -7 -136 11 0 82 74 81 85 0 6 -15 22
-32 36 -23 19 -35 23 -42 15z"/>
<path d="M3501 13044 c0 -11 3 -14 6 -6 3 7 2 16 -1 19 -3 4 -6 -2 -5 -13z"/>
<path d="M3482 13020 c0 -14 2 -19 5 -12 2 6 2 18 0 25 -3 6 -5 1 -5 -13z"/>
<path d="M14933 12755 c-139 -140 -253 -263 -253 -272 0 -19 -3 -22 308 283
112 109 205 200 206 202 2 1 182 -175 402 -392 326 -322 400 -390 403 -373 2
18 -79 103 -394 415 -218 215 -402 392 -408 392 -7 0 -126 -114 -264 -255z"/>
<path d="M12419 12983 c-13 -16 -12 -17 4 -4 9 7 17 15 17 17 0 8 -8 3 -21
-13z"/>
<path d="M3485 12961 c-3 -5 -2 -12 3 -15 5 -3 9 1 9 9 0 17 -3 19 -12 6z"/>
<path d="M3447 12926 c4 -13 3 -17 -5 -12 -7 4 -12 3 -12 -2 0 -13 28 -23 34
-13 3 4 -1 17 -9 27 -15 19 -15 19 -8 0z"/>
<path d="M12427 12906 c-9 -7 -17 -18 -17 -25 0 -6 9 -2 21 10 24 24 22 33 -4
15z"/>
<path d="M12451 12854 c0 -11 3 -14 6 -6 3 7 2 16 -1 19 -3 4 -6 -2 -5 -13z"/>
<path d="M3403 12715 c0 -8 4 -15 9 -15 4 0 8 4 8 9 0 6 -4 12 -8 15 -5 3 -9
-1 -9 -9z"/>
<path d="M3456 12717 c3 -10 9 -15 12 -12 3 3 0 11 -7 18 -10 9 -11 8 -5 -6z"/>
<path d="M3401 12624 c0 -11 3 -14 6 -6 3 7 2 16 -1 19 -3 4 -6 -2 -5 -13z"/>
<path d="M3381 12464 c0 -11 3 -14 6 -6 3 7 2 16 -1 19 -3 4 -6 -2 -5 -13z"/>
<path d="M12422 12440 c0 -14 2 -19 5 -12 2 6 2 18 0 25 -3 6 -5 1 -5 -13z"/>
<path d="M12506 12395 c4 -8 8 -15 10 -15 2 0 4 7 4 15 0 8 -4 15 -10 15 -5 0
-7 -7 -4 -15z"/>
<path d="M12482 12376 c7 -8 15 -12 17 -11 5 6 -10 25 -20 25 -5 0 -4 -6 3
-14z"/>
<path d="M12433 12347 c2 -24 3 -24 20 -10 19 18 23 28 6 17 -6 -3 -15 -1 -19
6 -5 8 -8 4 -7 -13z"/>
<path d="M12510 12350 c-9 -6 -10 -10 -3 -10 6 0 15 5 18 10 8 12 4 12 -15 0z"/>
<path d="M14938 12092 c-161 -161 -258 -265 -258 -277 0 -14 26 6 97 75 54 52
100 97 103 100 3 3 75 74 161 158 l155 152 320 -314 319 -315 -318 -319 -318
-318 -222 216 c-122 119 -239 232 -259 250 l-38 32 0 -25 c0 -20 54 -79 248
-271 l247 -246 -166 -166 -166 -166 -81 77 c-45 43 -82 72 -82 65 0 -7 29 -45
65 -85 36 -40 65 -76 65 -79 0 -4 -27 -36 -60 -70 -40 -41 -62 -74 -67 -97 -6
-33 -3 -31 93 59 54 51 171 164 259 252 l160 159 155 -152 c85 -83 266 -262
403 -396 240 -238 247 -244 247 -211 0 27 -9 44 -42 77 l-42 43 42 43 c26 26
42 52 42 67 0 22 -5 20 -54 -29 l-54 -54 -157 154 -156 153 211 211 c165 165
211 217 208 234 -2 17 -41 -17 -218 -194 -118 -118 -219 -215 -224 -215 -4 0
-82 71 -171 158 l-164 157 391 385 c370 366 390 387 387 417 l-4 33 -63 -60
c-34 -33 -66 -60 -70 -60 -5 1 -667 645 -667 650 0 0 -116 -116 -257 -258z"/>
<path d="M12450 12255 c-7 -9 -11 -17 -9 -20 3 -2 10 5 17 15 14 24 10 26 -8
5z"/>
<path d="M12445 12210 c-3 -5 -1 -10 4 -10 6 0 11 5 11 10 0 6 -2 10 -4 10 -3
0 -8 -4 -11 -10z"/>
<path d="M12513 12165 c0 -22 2 -30 4 -17 2 12 2 30 0 40 -3 9 -5 -1 -4 -23z"/>
<path d="M12536 12155 c-3 -8 -1 -15 4 -15 6 0 10 7 10 15 0 8 -2 15 -4 15 -2
0 -6 -7 -10 -15z"/>
<path d="M12451 12064 c0 -11 3 -14 6 -6 3 7 2 16 -1 19 -3 4 -6 -2 -5 -13z"/>
<path d="M3375 12010 c-3 -6 1 -7 9 -4 18 7 21 14 7 14 -6 0 -13 -4 -16 -10z"/>
<path d="M3341 11854 c0 -11 3 -14 6 -6 3 7 2 16 -1 19 -3 4 -6 -2 -5 -13z"/>
<path d="M3312 11805 c-7 -14 -12 -34 -12 -43 1 -9 7 1 15 23 16 45 14 58 -3
20z"/>
<path d="M3543 11765 c0 -8 4 -12 9 -9 5 3 6 10 3 15 -9 13 -12 11 -12 -6z"/>
<path d="M3346 11735 c-9 -26 -7 -32 5 -12 6 10 9 21 6 23 -2 3 -7 -2 -11 -11z"/>
<path d="M3376 11705 c-3 -9 -6 -24 -5 -33 0 -9 5 -4 10 12 9 32 6 48 -5 21z"/>
<path d="M3315 11700 c-3 -5 -1 -10 4 -10 6 0 11 5 11 10 0 6 -2 10 -4 10 -3
0 -8 -4 -11 -10z"/>
<path d="M3296 11677 c3 -10 9 -15 12 -12 3 3 0 11 -7 18 -10 9 -11 8 -5 -6z"/>
<path d="M122 11527 c-90 -90 -122 -129 -122 -147 0 -21 19 -6 124 99 l125
124 68 -64 c65 -61 625 -611 823 -807 l94 -94 -158 -155 -158 -155 -106 103
c-59 57 -156 154 -217 215 -60 61 -163 162 -228 224 l-118 114 -124 -124 c-93
-93 -125 -131 -125 -150 0 -21 18 -7 125 100 l124 124 58 -55 c31 -30 176
-171 321 -314 l263 -260 -319 -317 -318 -318 -125 120 c-68 66 -125 120 -126
120 -2 0 -3 -15 -3 -33 0 -29 12 -45 78 -109 42 -42 93 -92 112 -112 l34 -36
-113 -114 c-101 -102 -112 -116 -109 -144 3 -32 3 -31 127 89 l123 121 227
-225 c124 -124 302 -299 395 -389 93 -90 253 -245 355 -345 168 -164 186 -179
189 -155 3 21 -28 57 -200 231 -112 113 -212 216 -223 229 l-19 23 222 222
c129 129 222 231 222 241 0 19 -37 -14 -328 -299 -73 -71 -137 -131 -141 -133
-11 -4 -312 289 -309 299 2 5 178 184 392 398 260 260 387 394 384 405 -2 12
-105 -83 -343 -316 -187 -183 -369 -361 -406 -395 l-65 -62 -163 161 -162 162
571 565 c497 493 571 570 570 595 l0 29 -22 -19 c-13 -10 -47 -42 -78 -71 -30
-28 -58 -53 -62 -55 -3 -2 -230 218 -502 487 -273 270 -500 491 -504 493 -4 1
-62 -53 -130 -121z"/>
<path d="M12501 11594 c0 -11 3 -14 6 -6 3 7 2 16 -1 19 -3 4 -6 -2 -5 -13z"/>
<path d="M12592 11560 c0 -14 2 -19 5 -12 2 6 2 18 0 25 -3 6 -5 1 -5 -13z"/>
<path d="M3351 11424 c0 -11 3 -14 6 -6 3 7 2 16 -1 19 -3 4 -6 -2 -5 -13z"/>
<path d="M12591 11394 c0 -11 3 -14 6 -6 3 7 2 16 -1 19 -3 4 -6 -2 -5 -13z"/>
<path d="M3281 11356 c17 -18 73 -30 63 -14 -3 5 -12 7 -19 4 -7 -2 -23 3 -36
11 -23 15 -23 15 -8 -1z"/>
<path d="M3336 11307 c3 -10 9 -15 12 -12 3 3 0 11 -7 18 -10 9 -11 8 -5 -6z"/>
<path d="M12510 11295 c0 -5 5 -17 10 -25 5 -8 10 -10 10 -5 0 6 -5 17 -10 25
-5 8 -10 11 -10 5z"/>
<path d="M12612 11282 c-9 -7 -8 -13 8 -27 11 -10 20 -13 20 -7 0 7 -5 12 -11
12 -6 0 -9 7 -5 15 6 17 6 18 -12 7z"/>
<path d="M3313 11198 c0 -13 1 -17 4 -10 3 6 10 9 16 5 7 -4 6 1 -2 10 -17 21
-17 21 -18 -5z"/>
<path d="M12250 11206 c0 -2 8 -10 18 -17 15 -13 16 -12 3 4 -13 16 -21 21
-21 13z"/>
<path d="M12523 11116 c0 -8 6 -12 14 -9 7 3 10 9 7 14 -8 14 -21 11 -21 -5z"/>
<path d="M3301 11074 c0 -11 3 -14 6 -6 3 7 2 16 -1 19 -3 4 -6 -2 -5 -13z"/>
<path d="M3291 11024 c0 -11 3 -14 6 -6 3 7 2 16 -1 19 -3 4 -6 -2 -5 -13z"/>
<path d="M12525 10980 c3 -5 8 -10 11 -10 2 0 4 5 4 10 0 6 -5 10 -11 10 -5 0
-7 -4 -4 -10z"/>
<path d="M12580 10933 c0 -6 7 -16 15 -23 13 -11 18 -11 28 0 10 10 9 11 -2 5
-9 -5 -19 -1 -28 10 -7 11 -13 14 -13 8z"/>
<path d="M3312 10840 c0 -14 2 -19 5 -12 2 6 2 18 0 25 -3 6 -5 1 -5 -13z"/>
<path d="M12570 10826 c0 -2 8 -10 18 -17 15 -13 16 -12 3 4 -13 16 -21 21
-21 13z"/>
<path d="M12285 10801 c-3 -5 -2 -12 3 -15 5 -3 9 1 9 9 0 17 -3 19 -12 6z"/>
<path d="M12542 10770 c0 -14 2 -19 5 -12 2 6 2 18 0 25 -3 6 -5 1 -5 -13z"/>
<path d="M3240 10769 c0 -5 5 -7 10 -4 6 3 10 8 10 11 0 2 -4 4 -10 4 -5 0
-10 -5 -10 -11z"/>
<path d="M3232 10744 c10 -10 20 -15 24 -12 3 4 -5 12 -18 18 -22 12 -22 12
-6 -6z"/>
<path d="M3207 10664 c7 -3 9 -13 6 -22 -4 -14 -3 -14 5 -2 12 16 7 30 -11 29
-9 0 -9 -2 0 -5z"/>
<path d="M12551 10634 c0 -11 3 -14 6 -6 3 7 2 16 -1 19 -3 4 -6 -2 -5 -13z"/>
<path d="M12652 10600 c0 -14 2 -19 5 -12 2 6 2 18 0 25 -3 6 -5 1 -5 -13z"/>
<path d="M12690 10370 c0 -5 5 -10 10 -10 6 0 10 5 10 10 0 6 -4 10 -10 10 -5
0 -10 -4 -10 -10z"/>
<path d="M3282 10325 c0 -16 2 -22 5 -12 2 9 2 23 0 30 -3 6 -5 -1 -5 -18z"/>
<path d="M14934 10025 c-140 -140 -254 -262 -254 -272 0 -20 19 -3 310 284
l205 201 400 -394 c331 -326 401 -390 403 -372 3 18 -74 100 -395 415 -219
216 -402 392 -407 393 -5 0 -123 -115 -262 -255z"/>
<path d="M12636 10148 c3 -5 10 -6 15 -3 13 9 11 12 -6 12 -8 0 -12 -4 -9 -9z"/>
<path d="M12679 10158 c-7 -23 -5 -37 4 -35 7 1 11 -4 10 -10 -4 -18 2 -16 18
5 7 9 9 14 5 10 -11 -10 -38 11 -30 23 3 5 3 9 0 9 -3 0 -6 -1 -7 -2z"/>
<path d="M3176 10105 c-9 -26 -7 -32 5 -12 6 10 9 21 6 23 -2 3 -7 -2 -11 -11z"/>
<path d="M3225 10070 c-3 -5 -1 -10 4 -10 6 0 11 5 11 10 0 6 -2 10 -4 10 -3
0 -8 -4 -11 -10z"/>
<path d="M12646 10045 c4 -8 11 -15 16 -15 6 0 5 6 -2 15 -7 8 -14 15 -16 15
-2 0 -1 -7 2 -15z"/>
<path d="M3214 9980 c0 -13 4 -16 10 -10 7 7 7 13 0 20 -6 6 -10 3 -10 -10z"/>
<path d="M3249 9973 c-13 -16 -12 -17 4 -4 9 7 17 15 17 17 0 8 -8 3 -21 -13z"/>
<path d="M12720 9951 c0 -5 5 -13 10 -16 6 -3 10 -2 10 4 0 5 -4 13 -10 16 -5
3 -10 2 -10 -4z"/>
<path d="M3171 9934 c0 -11 3 -14 6 -6 3 7 2 16 -1 19 -3 4 -6 -2 -5 -13z"/>
<path d="M12602 9815 c0 -11 3 -29 8 -40 11 -25 11 1 0 35 -6 20 -8 21 -8 5z"/>
<path d="M3241 9604 c0 -11 3 -14 6 -6 3 7 2 16 -1 19 -3 4 -6 -2 -5 -13z"/>
<path d="M14936 9358 c-165 -163 -256 -260 -256 -273 0 -14 29 9 108 86 59 58
174 172 256 252 l149 146 166 -159 c91 -87 235 -228 320 -313 l154 -155 -19
-24 c-35 -43 -611 -608 -620 -608 -5 0 -106 97 -224 216 -118 118 -232 229
-252 246 l-38 30 0 -27 c0 -22 46 -72 248 -271 l247 -244 -166 -166 -166 -166
-78 76 c-43 42 -79 76 -80 76 -1 0 -2 -7 -2 -16 0 -9 32 -48 70 -85 l69 -69
-71 -73 c-45 -47 -71 -82 -71 -96 0 -13 5 -21 10 -19 6 2 119 109 251 238 133
129 247 236 253 237 6 2 189 -172 406 -386 376 -370 395 -387 398 -358 3 24
-5 38 -39 73 l-43 44 42 43 c26 26 42 52 42 67 0 22 -5 19 -55 -30 l-55 -54
-155 154 -155 154 210 211 c158 158 210 216 210 234 0 20 -40 -15 -220 -193
-121 -120 -224 -216 -229 -214 -14 4 -321 309 -321 317 0 4 173 177 385 385
364 357 385 380 385 413 l0 36 -64 -61 c-35 -34 -68 -62 -73 -62 -4 0 -154
144 -332 320 -177 176 -327 320 -331 320 -4 0 -123 -114 -264 -252z"/>
<path d="M12741 9534 c0 -11 3 -14 6 -6 3 7 2 16 -1 19 -3 4 -6 -2 -5 -13z"/>
<path d="M3179 9473 c-13 -16 -12 -17 4 -4 16 13 21 21 13 21 -2 0 -10 -8 -17
-17z"/>
<path d="M12686 9428 c3 -5 10 -6 15 -3 13 9 11 12 -6 12 -8 0 -12 -4 -9 -9z"/>
<path d="M12735 9390 c3 -5 8 -10 11 -10 2 0 4 5 4 10 0 6 -5 10 -11 10 -5 0
-7 -4 -4 -10z"/>
<path d="M3150 9366 c0 -2 8 -10 18 -17 15 -13 16 -12 3 4 -13 16 -21 21 -21
13z"/>
<path d="M3204 9299 c-4 -7 -3 -9 4 -5 5 3 13 0 15 -6 4 -9 6 -10 6 -1 1 17
-16 25 -25 12z"/>
<path d="M12631 9244 c0 -11 3 -14 6 -6 3 7 2 16 -1 19 -3 4 -6 -2 -5 -13z"/>
<path d="M12777 9179 c7 -7 15 -10 18 -7 3 3 -2 9 -12 12 -14 6 -15 5 -6 -5z"/>
<path d="M3211 9144 c0 -11 3 -14 6 -6 3 7 2 16 -1 19 -3 4 -6 -2 -5 -13z"/>
<path d="M122 8797 c-90 -90 -122 -129 -122 -147 0 -21 19 -6 125 100 l124
124 213 -210 c117 -115 338 -333 491 -484 l278 -275 -156 -154 -157 -154 -111
109 c-61 60 -147 146 -192 190 -44 45 -144 144 -223 220 l-143 138 -124 -124
c-93 -93 -125 -131 -125 -150 0 -21 18 -7 125 100 l124 124 73 -70 c39 -38
184 -179 321 -314 l249 -245 -317 -315 c-174 -173 -317 -316 -319 -318 -2 -1
-60 52 -129 119 -126 120 -127 121 -127 88 0 -29 14 -48 112 -146 l113 -113
-113 -112 c-100 -101 -112 -116 -112 -147 l0 -36 125 125 124 124 137 -134
c76 -74 165 -162 199 -195 34 -33 180 -177 326 -320 543 -534 511 -504 507
-467 -3 28 -36 66 -226 255 l-223 223 225 225 c132 131 226 232 226 243 0 21
-120 -87 -335 -303 l-139 -140 -153 151 c-84 84 -153 155 -153 158 0 3 176
181 391 396 250 250 390 397 387 407 -2 11 -56 -36 -168 -146 -91 -89 -272
-267 -404 -395 l-238 -233 -72 68 c-39 37 -113 109 -165 160 l-93 93 566 561
c317 314 569 572 572 585 12 48 -3 42 -81 -30 l-80 -74 -289 286 c-386 383
-707 696 -715 700 -3 1 -61 -53 -129 -121z"/>
<path d="M3070 8911 c0 -6 4 -13 10 -16 6 -3 7 1 4 9 -7 18 -14 21 -14 7z"/>
<path d="M3080 8833 c0 -6 8 -17 18 -24 16 -13 16 -13 2 6 -8 11 -16 22 -17
24 -2 2 -3 0 -3 -6z"/>
<path d="M3136 8686 c6 -15 4 -17 -6 -11 -9 6 -11 4 -5 -4 5 -9 10 -10 18 -2
8 8 7 14 -2 24 -10 10 -11 8 -5 -7z"/>
<path d="M12671 8624 c0 -11 3 -14 6 -6 3 7 2 16 -1 19 -3 4 -6 -2 -5 -13z"/>
<path d="M3142 8500 c0 -14 2 -19 5 -12 2 6 2 18 0 25 -3 6 -5 1 -5 -13z"/>
<path d="M12769 8503 c-12 -16 -12 -17 2 -6 9 7 20 9 24 5 5 -4 5 -1 1 6 -9
16 -11 15 -27 -5z"/>
<path d="M12729 8463 c-13 -16 -12 -17 4 -4 9 7 17 15 17 17 0 8 -8 3 -21 -13z"/>
<path d="M12750 8440 c-9 -6 -10 -10 -3 -10 6 0 15 5 18 10 8 12 4 12 -15 0z"/>
<path d="M12592 8337 l-82 -83 88 -87 89 -86 -1 123 c-1 70 -5 122 -10 118 -5
-3 -7 18 -4 47 3 28 5 51 4 51 -1 0 -39 -37 -84 -83z"/>
<path d="M12831 8324 c0 -11 3 -14 6 -6 3 7 2 16 -1 19 -3 4 -6 -2 -5 -13z"/>
<path d="M12831 8254 c0 -11 3 -14 6 -6 3 7 2 16 -1 19 -3 4 -6 -2 -5 -13z"/>
<path d="M3065 8180 c3 -5 8 -10 11 -10 2 0 4 5 4 10 0 6 -5 10 -11 10 -5 0
-7 -4 -4 -10z"/>
<path d="M12850 8155 c0 -5 5 -17 10 -25 5 -8 10 -10 10 -5 0 6 -5 17 -10 25
-5 8 -10 11 -10 5z"/>
<path d="M12324 8109 c-4 -7 -3 -9 4 -5 5 3 13 0 15 -6 4 -9 6 -10 6 -1 1 17
-16 25 -25 12z"/>
<path d="M3018 8103 c7 -3 16 -2 19 1 4 3 -2 6 -13 5 -11 0 -14 -3 -6 -6z"/>
<path d="M12821 7973 c-2 -20 16 -24 30 -5 13 15 12 16 -3 4 -13 -10 -17 -10
-21 0 -4 9 -6 9 -6 1z"/>
<path d="M3135 7930 c-3 -5 -1 -10 4 -10 6 0 11 5 11 10 0 6 -2 10 -4 10 -3 0
-8 -4 -11 -10z"/>
<path d="M12805 7860 c10 -11 20 -20 23 -20 3 0 -3 9 -13 20 -10 11 -20 20
-23 20 -3 0 3 -9 13 -20z"/>
<path d="M2991 7824 c0 -11 3 -14 6 -6 3 7 2 16 -1 19 -3 4 -6 -2 -5 -13z"/>
<path d="M3130 7811 c0 -25 6 -27 13 -6 4 8 2 17 -3 20 -6 4 -10 -3 -10 -14z"/>
<path d="M3131 7744 c0 -11 3 -14 6 -6 3 7 2 16 -1 19 -3 4 -6 -2 -5 -13z"/>
<path d="M12885 7735 c0 -13 2 -26 5 -29 3 -3 6 5 5 19 0 13 -2 26 -5 29 -3 3
-6 -5 -5 -19z"/>
<path d="M3001 7664 c0 -11 3 -14 6 -6 3 7 2 16 -1 19 -3 4 -6 -2 -5 -13z"/>
<path d="M3131 7673 c-1 -6 -4 -20 -7 -30 -5 -17 -5 -17 6 0 6 10 9 23 6 30
-3 9 -5 9 -5 0z"/>
<path d="M14941 7305 c-159 -157 -251 -255 -254 -271 -5 -26 14 -8 358 328
l150 147 155 -153 c559 -553 645 -635 649 -613 3 18 -76 100 -395 415 -219
215 -402 392 -406 392 -4 0 -119 -110 -257 -245z"/>
<path d="M2976 7505 c-9 -26 -7 -32 5 -12 6 10 9 21 6 23 -2 3 -7 -2 -11 -11z"/>
<path d="M3121 7474 c0 -11 3 -14 6 -6 3 7 2 16 -1 19 -3 4 -6 -2 -5 -13z"/>
<path d="M12735 7439 c-4 -5 -4 -13 -1 -16 3 -4 6 0 7 8 1 8 5 3 9 -11 7 -23
8 -23 9 -3 1 25 -14 39 -24 22z"/>
<path d="M12754 7349 c-10 -17 13 -36 27 -22 12 12 4 33 -11 33 -5 0 -12 -5
-16 -11z m26 -9 c0 -5 -4 -10 -10 -10 -5 0 -10 5 -10 10 0 6 5 10 10 10 6 0
10 -4 10 -10z"/>
<path d="M3380 7331 c0 -5 7 -12 16 -15 14 -5 15 -4 4 9 -14 17 -20 19 -20 6z"/>
<path d="M3370 7299 c0 -5 -5 -7 -12 -3 -7 4 -8 3 -4 -4 4 -6 13 -9 21 -6 8 4
12 10 9 15 -7 12 -14 11 -14 -2z"/>
<path d="M12793 7275 c0 -8 4 -12 9 -9 5 3 6 10 3 15 -9 13 -12 11 -12 -6z"/>
<path d="M12852 7204 c9 -11 27 -20 39 -21 23 -2 20 7 -4 11 -8 1 -23 8 -33
16 -18 14 -18 14 -2 -6z"/>
<path d="M12790 7171 c0 -6 4 -13 10 -16 6 -3 7 1 4 9 -7 18 -14 21 -14 7z"/>
<path d="M12770 7155 c0 -5 5 -17 10 -25 5 -8 10 -10 10 -5 0 6 -5 17 -10 25
-5 8 -10 11 -10 5z"/>
<path d="M3091 7124 c0 -11 3 -14 6 -6 3 7 2 16 -1 19 -3 4 -6 -2 -5 -13z"/>
<path d="M12850 7111 c0 -6 4 -13 10 -16 6 -3 7 1 4 9 -7 18 -14 21 -14 7z"/>
<path d="M2930 7075 c0 -5 5 -17 10 -25 5 -8 10 -10 10 -5 0 6 -5 17 -10 25
-5 8 -10 11 -10 5z"/>
<path d="M12751 7054 c0 -11 3 -14 6 -6 3 7 2 16 -1 19 -3 4 -6 -2 -5 -13z"/>
<path d="M2971 7024 c0 -11 3 -14 6 -6 3 7 2 16 -1 19 -3 4 -6 -2 -5 -13z"/>
<path d="M12771 7024 c0 -11 3 -14 6 -6 3 7 2 16 -1 19 -3 4 -6 -2 -5 -13z"/>
<path d="M2994 6988 l-29 -33 33 29 c30 28 37 36 29 36 -2 0 -16 -15 -33 -32z"/>
<path d="M3025 6909 c-4 -6 -5 -12 -2 -15 2 -3 7 2 10 11 7 17 1 20 -8 4z"/>
<path d="M14943 6638 c-223 -225 -273 -282 -260 -295 3 -2 120 108 259 245
l254 251 317 -311 c174 -170 317 -313 317 -317 0 -9 -616 -624 -629 -629 -5
-2 -121 107 -259 243 -138 135 -253 245 -256 245 -3 0 -6 -11 -6 -24 0 -17 64
-88 245 -272 l245 -249 -162 -162 -162 -162 -83 75 c-62 56 -83 71 -83 57 0
-11 32 -49 71 -86 l72 -68 -72 -73 c-65 -68 -90 -116 -60 -116 6 0 52 42 103
93 50 50 161 161 246 244 l155 152 400 -393 c380 -374 400 -392 403 -363 3 24
-5 38 -39 73 l-43 44 42 43 c26 26 42 52 42 67 0 22 -5 19 -55 -30 l-55 -55
-155 155 -155 155 210 210 c161 161 210 216 210 235 0 21 -38 -13 -218 -193
-119 -119 -222 -217 -227 -217 -6 0 -82 72 -170 161 l-160 160 388 382 c365
359 388 384 387 417 l0 34 -67 -66 -68 -67 -330 324 c-181 178 -335 324 -340
325 -6 0 -119 -109 -252 -242z"/>
<path d="M2986 6795 c9 -14 20 -25 25 -25 5 0 -1 11 -13 25 -12 14 -23 25 -25
25 -2 0 4 -11 13 -25z"/>
<path d="M2950 6785 c-10 -12 -10 -21 -1 -38 l11 -22 -6 23 c-3 13 0 29 6 37
7 8 10 15 7 15 -2 0 -10 -7 -17 -15z"/>
<path d="M12385 6779 c-4 -6 -5 -12 -2 -15 2 -3 7 2 10 11 7 17 1 20 -8 4z"/>
<path d="M3030 6756 c0 -2 8 -10 18 -17 15 -13 16 -12 3 4 -13 16 -21 21 -21
13z"/>
<path d="M3078 6713 c7 -3 16 -2 19 1 4 3 -2 6 -13 5 -11 0 -14 -3 -6 -6z"/>
<path d="M12972 6660 c0 -14 2 -19 5 -12 2 6 2 18 0 25 -3 6 -5 1 -5 -13z"/>
<path d="M2916 6624 c-4 -9 -4 -19 -1 -22 2 -3 7 3 11 12 4 9 4 19 1 22 -2 3
-7 -3 -11 -12z"/>
<path d="M12785 6631 c-3 -5 -2 -12 3 -15 5 -3 9 1 9 9 0 17 -3 19 -12 6z"/>
<path d="M3383 6605 c0 -8 4 -12 9 -9 5 3 6 10 3 15 -9 13 -12 11 -12 -6z"/>
<path d="M3061 6594 c0 -11 3 -14 6 -6 3 7 2 16 -1 19 -3 4 -6 -2 -5 -13z"/>
<path d="M12827 6560 c31 -35 30 -34 30 -15 0 8 -4 12 -8 9 -4 -2 -13 5 -19
16 -6 11 -15 20 -20 20 -6 0 2 -13 17 -30z"/>
<path d="M3345 6509 c-8 -12 1 -24 18 -24 7 -1 11 -7 9 -14 -1 -7 2 -10 8 -6
8 5 8 11 -1 21 -6 7 -16 11 -22 7 -6 -4 -8 0 -4 10 7 19 2 23 -8 6z"/>
<path d="M3050 6495 c0 -5 5 -17 10 -25 5 -8 10 -10 10 -5 0 6 -5 17 -10 25
-5 8 -10 11 -10 5z"/>
<path d="M12960 6480 c-13 -8 -13 -10 2 -10 9 0 20 5 23 10 8 13 -5 13 -25 0z"/>
<path d="M12836 6465 c4 -8 11 -15 16 -15 6 0 5 6 -2 15 -7 8 -14 15 -16 15
-2 0 -1 -7 2 -15z"/>
<path d="M12910 6476 c0 -2 8 -10 18 -17 15 -13 16 -12 3 4 -13 16 -21 21 -21
13z"/>
<path d="M2901 6454 c0 -11 3 -14 6 -6 3 7 2 16 -1 19 -3 4 -6 -2 -5 -13z"/>
<path d="M12916 6385 c4 -8 11 -15 16 -15 6 0 5 6 -2 15 -7 8 -14 15 -16 15
-2 0 -1 -7 2 -15z"/>
<path d="M12920 6356 c0 -2 8 -10 18 -17 15 -13 16 -12 3 4 -13 16 -21 21 -21
13z"/>
<path d="M12990 6240 c0 -5 5 -10 11 -10 5 0 7 5 4 10 -3 6 -8 10 -11 10 -2 0
-4 -4 -4 -10z"/>
<path d="M2950 6230 c-9 -6 -10 -10 -3 -10 6 0 15 5 18 10 8 12 4 12 -15 0z"/>
<path d="M121 6066 c-93 -93 -122 -128 -119 -145 2 -18 23 -2 126 100 l124
122 201 -199 c111 -109 332 -327 490 -484 l288 -284 -149 -148 c-82 -81 -154
-149 -159 -150 -6 -2 -157 141 -337 317 -180 176 -330 321 -334 323 -4 1 -63
-54 -131 -121 -92 -93 -122 -129 -119 -145 2 -18 23 -1 125 99 l123 121 320
-313 320 -312 -57 -61 c-32 -34 -175 -177 -318 -319 l-261 -258 -124 123 -125
123 -3 -34 c-3 -32 5 -42 110 -148 l113 -113 -113 -113 c-100 -100 -112 -116
-112 -147 l0 -35 125 125 125 125 198 -195 c697 -689 649 -645 690 -648 l37
-3 -102 103 -103 103 226 227 c151 151 225 232 222 244 -2 12 -71 -50 -239
-214 l-236 -231 -151 152 c-84 84 -152 155 -152 158 0 3 173 178 385 390 350
349 407 411 392 425 -2 3 -183 -172 -402 -388 -218 -216 -400 -394 -404 -396
-3 -1 -80 70 -169 159 l-163 160 571 567 c505 500 572 570 569 593 -4 26 -7
24 -83 -47 l-80 -75 -253 253 c-338 337 -747 738 -753 738 -3 0 -61 -56 -129
-124z"/>
<path d="M2990 6186 c0 -2 7 -9 15 -16 13 -11 14 -10 9 4 -5 14 -24 23 -24 12z"/>
<path d="M2880 6153 c5 -2 8 -9 4 -14 -3 -5 0 -9 6 -9 15 0 7 23 -8 26 -7 1
-8 0 -2 -3z"/>
<path d="M3020 6146 c0 -2 7 -7 16 -10 8 -3 12 -2 9 4 -6 10 -25 14 -25 6z"/>
<path d="M2972 6120 c2 -9 -3 -14 -12 -12 -8 2 -11 0 -7 -5 5 -4 12 -7 15 -6
4 1 12 -3 19 -8 21 -18 23 8 2 27 -15 14 -20 15 -17 4z"/>
<path d="M12989 6103 c-13 -16 -12 -17 4 -4 9 7 17 15 17 17 0 8 -8 3 -21 -13z"/>
<path d="M3010 6060 c0 -5 5 -10 11 -10 5 0 7 5 4 10 -3 6 -8 10 -11 10 -2 0
-4 -4 -4 -10z"/>
<path d="M12901 6020 c-13 -16 -29 -26 -34 -23 -6 4 -7 1 -2 -6 5 -9 17 -4 41
20 19 18 34 34 34 36 0 11 -19 -2 -39 -27z"/>
<path d="M12979 5973 c-13 -16 -12 -17 4 -4 9 7 17 15 17 17 0 8 -8 3 -21 -13z"/>
<path d="M12841 5963 c-7 -8 -11 -16 -8 -19 2 -2 10 2 17 11 17 20 9 27 -9 8z"/>
<path d="M2857 5909 c4 -13 8 -18 11 -10 2 7 -1 18 -6 23 -8 8 -9 4 -5 -13z"/>
<path d="M13010 5901 c0 -11 4 -22 9 -25 4 -3 6 6 3 19 -5 30 -12 33 -12 6z"/>
<path d="M12662 5678 l-154 -153 163 -157 c89 -87 165 -155 167 -153 7 7 3
133 -8 300 -12 175 -13 241 -6 283 3 17 2 32 -2 32 -4 0 -76 -69 -160 -152z
m-45 -180 c-2 -18 -4 -6 -4 27 0 33 2 48 4 33 2 -15 2 -42 0 -60z"/>
<path d="M2845 5801 c-3 -5 -1 -12 5 -16 5 -3 10 1 10 9 0 18 -6 21 -15 7z"/>
<path d="M12862 5765 c0 -16 2 -22 5 -12 2 9 2 23 0 30 -3 6 -5 -1 -5 -18z"/>
<path d="M12825 5759 c-4 -6 -5 -12 -2 -15 2 -3 7 2 10 11 7 17 1 20 -8 4z"/>
<path d="M3010 5676 c0 -9 5 -16 10 -16 6 0 10 4 10 9 0 6 -4 13 -10 16 -5 3
-10 -1 -10 -9z"/>
<path d="M3003 5522 c2 -12 6 -24 10 -28 3 -4 4 4 2 16 -6 30 -16 40 -12 12z"/>
<path d="M2914 5500 c0 -13 4 -16 10 -10 7 7 7 13 0 20 -6 6 -10 3 -10 -10z"/>
<path d="M12405 5461 c-3 -5 -2 -12 3 -15 5 -3 9 1 9 9 0 17 -3 19 -12 6z"/>
<path d="M2820 5453 c0 -7 5 -15 10 -18 8 -5 7 -11 -1 -21 -7 -8 -7 -14 -1
-14 17 0 20 25 6 45 -8 10 -14 14 -14 8z"/>
<path d="M12990 5415 c-7 -8 -9 -15 -6 -15 4 0 14 7 22 15 9 8 11 15 6 15 -5
0 -15 -7 -22 -15z"/>
<path d="M12969 5383 c0 -5 -2 -16 -4 -26 -2 -11 -1 -16 3 -13 8 8 14 46 7 46
-3 0 -5 -3 -6 -7z"/>
<path d="M13015 5313 c-16 -13 -17 -15 -2 -10 18 7 24 -8 7 -16 -6 -3 -5 -4 2
-3 7 1 14 12 14 24 1 12 1 22 0 22 0 0 -10 -8 -21 -17z"/>
<path d="M12880 5301 c0 -6 4 -13 10 -16 6 -3 7 1 4 9 -7 18 -14 21 -14 7z"/>
<path d="M12850 5250 c0 -5 5 -10 10 -10 6 0 10 5 10 10 0 6 -4 10 -10 10 -5
0 -10 -4 -10 -10z"/>
<path d="M12920 5206 c7 -7 13 -7 20 0 6 6 3 10 -10 10 -13 0 -16 -4 -10 -10z"/>
<path d="M3280 5190 c0 -5 5 -10 11 -10 5 0 7 -5 3 -12 -4 -7 -3 -8 5 -4 9 6
9 11 0 22 -14 17 -19 18 -19 4z"/>
<path d="M12875 5170 c3 -5 8 -10 11 -10 2 0 4 5 4 10 0 6 -5 10 -11 10 -5 0
-7 -4 -4 -10z"/>
<path d="M2971 5124 c0 -11 3 -14 6 -6 3 7 2 16 -1 19 -3 4 -6 -2 -5 -13z"/>
<path d="M12930 5126 c0 -2 8 -10 18 -17 15 -13 16 -12 3 4 -13 16 -21 21 -21
13z"/>
<path d="M12928 4993 c7 -3 16 -2 19 1 4 3 -2 6 -13 5 -11 0 -14 -3 -6 -6z"/>
<path d="M12954 4978 c-4 -7 -3 -10 1 -5 5 4 18 -1 29 -10 21 -18 21 -18 2 5
-22 26 -23 26 -32 10z"/>
<path d="M2781 4954 c0 -11 3 -14 6 -6 3 7 2 16 -1 19 -3 4 -6 -2 -5 -13z"/>
<path d="M13020 4909 c0 -5 5 -7 10 -4 6 3 10 8 10 11 0 2 -4 4 -10 4 -5 0
-10 -5 -10 -11z"/>
<path d="M13035 4891 c-4 -7 1 -8 12 -4 16 6 16 5 4 -10 -12 -15 -12 -17 3
-11 9 4 15 11 13 17 -5 15 -24 20 -32 8z"/>
<path d="M2782 4820 c0 -14 2 -19 5 -12 2 6 2 18 0 25 -3 6 -5 1 -5 -13z"/>
<path d="M13072 4824 c-7 -8 -8 -14 -3 -14 10 0 25 19 20 25 -2 1 -10 -3 -17
-11z"/>
<path d="M14939 4570 c-218 -218 -271 -280 -242 -280 5 0 118 110 253 245
l245 244 400 -393 c324 -319 401 -389 404 -372 2 16 -82 105 -395 413 -220
216 -403 392 -407 393 -5 0 -121 -112 -258 -250z"/>
<path d="M12902 4650 c0 -14 2 -19 5 -12 2 6 2 18 0 25 -3 6 -5 1 -5 -13z"/>
<path d="M12921 4514 c0 -11 3 -14 6 -6 3 7 2 16 -1 19 -3 4 -6 -2 -5 -13z"/>
<path d="M3261 4477 c-8 -10 -7 -14 2 -14 8 0 14 6 14 14 0 7 -1 13 -2 13 -2
0 -8 -6 -14 -13z"/>
<path d="M2775 4420 c21 -24 26 -25 19 -6 -3 8 -13 17 -22 21 -13 5 -13 2 3
-15z"/>
<path d="M2820 4382 c0 -5 11 -19 25 -32 14 -13 25 -20 25 -16 0 4 -11 18 -25
32 -14 14 -25 21 -25 16z"/>
<path d="M2941 4344 c0 -11 3 -14 6 -6 3 7 2 16 -1 19 -3 4 -6 -2 -5 -13z"/>
<path d="M12980 4350 c0 -5 5 -10 11 -10 5 0 7 5 4 10 -3 6 -8 10 -11 10 -2 0
-4 -4 -4 -10z"/>
<path d="M12940 4300 c0 -5 5 -10 11 -10 5 0 7 5 4 10 -3 6 -8 10 -11 10 -2 0
-4 -4 -4 -10z"/>
<path d="M2926 4277 c3 -10 9 -15 12 -12 3 3 0 11 -7 18 -10 9 -11 8 -5 -6z"/>
<path d="M13056 4277 c3 -10 9 -15 12 -12 3 3 0 11 -7 18 -10 9 -11 8 -5 -6z"/>
<path d="M12961 4271 c-10 -6 -9 -10 3 -14 8 -3 18 -2 21 3 8 13 -9 20 -24 11z"/>
<path d="M2805 4250 c-3 -6 1 -7 9 -4 18 7 21 14 7 14 -6 0 -13 -4 -16 -10z"/>
<path d="M13130 4206 c0 -2 8 -10 18 -17 15 -13 16 -12 3 4 -13 16 -21 21 -21
13z"/>
<path d="M2885 4181 c-3 -5 -2 -12 3 -15 5 -3 9 1 9 9 0 17 -3 19 -12 6z"/>
<path d="M12922 4155 c0 -16 2 -22 5 -12 2 9 2 23 0 30 -3 6 -5 -1 -5 -18z"/>
<path d="M14933 3898 c-139 -139 -253 -258 -253 -265 0 -7 5 -13 11 -13 6 0
121 110 256 245 136 135 248 244 249 242 109 -102 634 -621 634 -627 0 -14
-201 -205 -223 -210 -30 -8 -12 -17 48 -24 35 -4 42 -3 25 3 -21 8 -22 9 -5
10 12 1 83 64 173 154 137 138 152 156 152 187 l0 34 -63 -62 c-34 -34 -66
-62 -71 -62 -5 0 -156 144 -336 320 -180 176 -331 320 -335 320 -5 0 -123
-114 -262 -252z"/>
<path d="M13142 4050 c0 -14 2 -19 5 -12 2 6 2 18 0 25 -3 6 -5 1 -5 -13z"/>
<path d="M2889 4017 c-15 -11 -15 -14 -1 -27 14 -13 15 -12 10 2 -4 8 -1 21 5
27 15 15 6 14 -14 -2z"/>
<path d="M2745 3980 c-4 -6 -11 -7 -17 -4 -7 4 -8 2 -4 -5 6 -9 11 -9 22 0 14
11 18 19 10 19 -3 0 -8 -5 -11 -10z"/>
<path d="M3220 3901 c0 -6 4 -13 10 -16 6 -3 7 1 4 9 -7 18 -14 21 -14 7z"/>
<path d="M12941 3884 c0 -11 3 -14 6 -6 3 7 2 16 -1 19 -3 4 -6 -2 -5 -13z"/>
<path d="M3255 3871 c-3 -5 -2 -12 3 -15 5 -3 9 1 9 9 0 17 -3 19 -12 6z"/>
<path d="M3275 3840 c-3 -5 -1 -10 4 -10 6 0 11 5 11 10 0 6 -2 10 -4 10 -3 0
-8 -4 -11 -10z"/>
<path d="M2683 3794 c0 -9 4 -11 12 -4 7 5 14 9 16 7 2 -1 3 0 1 2 -7 11 -29
7 -29 -5z"/>
<path d="M2902 3735 c0 -16 2 -22 5 -12 2 9 2 23 0 30 -3 6 -5 -1 -5 -18z"/>
<path d="M12987 3669 c7 -7 15 -10 18 -7 3 3 -2 9 -12 12 -14 6 -15 5 -6 -5z"/>
<path d="M13019 3653 c-13 -16 -12 -17 4 -4 16 13 21 21 13 21 -2 0 -10 -8
-17 -17z"/>
<path d="M2681 3604 c0 -11 3 -14 6 -6 3 7 2 16 -1 19 -3 4 -6 -2 -5 -13z"/>
<path d="M12964 3601 c0 -11 5 -17 13 -14 10 4 11 9 2 19 -15 18 -15 18 -15
-5z"/>
<path d="M13086 3591 c-3 -4 7 -19 22 -32 15 -13 21 -17 15 -9 -15 17 -17 34
-3 25 6 -4 7 1 3 11 -4 11 -8 13 -11 6 -2 -7 -8 -12 -13 -12 -6 0 -7 5 -4 10
3 6 4 10 1 10 -3 0 -7 -4 -10 -9z"/>
<path d="M2671 3564 c0 -11 3 -14 6 -6 3 7 2 16 -1 19 -3 4 -6 -2 -5 -13z"/>
<path d="M13070 3489 c0 -5 5 -7 12 -3 8 5 9 1 4 -12 -5 -14 -4 -16 5 -7 6 6
8 16 5 22 -9 14 -26 14 -26 0z"/>
<path d="M152 3367 c-50 -51 -92 -96 -92 -100 0 -25 45 3 112 70 l78 78 75
-75 c49 -49 84 -75 102 -77 24 -4 15 9 -72 96 -55 56 -102 101 -105 101 -3 0
-47 -42 -98 -93z"/>
<path d="M2661 3448 c0 -9 -4 -25 -7 -35 -5 -17 -5 -17 6 0 6 10 9 25 7 35 -4
15 -5 15 -6 0z"/>
<path d="M2924 3357 c-22 -23 -40 -53 -41 -65 -2 -20 3 -22 55 -22 45 -1 53
-3 39 -11 -10 -6 -167 -60 -350 -120 -183 -60 -341 -113 -352 -118 -11 -5 -42
-15 -70 -22 -27 -6 -63 -19 -80 -27 -24 -12 -1502 -512 -1980 -669 -77 -26
-142 -48 -144 -50 -3 -2 4 -10 15 -18 19 -14 19 -14 0 -15 -11 0 -17 -3 -13
-6 3 -3 15 -3 27 1 19 6 20 8 5 19 -16 12 -9 15 535 189 69 22 130 43 135 47
6 5 192 70 415 144 223 75 470 159 550 187 422 147 1037 348 1048 344 7 -3 11
-1 8 3 -6 11 340 126 359 118 8 -3 15 -2 15 2 0 8 -123 132 -131 132 -3 0 -23
-19 -45 -43z"/>
<path d="M13056 3325 c-9 -26 -7 -32 5 -12 6 10 9 21 6 23 -2 3 -7 -2 -11 -11z"/>
<path d="M13215 3329 c-4 -6 -4 -13 -1 -16 3 -4 6 -1 6 6 0 7 5 9 12 5 7 -4 8
-3 4 4 -9 15 -13 15 -21 1z"/>
<path d="M14680 3318 c0 -32 18 -48 52 -48 l27 0 -23 23 c-49 49 -56 52 -56
25z"/>
<path d="M2650 3310 c-9 -6 -10 -10 -3 -10 6 0 15 5 18 10 8 12 4 12 -15 0z"/>
<path d="M2856 3285 c-11 -8 -15 -15 -9 -15 6 0 16 7 23 15 16 19 11 19 -14 0z"/>
<path d="M2625 3264 l-30 -13 27 -1 c15 0 30 5 33 11 11 16 2 17 -30 3z"/>
<path d="M170 3254 l-45 -13 45 5 c45 6 93 24 60 23 -8 -1 -35 -7 -60 -15z"/>
<path d="M909 3266 c-2 -2 -74 -20 -159 -40 -294 -68 -709 -170 -705 -174 5
-6 869 200 880 210 5 5 5 8 -1 8 -6 0 -13 -2 -15 -4z"/>
<path d="M1570 3255 c-25 -7 -58 -16 -74 -19 -15 -4 -26 -9 -23 -12 6 -6 125
24 147 37 21 12 3 10 -50 -6z"/>
<path d="M2010 3179 c-162 -49 -340 -102 -395 -118 -130 -38 -892 -264 -1015
-301 -52 -15 -205 -61 -340 -101 -135 -39 -249 -76 -255 -82 -7 -6 -3 -7 10
-3 176 52 1102 326 1530 452 308 91 598 177 645 191 47 14 100 29 118 35 35
10 42 19 15 17 -10 -1 -151 -41 -313 -90z"/>
<path d="M13496 3261 c9 -9 115 -41 131 -40 10 0 -119 49 -131 49 -7 0 -7 -3
0 -9z"/>
<path d="M14182 3265 c7 -8 340 -97 344 -92 4 4 -325 98 -340 97 -5 0 -7 -2
-4 -5z"/>
<path d="M14900 3261 c8 -5 251 -68 540 -140 289 -73 534 -135 545 -138 13 -3
17 -2 10 5 -9 8 -1079 282 -1101 282 -5 0 -2 -5 6 -9z"/>
<path d="M2730 3250 c-12 -8 -12 -10 5 -10 11 0 27 5 35 10 12 8 12 10 -5 10
-11 0 -27 -5 -35 -10z"/>
<path d="M65 3230 c-25 -11 1 -11 35 0 20 6 21 8 5 8 -11 0 -29 -3 -40 -8z"/>
<path d="M15718 3233 c7 -3 16 -2 19 1 4 3 -2 6 -13 5 -11 0 -14 -3 -6 -6z"/>
<path d="M12696 3221 c-19 -7 -19 -8 0 -13 13 -3 21 0 21 8 0 8 -1 14 -1 13
-1 0 -10 -4 -20 -8z"/>
<path d="M15758 3223 c7 -3 16 -2 19 1 4 3 -2 6 -13 5 -11 0 -14 -3 -6 -6z"/>
<path d="M7 3213 c7 -2 19 -2 26 0 6 3 1 5 -13 5 -14 0 -19 -2 -13 -5z"/>
<path d="M1419 3216 c-2 -2 -134 -39 -294 -81 -159 -42 -292 -79 -295 -82 -7
-8 22 -1 210 49 256 67 426 117 404 117 -11 1 -23 -1 -25 -3z"/>
<path d="M15798 3213 c7 -3 16 -2 19 1 4 3 -2 6 -13 5 -11 0 -14 -3 -6 -6z"/>
<path d="M13715 3190 c28 -10 57 -18 65 -18 8 0 -7 8 -35 18 -27 10 -57 18
-65 18 -8 0 8 -8 35 -18z"/>
<path d="M15904 3190 c44 -11 85 -19 90 -17 12 4 -62 22 -129 31 -22 3 -4 -3
39 -14z"/>
<path d="M2515 3180 c-13 -6 -15 -9 -5 -9 8 0 22 4 30 9 18 12 2 12 -25 0z"/>
<path d="M12600 3180 c0 -5 5 -10 11 -10 5 0 7 5 4 10 -3 6 -8 10 -11 10 -2 0
-4 -4 -4 -10z"/>
<path d="M14548 3163 c7 -3 16 -2 19 1 4 3 -2 6 -13 5 -11 0 -14 -3 -6 -6z"/>
<path d="M14581 3157 c8 -10 321 -98 332 -94 5 1 -60 22 -144 46 -191 54 -195
55 -188 48z"/>
<path d="M2862 3112 c-34 -14 -60 -27 -58 -29 4 -4 136 44 145 52 11 12 -29 1
-87 -23z"/>
<path d="M14110 3065 c124 -40 329 -105 455 -145 127 -39 270 -85 319 -101 49
-16 93 -28 98 -27 6 2 -79 32 -189 67 -109 35 -265 85 -348 111 -277 89 -541
170 -551 169 -5 -1 92 -34 216 -74z"/>
<path d="M2298 3100 c-9 -6 -47 -19 -83 -31 -37 -11 -65 -22 -63 -25 7 -6 134
35 154 51 22 16 17 19 -8 5z"/>
<path d="M2820 3063 c-8 -3 -26 -10 -39 -15 -13 -5 -22 -11 -19 -13 3 -3 25 3
49 14 40 18 46 28 9 14z"/>
<path d="M3070 3055 c-14 -8 -20 -14 -15 -14 6 0 21 6 35 14 14 8 21 14 15 14
-5 0 -21 -6 -35 -14z"/>
<path d="M14960 3045 c19 -7 44 -14 55 -14 11 0 0 7 -25 15 -57 17 -77 17 -30
-1z"/>
<path d="M8 3043 c7 -3 16 -2 19 1 4 3 -2 6 -13 5 -11 0 -14 -3 -6 -6z"/>
<path d="M765 3040 c-25 -11 1 -11 35 0 20 6 21 8 5 8 -11 0 -29 -3 -40 -8z"/>
<path d="M2118 3033 c7 -3 16 -2 19 1 4 3 -2 6 -13 5 -11 0 -14 -3 -6 -6z"/>
<path d="M530 2979 c-102 -27 -257 -68 -345 -90 -183 -46 -189 -48 -184 -54 6
-5 672 165 719 184 54 21 -13 7 -190 -40z"/>
<path d="M2605 3015 c-40 -19 -16 -19 26 0 19 8 27 14 19 14 -8 0 -28 -7 -45
-14z"/>
<path d="M2716 3021 c-4 -5 3 -7 14 -4 23 6 26 13 6 13 -8 0 -17 -4 -20 -9z"/>
<path d="M15090 3010 c30 -10 82 -25 115 -34 79 -21 766 -215 783 -221 6 -2
12 -1 12 4 0 8 -254 81 -719 207 -235 64 -292 78 -191 44z"/>
<path d="M3090 2860 c-8 -5 -10 -10 -5 -10 6 0 17 5 25 10 8 5 11 10 5 10 -5
0 -17 -5 -25 -10z"/>
<path d="M12794 2835 c11 -8 26 -15 33 -15 7 0 13 -4 13 -8 0 -4 9 -8 20 -9
32 -3 24 6 -26 27 -54 24 -66 25 -40 5z"/>
<path d="M13007 2809 c7 -7 15 -10 18 -7 3 3 -2 9 -12 12 -14 6 -15 5 -6 -5z"/>
<path d="M15001 2786 c7 -6 978 -316 991 -316 24 0 -7 18 -57 33 -27 8 -151
47 -275 87 -255 81 -644 200 -656 200 -4 0 -5 -2 -3 -4z"/>
<path d="M3180 2719 c0 -5 5 -7 10 -4 6 3 10 8 10 11 0 2 -4 4 -10 4 -5 0 -10
-5 -10 -11z"/>
<path d="M3125 2705 c-23 -10 -26 -13 -10 -14 11 0 29 6 39 14 24 19 11 19
-29 0z"/>
<path d="M2970 2629 c0 -5 5 -7 10 -4 6 3 10 8 10 11 0 2 -4 4 -10 4 -5 0 -10
-5 -10 -11z"/>
<path d="M980 2610 c-13 -9 -13 -10 0 -10 8 0 22 5 30 10 13 9 13 10 0 10 -8
0 -22 -5 -30 -10z"/>
<path d="M13070 2602 c0 -5 11 -14 25 -20 14 -6 25 -10 25 -8 0 2 -11 11 -25
20 -14 9 -25 13 -25 8z"/>
<path d="M12857 2589 c7 -7 15 -10 18 -7 3 3 -2 9 -12 12 -14 6 -15 5 -6 -5z"/>
<path d="M705 2560 c-13 -6 -15 -9 -5 -9 8 0 22 4 30 9 18 12 2 12 -25 0z"/>
<path d="M12758 2514 c6 -3 10 -10 7 -15 -4 -5 0 -6 8 -4 7 3 39 -6 70 -20 31
-13 57 -22 57 -19 0 6 -96 49 -130 58 -14 3 -19 3 -12 0z"/>
<path d="M2890 2480 c-8 -5 -10 -10 -5 -10 6 0 17 5 25 10 8 5 11 10 5 10 -5
0 -17 -5 -25 -10z"/>
<path d="M2970 2446 c0 -2 7 -7 16 -10 8 -3 12 -2 9 4 -6 10 -25 14 -25 6z"/>
<path d="M12783 2305 c0 -8 4 -12 9 -9 5 3 6 10 3 15 -9 13 -12 11 -12 -6z"/>
<path d="M12816 2302 c-3 -6 -1 -14 5 -17 15 -10 25 3 12 16 -7 7 -13 7 -17 1z"/>
<path d="M12850 2283 c0 -6 21 -23 46 -37 53 -29 54 -30 54 -16 0 6 -3 9 -7 8
-11 -3 -76 32 -85 46 -6 8 -8 8 -8 -1z"/>
<path d="M12967 2209 c7 -7 15 -10 18 -7 3 3 -2 9 -12 12 -14 6 -15 5 -6 -5z"/>
<path d="M2855 2184 c-22 -13 -77 -38 -123 -55 -45 -18 -81 -34 -79 -36 2 -2
16 1 31 7 15 5 32 7 38 4 7 -4 8 -2 4 4 -4 7 -1 12 6 12 17 0 178 77 178 85 0
9 -14 4 -55 -21z"/>
<path d="M2904 2124 c-18 -14 -18 -15 4 -4 12 6 22 13 22 15 0 8 -5 6 -26 -11z"/>
<path d="M2783 2120 c-13 -5 -23 -11 -23 -14 0 -6 60 11 68 19 8 8 -20 5 -45
-5z"/>
<path d="M2600 2075 c-14 -8 -20 -14 -15 -14 6 0 21 6 35 14 14 8 21 14 15 14
-5 0 -21 -6 -35 -14z"/>
<path d="M3144 2068 l-19 -21 28 18 c28 18 33 25 19 25 -5 0 -17 -10 -28 -22z"/>
<path d="M12465 2041 c-3 -5 -2 -12 3 -15 5 -3 9 1 9 9 0 17 -3 19 -12 6z"/>
<path d="M3065 2030 c-3 -5 -5 -10 -3 -11 33 -8 38 -7 27 7 -14 17 -16 17 -24
4z"/>
<path d="M3094 1695 c-10 -8 -14 -15 -8 -15 6 0 17 7 24 15 16 19 9 19 -16 0z"/>
<path d="M11638 1275 c26 -38 110 -120 116 -114 3 2 -27 36 -66 74 -39 39 -62
57 -50 40z"/>
<path d="M11812 1111 c6 -11 23 -26 36 -33 13 -7 30 -25 38 -40 8 -15 18 -28
23 -28 4 0 25 -11 45 -25 20 -14 33 -19 29 -12 -11 19 -141 135 -165 148 -17
9 -18 8 -6 -10z"/>
<path d="M13150 1074 c0 -1 19 -17 43 -34 35 -27 37 -28 12 -4 -16 15 -29 31
-28 34 1 4 -5 7 -13 7 -7 0 -14 -1 -14 -3z"/>
<path d="M12018 933 c6 -11 9 -23 6 -26 -4 -3 11 -13 31 -22 21 -8 39 -14 41
-13 1 2 -18 21 -43 42 -29 25 -42 32 -35 19z"/>
<path d="M12690 935 c0 -8 89 -92 145 -137 29 -24 12 -3 -42 51 -87 85 -103
99 -103 86z"/>
<path d="M12120 851 c0 -5 7 -12 16 -15 14 -5 15 -4 4 9 -14 17 -20 19 -20 6z"/>
<path d="M13459 836 c13 -16 51 -41 51 -33 0 2 -15 14 -32 27 -21 15 -28 17
-19 6z"/>
<path d="M15000 777 c0 -2 15 -14 33 -27 20 -15 27 -17 18 -6 -13 16 -51 41
-51 33z"/>
<path d="M7452 695 c0 -16 2 -22 5 -12 2 9 2 23 0 30 -3 6 -5 -1 -5 -18z"/>
<path d="M7452 625 c0 -16 2 -22 5 -12 2 9 2 23 0 30 -3 6 -5 -1 -5 -18z"/>
<path d="M12397 628 c7 -8 11 -17 9 -19 -2 -2 7 -5 20 -5 32 -2 30 2 -8 22
-27 14 -31 14 -21 2z"/>
<path d="M12510 529 c0 -9 27 -39 60 -68 33 -29 60 -58 60 -65 0 -7 17 -33 38
-57 62 -73 112 -150 104 -163 -3 -5 0 -6 6 -2 6 3 18 -4 26 -16 26 -36 18 -11
-8 30 -14 20 -26 44 -28 52 -2 8 -13 23 -26 33 -12 10 -40 44 -61 75 -21 32
-61 78 -89 104 -28 26 -57 57 -66 70 -12 16 -16 18 -16 7z"/>
<path d="M14140 326 c0 -2 8 -10 18 -17 15 -13 16 -12 3 4 -13 16 -21 21 -21
13z"/>
<path d="M14180 297 c0 -5 149 -123 241 -192 14 -11 52 -39 82 -62 31 -24 59
-43 62 -43 10 0 -115 103 -203 167 -9 7 -46 34 -80 60 -92 69 -102 76 -102 70z"/>
<path d="M12830 135 c1 -5 7 -19 15 -29 16 -21 21 -51 8 -43 -5 3 -8 -5 -8
-18 0 -13 3 -21 6 -19 4 2 9 -3 13 -11 7 -20 42 -19 50 1 3 8 2 13 -3 9 -5 -3
-14 9 -21 27 -11 34 -60 101 -60 83z"/>
</g>
</svg>
